<svg xmlns="http://www.w3.org/2000/svg" xmlns:xlink="http://www.w3.org/1999/xlink" version="1.1" x="0px" y="0px" viewBox="0 0 26 32.5" style="enable-background:new 0 0 26 26;" xml:space="preserve"><rect x="19.508" y="7.008" width="1" height="1"/><rect x="20.508" y="8.008" width="1" height="1"/><rect x="18.508" y="6.008" width="1" height="1"/><rect x="7.508" y="17.008" width="1" height="1"/><rect x="8.508" y="18.008" width="1" height="1"/><rect x="6.508" y="16.008" width="1" height="1"/><rect x="5.508" y="15.008" width="1" height="1"/><rect x="4.508" y="14.008" width="1" height="1"/><rect x="9.508" y="15.008" width="1" height="1"/><rect x="8.508" y="14.008" width="1" height="1"/><rect x="7.508" y="13.008" width="1" height="1"/><rect x="6.508" y="12.008" width="1" height="1"/><rect x="5.508" y="13.008" width="1" height="1"/><rect x="19.508" y="9.008" width="1" height="1"/><rect x="18.508" y="10.008" width="1" height="1"/><rect x="17.523" y="11.023" width="1" height="1"/><rect x="16.523" y="12.023" width="1" height="1"/><rect x="15.5" y="13" width="1" height="1"/><rect x="14.5" y="14" width="1" height="1"/><rect x="13.523" y="15.023" width="1" height="1"/><rect x="12.523" y="16.023" width="1" height="1"/><rect x="11.5" y="17" width="1" height="1"/><rect x="17.508" y="7.008" width="1" height="1"/><rect x="16.508" y="8.008" width="1" height="1"/><rect x="15.508" y="9.008" width="1" height="1"/><rect x="14.508" y="10.008" width="1" height="1"/><rect x="13.508" y="11.008" width="1" height="1"/><rect x="12.508" y="12.008" width="1" height="1"/><rect x="11.508" y="13.008" width="1" height="1"/><rect x="10.508" y="14.008" width="1" height="1"/><rect x="10.508" y="18.008" width="1" height="1"/><rect x="9.508" y="19.008" width="1" height="1"/><text x="0" y="41" fill="#000000" font-size="5px" font-weight="bold" font-family="'Helvetica Neue', Helvetica, Arial-Unicode, Arial, Sans-serif">Created by Yafet bouchagra</text><text x="0" y="46" fill="#000000" font-size="5px" font-weight="bold" font-family="'Helvetica Neue', Helvetica, Arial-Unicode, Arial, Sans-serif">from the Noun Project</text></svg>