<?xml version="1.0" encoding="UTF-8" standalone="no"?>
<!-- Created with Inkscape (http://www.inkscape.org/) -->

<svg
   width="4.2333331mm"
   height="3.175mm"
   viewBox="0 0 4.2333331 3.175"
   version="1.1"
   id="svg1083"
   xmlns="http://www.w3.org/2000/svg"
   xmlns:svg="http://www.w3.org/2000/svg">
  <defs
     id="defs1080" />
  <g
     id="layer1"
     transform="translate(-106.11215,-153.20488)">
    <g
       transform="matrix(0.26458333,0,0,0.26458333,71.980896,-90.04303)"
       id="g6279">
      <path
         style="display:inline;fill:#0c0c0c;fill-opacity:1;stroke:none"
         d="m 130,356 v 1 h -1 v 10 h 1 v 1 h 14 v -1 h 1 v -10 h -1 v -1 z"
         transform="translate(0,563.36218)"
         id="path15140" />
      <g
         transform="translate(-566,609.36218)"
         id="g15132">
        <g
           transform="translate(-47,-183)"
           id="g15134">
          <g
             id="g15138" />
        </g>
        <path
           id="path15144"
           d="m 695.99982,311 h 14 v 10 h -14 z"
           style="display:inline;fill:#0707f6;fill-opacity:1;stroke:none" />
        <path
           style="display:inline;fill:#fcfcfc;fill-opacity:1;stroke:none"
           d="m 135,357 v 2 h -5 v 4 h 5 v 4 h 4 v -4 h 5 v -4 h -5 v -2 z"
           transform="translate(566,-46)"
           id="path15146" />
        <path
           id="path15148"
           d="m 695.99982,319 h 14 v 2 h -14 z"
           style="display:inline;fill:#0a0a94;fill-opacity:1;stroke:none" />
        <path
           id="path15152"
           d="m 701,319 h 4 v 2 h -4 z"
           style="display:inline;fill:#adadad;fill-opacity:1;stroke:none" />
        <path
           style="display:inline;fill:#f90404;fill-opacity:1;stroke:none"
           d="m 136,357 v 3 h -6 v 2 h 6 v 5 h 2 v -5 h 6 v -2 h -6 v -3 z"
           transform="translate(566,-46)"
           id="path15154" />
        <path
           id="path15158"
           d="m 702,319 h 2 v 2 h -2 z"
           style="display:inline;fill:#ad0707;fill-opacity:1;stroke:none" />
        <g
           transform="translate(40)"
           id="g15160">
          <path
             style="display:inline;fill:#fcfcfc;fill-opacity:1;stroke:none"
             d="m 130,357 v 1 h 1 v 1 h 3 v -1 h -1 v -1 z"
             transform="translate(526,-46)"
             id="path15164" />
        </g>
        <g
           id="g15168"
           transform="matrix(-1,0,0,1,1366,0)">
          <path
             style="display:inline;fill:#fcfcfc;fill-opacity:1;stroke:none"
             d="m 141,357 v 1 h -1 v 1 h 3 v -1 h 1 v -1 z"
             transform="matrix(-1,0,0,1,800,-46)"
             id="path15172" />
        </g>
        <g
           id="g15176"
           transform="matrix(1,0,0,-1,40,631)">
          <path
             style="display:inline;fill:#fcfcfc;fill-opacity:1;stroke:none"
             d="m 132,363 v 1 h -1 v 1 h 3 v -1 h 1 v -1 z"
             transform="matrix(1,0,0,-1,526,677)"
             id="path15178" />
          <path
             style="display:inline;fill:#adadad;fill-opacity:1;stroke:none"
             d="m 130,365 v 2 h 2 v -1 h 1 v -1 z"
             transform="matrix(1,0,0,-1,526,677)"
             id="path15182" />
        </g>
        <g
           transform="rotate(180,683,315.5)"
           id="g15186">
          <path
             style="display:inline;fill:#fcfcfc;fill-opacity:1;stroke:none"
             d="m 139,363 v 1 h 1 v 1 h 3 v -1 h -1 v -1 z"
             transform="rotate(180,400,338.5)"
             id="path15188" />
          <path
             style="display:inline;fill:#adadad;fill-opacity:1;stroke:none"
             d="m 141,365 v 1 h 1 v 1 h 2 v -2 z"
             transform="rotate(180,400,338.5)"
             id="path15192" />
        </g>
        <g
           transform="translate(40)"
           id="g15196">
          <path
             id="path15198"
             d="m 658,312 h 1 v 1 h -1 z"
             style="display:inline;fill:#f90404;fill-opacity:1;stroke:none" />
          <path
             id="path15200"
             d="m 657,311 h 1 v 1 h -1 z"
             style="display:inline;fill:#f90404;fill-opacity:1;stroke:none" />
        </g>
        <g
           id="g15202"
           transform="matrix(-1,0,0,1,1366,0)">
          <path
             id="path15204"
             d="m 658,312 h 1 v 1 h -1 z"
             style="display:inline;fill:#f90404;fill-opacity:1;stroke:none" />
          <path
             id="path15206"
             d="m 657,311 h 1 v 1 h -1 z"
             style="display:inline;fill:#f90404;fill-opacity:1;stroke:none" />
        </g>
        <g
           id="g15208"
           transform="matrix(1,0,0,-1,40,631)">
          <path
             id="path15210"
             d="m 659,313 h 1 v 1 h -1 z"
             style="display:inline;fill:#f90404;fill-opacity:1;stroke:none" />
          <path
             id="path15212"
             d="m 658,312 h 1 v 1 h -1 z"
             style="display:inline;fill:#f90404;fill-opacity:1;stroke:none" />
          <path
             id="path15214"
             d="m 657,311 h 1 v 1 h -1 z"
             style="display:inline;fill:#ad0707;fill-opacity:1;stroke:none" />
          <path
             id="path15216"
             d="m 656,310 h 1 v 1 h -1 z"
             style="display:inline;fill:#ad0707;fill-opacity:1;stroke:none" />
        </g>
        <g
           transform="rotate(180,683,315.5)"
           id="g15218">
          <path
             id="path15220"
             d="m 659,313 h 1 v 1 h -1 z"
             style="display:inline;fill:#f90404;fill-opacity:1;stroke:none" />
          <path
             id="path15222"
             d="m 658,312 h 1 v 1 h -1 z"
             style="display:inline;fill:#f90404;fill-opacity:1;stroke:none" />
          <path
             id="path15224"
             d="m 657,311 h 1 v 1 h -1 z"
             style="display:inline;fill:#ad0707;fill-opacity:1;stroke:none" />
          <path
             id="path15226"
             d="m 656,310 h 1 v 1 h -1 z"
             style="display:inline;fill:#ad0707;fill-opacity:1;stroke:none" />
        </g>
      </g>
    </g>
  </g>
</svg>
