<?xml version="1.0" encoding="UTF-8" standalone="no"?>
<!-- Created with Inkscape (http://www.inkscape.org/) -->

<svg
   version="1.1"
   id="svg19807"
   width="626"
   height="626"
   viewBox="0 0 626 626"
   sodipodi:docname="girl.svg"
   inkscape:version="1.2.1 (9c6d41e410, 2022-07-14)"
   xmlns:inkscape="http://www.inkscape.org/namespaces/inkscape"
   xmlns:sodipodi="http://sodipodi.sourceforge.net/DTD/sodipodi-0.dtd"
   xmlns="http://www.w3.org/2000/svg"
   xmlns:svg="http://www.w3.org/2000/svg">
  <defs
     id="defs19811" />
  <sodipodi:namedview
     id="namedview19809"
     pagecolor="#ffffff"
     bordercolor="#000000"
     borderopacity="0.25"
     inkscape:showpageshadow="2"
     inkscape:pageopacity="0.0"
     inkscape:pagecheckerboard="0"
     inkscape:deskcolor="#d1d1d1"
     showgrid="false"
     inkscape:zoom="1.6405751"
     inkscape:cx="342.5628"
     inkscape:cy="123.7371"
     inkscape:window-width="3840"
     inkscape:window-height="2054"
     inkscape:window-x="-11"
     inkscape:window-y="-11"
     inkscape:window-maximized="1"
     inkscape:current-layer="g19813" />
  <g
     inkscape:groupmode="layer"
     inkscape:label="Image"
     id="g19813"
     transform="translate(-215.16845,-62.17332)">
    <g
       id="g19835"
       transform="translate(215.16845,62.17332)">
      <path
         style="fill:#f8e1c7"
         d="m 255.3605,587 c 0,-5.225 0.16854,-7.3625 0.37454,-4.75 0.206,2.6125 0.206,6.8875 0,9.5 -0.206,2.6125 -0.37454,0.475 -0.37454,-4.75 z m 0.0656,-67.5 c 7.5e-4,-12.1 0.14515,-16.91256 0.32089,-10.69458 0.17573,6.21799 0.17511,16.11799 -0.001,22 -0.17649,5.88202 -0.32027,0.79458 -0.31951,-11.30542 z m 116,0 c 7.5e-4,-12.1 0.14515,-16.91256 0.32089,-10.69458 0.17573,6.21799 0.17511,16.11799 -10e-4,22 -0.17649,5.88202 -0.32027,0.79458 -0.31951,-11.30542 z m -48.34719,17.91667 c 0.048,-1.16495 0.28494,-1.4019 0.60416,-0.60417 0.28887,0.72187 0.25335,1.58438 -0.0789,1.91667 -0.33229,0.33229 -0.56864,-0.25834 -0.52522,-1.3125 z M 323.34941,520 c 0,-4.675 0.17226,-6.5875 0.3828,-4.25 0.21053,2.3375 0.21053,6.1625 0,8.5 -0.21054,2.3375 -0.3828,0.425 -0.3828,-4.25 z m -20.43065,-12.25 c -0.0447,-2.3375 -0.17052,-5.45277 -0.27965,-6.92283 -0.10912,-1.47006 0.0942,-2.49197 0.45189,-2.27093 0.76593,0.47337 1.17215,13.44376 0.42104,13.44376 -0.28162,0 -0.5486,-1.9125 -0.59328,-4.25 z m 20.16019,-4.33333 c 0.048,-1.16495 0.28494,-1.4019 0.60416,-0.60417 0.28887,0.72187 0.25335,1.58438 -0.0789,1.91667 -0.33229,0.33229 -0.56864,-0.25834 -0.52522,-1.3125 z M 400.75,440.2766 c 1.7875,-0.22182 4.7125,-0.22182 6.5,0 1.7875,0.22183 0.325,0.40333 -3.25,0.40333 -3.575,0 -5.0375,-0.1815 -3.25,-0.40333 z m -161.9375,-0.95971 c 0.72187,-0.28887 1.58437,-0.25335 1.91667,0.0789 0.33229,0.33229 -0.25834,0.56864 -1.3125,0.52522 -1.16495,-0.048 -1.4019,-0.28494 -0.60417,-0.60416 z M 422.40709,424 c 0,-9.075 0.1516,-12.7875 0.3369,-8.25 0.18529,4.5375 0.18529,11.9625 0,16.5 -0.1853,4.5375 -0.3369,0.825 -0.3369,-8.25 z m -218.0046,-3 c 0,-8.525 0.15337,-12.0125 0.34082,-7.75 0.18745,4.2625 0.18745,11.2375 0,15.5 -0.18745,4.2625 -0.34082,0.775 -0.34082,-7.75 z m 37.82951,3 c 0,-1.925 0.2058,-2.7125 0.45733,-1.75 0.25152,0.9625 0.25152,2.5375 0,3.5 -0.25153,0.9625 -0.45733,0.175 -0.45733,-1.75 z m 142.96295,-2.5 c 0.0204,-1.65 0.2445,-2.20394 0.49804,-1.23097 0.25354,0.97297 0.23687,2.32297 -0.0371,3 -0.27393,0.67703 -0.48137,-0.11903 -0.46099,-1.76903 z m -0.116,-7.08333 c 0.048,-1.16495 0.28494,-1.4019 0.60416,-0.60417 0.28887,0.72187 0.25335,1.58438 -0.0789,1.91667 -0.33229,0.33229 -0.56864,-0.25834 -0.52522,-1.3125 z M 242,407.08333 c 0,-1.60416 -0.5625,-3.14364 -1.25,-3.42105 -0.74674,-0.30132 -0.54544,-0.53617 0.5,-0.58333 1.34837,-0.0608 1.75,0.72431 1.75,3.42105 0,1.925 -0.225,3.5 -0.5,3.5 -0.275,0 -0.5,-1.3125 -0.5,-2.91667 z M 384,406.5 c 0,-1.925 0.35964,-3.5 0.7992,-3.5 0.43956,0 0.61533,1.575 0.39059,3.5 -0.22473,1.925 -0.58437,3.5 -0.7992,3.5 C 384.17577,410 384,408.425 384,406.5 Z M 205,403 c 0,-0.55 0.70156,-1 1.55902,-1 0.85746,0 1.2809,0.45 0.94098,1 -0.33992,0.55 -1.04148,1 -1.55902,1 C 205.42344,404 205,403.55 205,403 Z m 209.8125,0.31689 c 0.72187,-0.28887 1.58438,-0.25335 1.91667,0.0789 0.33229,0.33229 -0.25834,0.56864 -1.3125,0.52522 -1.16495,-0.048 -1.4019,-0.28494 -0.60417,-0.60416 z m -201.93974,-1.39346 2.37276,-0.94981 -0.37276,-41.73681 L 214.5,317.5 l 8.5,-0.0687 8.5,-0.0687 -8.25,0.35911 -8.25,0.35911 v 6.55609 6.55609 l 9.53749,-0.34653 c 5.78627,-0.21024 9.81772,-0.80138 10.25,-1.503 0.39188,-0.63605 0.58365,15.04813 0.42616,34.85374 -0.20835,26.20043 0.0293,36.39056 0.87244,37.40646 0.98237,1.18368 -0.87724,1.38662 -12.21365,1.33288 -9.49675,-0.045 -12.68475,-0.33866 -10.99968,-1.01318 z m 176.96919,-35.67302 c 0.18807,-20.21273 0.52445,-36.30041 0.74751,-35.75041 0.24326,0.59982 4.18414,0.87306 9.84767,0.6828 7.74928,-0.26034 9.49775,-0.60775 9.75249,-1.9378 0.17071,-0.89133 0.31038,15.33872 0.31038,36.06676 v 37.68736 l -10.5,8.5e-4 -10.5,8.4e-4 z m -70.24189,6.07572 c 0.60503,-0.45437 1.38459,-1.50113 1.73236,-2.32613 0.44428,-1.05395 0.56321,-0.92991 0.39995,0.41713 -0.12781,1.05443 -0.90737,2.10119 -1.73237,2.32613 -0.96478,0.26307 -1.10748,0.11423 -0.39994,-0.41713 z M 321.19495,365.5 c 0.0204,-1.65 0.2445,-2.20394 0.49804,-1.23097 0.25354,0.97297 0.23687,2.32297 -0.0371,3 -0.27393,0.67703 -0.48137,-0.11903 -0.46099,-1.76903 z M 312.5,361 l -9,-0.62206 8.69098,-0.18897 c 4.93074,-0.10721 8.95838,0.24369 9.30902,0.81103 0.33992,0.55 0.47898,0.91496 0.30902,0.81103 C 321.63906,361.7071 317.45,361.34213 312.5,361 Z m -0.31457,-17.72236 c 7.19016,-0.29274 8.7565,-0.64836 9.09828,-2.06563 0.29821,-1.23662 0.38556,-1.15665 0.31457,0.28799 -0.0904,1.83941 -0.82092,2.00527 -9.09828,2.06563 l -9,0.0656 8.68543,-0.35362 z m 8.37886,-10.98451 c -0.54268,-1.4252 -0.42782,-1.54006 0.5598,-0.5598 0.68342,0.67834 0.99067,1.48524 0.68278,1.79313 -0.30789,0.30789 -0.86705,-0.24711 -1.24258,-1.23333 z M 410,322.58333 c 0,-1.87916 -0.5625,-3.64364 -1.25,-3.92105 -0.74674,-0.30132 -0.54544,-0.53617 0.5,-0.58333 1.38816,-0.0626 1.75,0.74812 1.75,3.92105 0,2.2 -0.225,4 -0.5,4 -0.275,0 -0.5,-1.5375 -0.5,-3.41667 z M 234,319 c 0,-0.55 0.45,-1 1,-1 0.55,0 1,0.45 1,1 0,0.55 -0.45,1 -1,1 -0.55,0 -1,-0.45 -1,-1 z m 162.76791,-1.72473 c 1.79735,-0.22256 4.49735,-0.21797 6,0.0102 1.50265,0.22818 0.0321,0.41027 -3.26791,0.40466 -3.3,-0.006 -4.52944,-0.1923 -2.73209,-0.41486 z M 324.30987,306.5 c 0.006,-3.3 0.1923,-4.52944 0.41486,-2.73209 0.22256,1.79735 0.21797,4.49735 -0.0102,6 -0.22818,1.50265 -0.41027,0.0321 -0.40466,-3.26791 z m -0.23092,-12.08333 c 0.048,-1.16495 0.28494,-1.4019 0.60416,-0.60417 0.28887,0.72187 0.25335,1.58438 -0.0789,1.91667 -0.33229,0.33229 -0.56864,-0.25834 -0.52522,-1.3125 z m 5.67105,-2.1224 c 1.2375,-0.23836 3.2625,-0.23836 4.5,0 1.2375,0.23835 0.225,0.43337 -2.25,0.43337 -2.475,0 -3.4875,-0.19502 -2.25,-0.43337 z m -44.67105,-7.8776 c 0.048,-1.16495 0.28494,-1.4019 0.60416,-0.60417 0.28887,0.72187 0.25335,1.58438 -0.0789,1.91667 -0.33229,0.33229 -0.56864,-0.25834 -0.52522,-1.3125 z M 291.75,277.2766 c 1.7875,-0.22182 4.7125,-0.22182 6.5,0 1.7875,0.22183 0.325,0.40333 -3.25,0.40333 -3.575,0 -5.0375,-0.1815 -3.25,-0.40333 z m 35.9777,0.002 c 1.77523,-0.22091 4.92523,-0.22454 7,-0.008 2.07476,0.21648 0.6223,0.39722 -3.2277,0.40166 -3.85,0.004 -5.54754,-0.17268 -3.7723,-0.39359 z m -18.46395,-1.99585 c 1.52006,-0.22986 3.77006,-0.22371 5,0.0136 1.22994,0.23736 -0.0138,0.42542 -2.76375,0.41792 -2.75,-0.008 -3.75631,-0.20172 -2.23625,-0.43157 z M 303.90793,263.7684 297,256.79161 v -7.86593 -7.86593 l -12.75,-0.31254 -12.75,-0.31255 13.30479,-0.21733 L 298.10958,240 297.80479,235.25 297.5,230.5 285.25,230.21922 273,229.93844 V 224.46922 219 h -6 -6 v -5.95431 -5.95431 l -6.39345,-0.29569 -6.39344,-0.29569 -0.52673,-44.25 -0.52674,-44.25 47.17018,-0.0692 c 25.9436,-0.0381 49.64518,-0.15057 52.67018,-0.25 l 5.5,-0.18079 v -6.25182 -6.25183 l 5.75,0.002 5.75,0.002 v 6.5 6.5 h 6.5 6.5 v 44.5 44.5 h -6.5 -6.5 v 6 6 h -6 -6 v 5.46826 5.46827 l -11.75,0.28173 -11.75,0.28174 -0.0752,4.5 -0.0752,4.5 -15.17481,0.27605 -15.17481,0.27604 v 6.47396 6.47395 h 14.95228 14.95229 l 0.29771,-6.25 0.29772,-6.25 11.5,-0.0476 11.5,-0.0476 -11.25,0.32932 -11.25,0.32932 v 8.07787 8.07786 l -6.26542,6.45271 c -8.7157,8.97621 -10.02789,8.98294 -18.82665,0.0965 z M 328,213 v -6 l -15.25,-0.002 -15.25,-0.002 0.33882,6.00182 0.33882,6.00182 H 313.08882 328 v -6 z m 31,-41.62907 V 156 h -9 -9 v 14.83333 c 0,8.15834 0.1931,15.02084 0.42911,15.25 0.23601,0.22917 4.28601,0.47109 9,0.5376 L 359,186.74186 Z M 285.5,170.5 v -15 l -9.25,-0.28753 -9.25,-0.28752 V 170.5 186.07505 l 9.25,-0.28752 9.25,-0.28753 z m 83.29258,-33.7785 0.29257,-7.77849 -13.79257,0.27849 L 341.5,129.5 l -0.29278,7.19882 -0.29277,7.19882 5.79277,0.38028 c 3.18603,0.20915 9.39278,0.34468 13.79278,0.30118 l 8,-0.0791 z M 285.5,136.5 v -7 L 272.75,129.22012 260,128.94025 V 136.5 144.05975 L 272.75,143.77988 285.5,143.5 Z m -35.25,103.78375 c 1.5125,-0.22913 3.9875,-0.22913 5.5,0 1.5125,0.22912 0.275,0.41659 -2.75,0.41659 -3.025,0 -4.2625,-0.18747 -2.75,-0.41659 z m 134.31429,-0.57688 c 0.37553,-0.98622 0.93469,-1.54122 1.24258,-1.23333 0.30789,0.30789 6.4e-4,1.11479 -0.68278,1.79313 -0.98762,0.98026 -1.10248,0.8654 -0.5598,-0.5598 z m -155.79638,-10.4316 c 1.79735,-0.22256 4.49735,-0.21797 6,0.0102 1.50265,0.22818 0.0321,0.41027 -3.26791,0.40466 -3.3,-0.006 -4.52944,-0.1923 -2.73209,-0.41486 z m -14.32721,-12.5692 c -0.27309,-0.71167 -0.35847,-8.02417 -0.18974,-16.25 l 0.30679,-14.95607 0.22113,15.7001 0.22112,15.70009 5.75,0.36082 5.75,0.36082 -5.78138,0.18909 c -3.95188,0.12924 -5.93852,-0.22038 -6.27792,-1.10485 z M 224.75,185.21379 215,184.92758 v -18.82422 c 0,-10.35332 -0.16659,-20.79952 -0.3702,-23.21379 -0.20361,-2.41426 -0.1751,-3.15207 0.0634,-1.63957 l 0.43356,2.75 h 9.78554 9.78554 l 0.70862,20.14248 c 0.38975,11.07836 0.34524,20.41586 -0.0989,20.75 -0.44413,0.33413 -5.19502,0.47872 -10.55752,0.32131 z M 409.41858,165 c 0,-10.725 0.14711,-15.1125 0.32692,-9.75 0.17981,5.3625 0.17981,14.1375 0,19.5 -0.17981,5.3625 -0.32692,0.975 -0.32692,-9.75 z M 214.39739,104 c 0,-7.975 0.1553,-11.2375 0.34512,-7.25 0.18981,3.9875 0.18981,10.5125 0,14.5 -0.18982,3.9875 -0.34512,0.725 -0.34512,-7.25 z M 399.25218,86.5 c 0.0111,-2.2 0.21589,-2.982253 0.45508,-1.738341 0.23919,1.243913 0.23011,3.043913 -0.0202,4 -0.25029,0.956088 -0.446,-0.06166 -0.4349,-2.261659 z m -173.86364,-10 c 0.002,-7.15 0.16103,-9.943785 0.35396,-6.208412 0.19293,3.735374 0.19149,9.585374 -0.003,13 C 225.54464,86.706215 225.38679,83.65 225.38854,76.5 Z M 390.76791,64.275269 c 1.79735,-0.222562 4.49735,-0.217969 6,0.0102 1.50265,0.228174 0.0321,0.41027 -3.26791,0.404657 -3.3,-0.0056 -4.52944,-0.192301 -2.73209,-0.414862 z M 237.27236,60 c 0,-2.475 0.19502,-3.4875 0.43337,-2.25 0.23836,1.2375 0.23836,3.2625 0,4.5 -0.23835,1.2375 -0.43337,0.225 -0.43337,-2.25 z m -0.19341,-6.583333 c 0.048,-1.164943 0.28494,-1.4019 0.60416,-0.604167 0.28887,0.721875 0.25335,1.584375 -0.0789,1.916667 -0.3323,0.332291 -0.56864,-0.258334 -0.52522,-1.3125 z M 376.15789,45 c 0,-1.375 0.22698,-1.9375 0.50439,-1.25 0.27741,0.6875 0.27741,1.8125 0,2.5 -0.27741,0.6875 -0.50439,0.125 -0.50439,-1.25 z M 251.76791,40.275269 c 1.79735,-0.222562 4.49735,-0.217969 6,0.0102 1.50265,0.228174 0.0321,0.41027 -3.26791,0.404657 -3.3,-0.0056 -4.52944,-0.192301 -2.73209,-0.414862 z M 364.30987,34.5 c 0.006,-3.3 0.1923,-4.529441 0.41486,-2.732091 0.22256,1.79735 0.21797,4.49735 -0.0102,6 C 364.48635,39.270559 364.30426,37.8 364.30987,34.5 Z"
         id="path19857" />
      <path
         style="fill:#d1e3eb"
         d="m 279.87058,575.25117 -23.62941,-0.2868 -0.72958,-16.53985 c -0.40127,-9.09692 -0.45554,-16.81391 -0.12059,-17.14886 0.33495,-0.33494 0.609,3.08159 0.609,7.5923 v 8.20129 L 279.75,556.78463 303.5,556.5 v 9.75 c 0,5.3625 0,9.64604 0,9.51898 0,-0.12706 -10.63324,-0.36007 -23.62942,-0.51781 z m 90.89523,0.1813 c -0.31214,-0.31214 -11.18714,-0.52329 -24.16667,-0.46922 L 323,575.06156 V 566.03078 557 h 23.95956 23.95956 l 0.36337,-7.75 c 0.19985,-4.2625 0.33055,0.0105 0.29044,9.49565 -0.0401,9.48511 -0.11043,17.24761 -0.15626,17.25 -0.0458,0.002 -0.33872,-0.25104 -0.65086,-0.56318 z m -136.42073,-78.9756 c -0.32569,-0.84872 -0.36872,-1.76657 -0.0956,-2.03966 0.27309,-0.2731 0.73656,0.42131 1.02992,1.54313 0.62315,2.38293 -0.0692,2.75089 -0.9343,0.49653 z m 13.40492,0.8374 c 1.2375,-0.23836 3.2625,-0.23836 4.5,0 1.2375,0.23835 0.225,0.43337 -2.25,0.43337 -2.475,0 -3.4875,-0.19502 -2.25,-0.43337 z m 60,-0.0315 c 2.8875,-0.202 7.6125,-0.202 10.5,0 2.8875,0.202 0.525,0.36728 -5.25,0.36728 -5.775,0 -8.1375,-0.16528 -5.25,-0.36728 z M 234.42751,462 c 0,-12.375 0.14355,-17.4375 0.319,-11.25 0.17544,6.1875 0.17544,16.3125 0,22.5 -0.17545,6.1875 -0.319,1.125 -0.319,-11.25 z M 241.5,439 c 0.33992,-0.55 0.81648,-1 1.05902,-1 0.24254,0 0.44098,0.45 0.44098,1 0,0.55 -0.47656,1 -1.05902,1 -0.58246,0 -0.7809,-0.45 -0.44098,-1 z m 6.76903,-28.69299 c 0.97297,-0.25354 2.32297,-0.23687 3,0.0371 0.67703,0.27393 -0.11903,0.48137 -1.76903,0.46099 -1.65,-0.0204 -2.20394,-0.2445 -1.23097,-0.49804 z M 372.46013,365.5 c 2.2e-4,-24.75 0.13031,-34.73177 0.28909,-22.18172 0.15877,12.55005 0.15859,32.80005 -4e-4,45 -0.159,12.19995 -0.2889,1.93172 -0.28869,-22.81828 z m -0.44482,-79.28518 c -0.015,-33.57714 0.0246,-34.26383 1.91697,-33.25107 1.06275,0.56877 2.19331,1.8566 2.51237,2.86185 0.33924,1.06885 2.13194,2.21108 4.31772,2.75106 3.51116,0.86739 3.75626,1.18086 4.04513,5.17334 0.29836,4.12371 0.41053,4.25 3.77475,4.25 2.7933,0 3.65506,0.49397 4.43346,2.54132 0.53142,1.39773 2.31743,3.31023 3.96893,4.25 1.82798,1.04021 3.00519,2.52613 3.00904,3.79816 0.007,2.31292 3.5993,4.41052 7.55337,4.41052 H 410 l -10e-4,17.25 -0.001,17.25 -18.20773,0.27949 c -12.97847,0.19922 -18.43045,0.63002 -18.98321,1.5 -0.42652,0.67128 -0.78238,-14.20782 -0.7908,-33.06467 z M 223.25,317.25601 215,316.91912 214.9,301.95956 C 214.845,293.7318 214.8,285.875 214.8,284.5 c 0,-1.375 0.045,-2.87766 0.1,-3.33924 0.055,-0.46157 1.5625,-0.72989 3.35,-0.59626 6.22419,0.46533 7.7498,-0.40512 7.75193,-4.42291 0.002,-3.24784 0.54236,-4.00992 5,-7.0481 2.92418,-1.99301 4.99807,-4.16301 4.99807,-5.22967 0,-1.12026 1.54218,-2.60993 4,-3.86382 2.2,-1.12236 4,-2.71764 4,-3.54507 0,-1.45701 2.45977,-2.77927 7.5441,-4.05536 L 254,251.78318 V 284.89159 318 l -11.25,-0.20355 c -6.1875,-0.11195 -14.9625,-0.35514 -19.5,-0.54044 z m 71.5,-4.91829 c 0.6875,-0.27741 1.8125,-0.27741 2.5,0 0.6875,0.27741 0.125,0.50439 -1.25,0.50439 -1.375,0 -1.9375,-0.22698 -1.25,-0.50439 z m 35.01791,-0.0625 c 1.79735,-0.22256 4.49735,-0.21797 6,0.0102 1.50265,0.22818 0.0321,0.41027 -3.26791,0.40466 -3.3,-0.006 -4.52944,-0.1923 -2.73209,-0.41486 z M 286.3605,303 c 0,-5.225 0.16854,-7.3625 0.37454,-4.75 0.206,2.6125 0.206,6.8875 0,9.5 -0.206,2.6125 -0.37454,0.475 -0.37454,-4.75 z m 52.94937,-1.5 c 0.006,-3.3 0.1923,-4.52944 0.41486,-2.73209 0.22256,1.79735 0.21797,4.49735 -0.0102,6 -0.22818,1.50265 -0.41027,0.0321 -0.40466,-3.26791 z m -67.08177,-29.25 0.2281,-20.75 0.29246,20.20478 0.29246,20.20478 6.72944,0.34936 6.72944,0.34936 -7.25,0.19586 L 272,293 Z"
         id="path19855" />
      <path
         style="fill:#f2c6a5"
         d="m 302.99397,585.79574 c -0.27169,-5.88734 -0.1393,-10.34766 0.29419,-9.91183 0.43349,0.43583 0.65578,5.25274 0.49397,10.70425 L 303.48793,596.5 Z M 276.75,541.25114 256,540.95942 V 518.97971 497 h 23.38061 23.38061 l 0.16777,21.87445 c 0.14875,19.39509 -0.017,21.94535 -1.4624,22.5 -0.89659,0.34405 -2.15586,0.52269 -2.79838,0.39698 -0.64251,-0.12572 -10.50571,-0.35985 -21.91821,-0.52029 z m 46.75,-22.00113 v -22.24999 l 23.75,-1e-5 L 371,497 v 21.83333 c 0,19.99858 -0.14706,21.86166 -1.75,22.1704 -0.9625,0.18539 -11.65,0.37289 -23.75,0.41667 l -22,0.0796 z M 205,422.10699 c 0,-15.3936 0.22095,-17.9778 1.58179,-18.5 2.54816,-0.97782 32.7763,-0.66611 34.39035,0.35463 1.19867,0.75805 1.47731,4.04397 1.5,17.68883 l 0.0279,16.75783 -2.5,0.69618 c -1.375,0.3829 -9.8125,0.74104 -18.75,0.79586 L 205,440 Z M 385.47429,421.75 385.5,403.5 l 18.18639,-0.13696 c 12.83707,-0.0967 18.27928,0.19747 18.50218,1 0.17368,0.62533 0.17267,8.89946 -0.002,18.38696 L 421.86854,440 h -18.20985 -18.20986 l 0.0257,-18.25 z M 304.25,372.33772 c -0.78556,-0.31698 -1.25,-2.5309 -1.25,-5.95858 v -5.45419 l 9.20138,0.28752 9.20137,0.28753 -0.11904,4.8901 c -0.0698,2.86804 -0.66997,5.23934 -1.45138,5.73469 -1.41607,0.89767 -13.47692,1.06248 -15.58233,0.21293 z m -0.82959,-30.68453 c -0.80048,-2.08601 -0.0383,-9.06657 1.07959,-9.88788 0.55,-0.40408 4.24667,-0.74158 8.21482,-0.75 7.86649,-0.0167 9.32222,0.97991 8.74179,5.98469 -0.15947,1.375 -0.32744,3.2875 -0.37328,4.25 -0.0725,1.5234 -1.188,1.75 -8.61471,1.75 -6.2297,0 -8.67082,-0.36336 -9.04821,-1.34681 z m 87.08807,-11.48498 C 390.22881,329.43573 390,326.67137 390,324.0252 390,318.29615 390.49152,318 400,318 c 9.75634,0 10,0.1715 10,7.03837 v 5.82439 l -9.49152,0.31862 c -7.21216,0.2421 -9.61364,-10e-4 -10,-1.01317 z M 215,324.5 V 318 h 9.39301 C 234.92245,318 235,318.0546 235,325.46516 c 0,5.15379 -0.77026,5.50096 -12.25,5.52119 L 215,331 Z m 110.8125,-32.18311 c 0.72187,-0.28887 1.58438,-0.25335 1.91667,0.0789 0.33229,0.33229 -0.25834,0.56864 -1.3125,0.52522 -1.16495,-0.048 -1.4019,-0.28494 -0.60417,-0.60416 z m 10.9375,0.0208 c 0.6875,-0.27741 1.8125,-0.27741 2.5,0 0.6875,0.27741 0.125,0.50439 -1.25,0.50439 -1.375,0 -1.9375,-0.22698 -1.25,-0.50439 z m -49.9375,-15.02083 c 0.72187,-0.28887 1.58438,-0.25335 1.91667,0.0789 0.33229,0.33229 -0.25834,0.56864 -1.3125,0.52522 -1.16495,-0.048 -1.4019,-0.28494 -0.60417,-0.60416 z M 298,246.5 V 240 H 285.5 273 v -5.03078 -5.03078 l 12.25,0.28078 12.25,0.28078 0.30584,4.77575 0.30585,4.77574 15.11896,-0.27574 15.11897,-0.27575 0.0752,-4.5 0.0752,-4.5 11.75,-0.28174 11.75,-0.28173 v 5.00696 5.00697 l 15.75,0.36261 c 8.6625,0.19944 3.375,0.32308 -11.75,0.27477 l -27.5,-0.0878 -0.29772,6.25 -0.29771,6.25 H 312.9523 298.00002 v -6.5 z m -56.73625,-6.21758 c 1.52006,-0.22986 3.77006,-0.22371 5,0.0136 1.22994,0.23736 -0.0137,0.42542 -2.76375,0.41792 -2.75,-0.008 -3.75631,-0.20172 -2.23625,-0.43157 z m 19.98625,-0.0109 c 2.0625,-0.21574 5.4375,-0.21574 7.5,0 2.0625,0.21575 0.375,0.39226 -3.75,0.39226 -4.125,0 -5.8125,-0.17651 -3.75,-0.39226 z M 237.30987,234.5 c 0.006,-3.3 0.1923,-4.52944 0.41486,-2.73209 0.22256,1.79735 0.21797,4.49735 -0.0102,6 -0.22818,1.50265 -0.41027,0.0321 -0.40466,-3.26791 z m 147.97614,-1 c 0.008,-2.75 0.20172,-3.75631 0.43157,-2.23625 0.22986,1.52006 0.22371,3.77006 -0.0136,5 -0.23736,1.22994 -0.42542,-0.0137 -0.41792,-2.76375 z m -15.04627,-26.24132 6.73973,-0.34959 0.27083,-44.70455 0.27082,-44.70454 0.23944,45.25 L 378,208 l -7.25,-0.19586 -7.25,-0.19586 z M 247.44541,174 c 0,-17.325 0.13621,-24.4125 0.30269,-15.75 0.16648,8.6625 0.16648,22.8375 0,31.5 -0.16648,8.6625 -0.30269,1.575 -0.30269,-15.75 z M 352.75,186.33772 c 0.6875,-0.27741 1.8125,-0.27741 2.5,0 0.6875,0.27741 0.125,0.50439 -1.25,0.50439 -1.375,0 -1.9375,-0.22698 -1.25,-0.50439 z M 219.78352,185.2616 c 2.90594,-0.20265 7.40594,-0.20052 10,0.005 2.59406,0.20525 0.21648,0.37104 -5.28352,0.36844 -5.5,-0.003 -7.62242,-0.17053 -4.71648,-0.37317 z M 285.21935,170.78753 285,156.07505 l -9.25,-0.32998 -9.25,-0.32999 9.28138,-0.20754 c 6.84032,-0.15295 9.41241,0.13388 9.77954,1.09062 0.27398,0.71398 0.35856,7.57648 0.18796,15.25 L 285.43869,185.5 Z m 105.32291,13.28085 c -0.70112,-1.13445 -0.50054,-33.41733 0.22525,-36.25209 0.35681,-1.39363 2.00761,-1.7382 9.58179,-2 L 409.5,145.5 v 19.51718 19.51719 l -9.1501,0.29896 c -5.70629,0.18644 -9.39758,-0.10146 -9.80764,-0.76495 z M 235.38536,156 c 0,-6.875 0.15977,-9.6875 0.35504,-6.25 0.19527,3.4375 0.19527,9.0625 0,12.5 -0.19527,3.4375 -0.35504,0.625 -0.35504,-6.25 z M 355.75,144.26779 c 2.3375,-0.21053 6.1625,-0.21053 8.5,0 2.3375,0.21054 0.425,0.3828 -4.25,0.3828 -4.675,0 -6.5875,-0.17226 -4.25,-0.3828 z M 285.30987,137.5 c 0.006,-3.3 0.1923,-4.52944 0.41486,-2.73209 0.22256,1.79735 0.21797,4.49735 -0.0102,6 -0.22818,1.50265 -0.41027,0.0321 -0.40466,-3.26791 z m -70.95491,-11 c -0.003,-4.95 0.16605,-7.10108 0.37577,-4.78017 0.20972,2.3209 0.21222,6.3709 0.006,9 C 214.5296,133.34892 214.358,131.45 214.35496,126.5 Z M 280,130 l -5.5,-0.67401 5.19098,-0.16299 c 2.85504,-0.0897 5.4691,0.287 5.80902,0.837 0.33992,0.55 0.47898,0.92665 0.30902,0.837 C 285.63906,130.74736 283.025,130.3707 280,130 Z m 68.20625,-0.74055 c 3.68844,-0.19186 9.98844,-0.19314 14,-0.003 4.01156,0.1903 0.99375,0.34727 -6.70625,0.34883 -7.7,0.002 -10.98219,-0.15414 -7.29375,-0.34599 z m -6.49466,-11.8812 C 341.32021,116.98688 341,114.08006 341,110.91865 v -5.74801 l 7.25,-0.67334 c 3.9875,-0.37034 8.825,-0.48075 10.75,-0.24536 2.85955,0.34967 2.58507,0.45694 -1.5,0.5862 l -5,0.15821 v 6.25183 6.25182 l -5.03841,0.29492 c -2.77113,0.16221 -5.35863,-0.0253 -5.75,-0.41667 z M 409.232,99 c 0,-1.925 0.2058,-2.7125 0.45733,-1.75 0.25152,0.9625 0.25152,2.5375 0,3.5 -0.25153,0.9625 -0.45733,0.175 -0.45733,-1.75 z M 367.76791,40.275269 c 1.79735,-0.222562 4.49735,-0.217969 6,0.0102 1.50265,0.228174 0.0321,0.41027 -3.26791,0.404657 -3.3,-0.0056 -4.52944,-0.192301 -2.73209,-0.414862 z"
         id="path19853" />
      <path
         style="fill:#7db9c8"
         d="m 263.75,575.25601 c 4.5375,-0.18529 11.9625,-0.18529 16.5,0 4.5375,0.1853 0.825,0.3369 -8.25,0.3369 -9.075,0 -12.7875,-0.1516 -8.25,-0.3369 z m 30,0.0817 c 0.6875,-0.27741 1.8125,-0.27741 2.5,0 0.6875,0.27741 0.125,0.50439 -1.25,0.50439 -1.375,0 -1.9375,-0.22698 -1.25,-0.50439 z m 75.0625,-0.0208 c 0.72187,-0.28887 1.58438,-0.25335 1.91667,0.0789 0.33229,0.33229 -0.25834,0.56864 -1.3125,0.52522 -1.16495,-0.048 -1.4019,-0.28494 -0.60417,-0.60416 z M 256,548.93576 v -8.06424 l 23.5,0.22114 23.5,0.22114 V 549.1569 557 H 279.5 256 Z M 323,549.5 c 0,-5.26656 0.37224,-7.53729 1.25,-7.62521 0.6875,-0.0689 11.48682,-0.18136 23.9985,-0.25 l 22.74849,-0.12479 0.002,7.75 0.002,7.75 h -24 -24 v -7.5 z M 234.29966,489 c 0,-3.025 0.18747,-4.2625 0.41659,-2.75 0.22913,1.5125 0.22913,3.9875 0,5.5 -0.22912,1.5125 -0.41659,0.275 -0.41659,-2.75 z M 243.75,410.33772 c 0.6875,-0.27741 1.8125,-0.27741 2.5,0 0.6875,0.27741 0.125,0.50439 -1.25,0.50439 -1.375,0 -1.9375,-0.22698 -1.25,-0.50439 z m 132.01791,-0.0625 c 1.79735,-0.22256 4.49735,-0.21797 6,0.0102 1.50265,0.22818 0.0321,0.41027 -3.26791,0.40466 -3.3,-0.006 -4.52944,-0.1923 -2.73209,-0.41486 z M 320,373.60699 c 0,-0.21616 0.69837,-0.661 1.55194,-0.98855 0.88992,-0.34149 1.29132,-0.17385 0.94098,0.39301 C 321.90566,373.96166 320,374.4169 320,373.60699 Z m 2.07895,-7.19032 c 0.048,-1.16495 0.28494,-1.4019 0.60416,-0.60417 0.28887,0.72187 0.25335,1.58438 -0.0789,1.91667 -0.33229,0.33229 -0.56864,-0.25834 -0.52522,-1.3125 z m 0,-5 c 0.048,-1.16495 0.28494,-1.4019 0.60416,-0.60417 0.28887,0.72187 0.25335,1.58438 -0.0789,1.91667 -0.33229,0.33229 -0.56864,-0.25834 -0.52522,-1.3125 z M 254.32007,334 c 0,-3.575 0.1815,-5.0375 0.40333,-3.25 0.22182,1.7875 0.22182,4.7125 0,6.5 -0.22183,1.7875 -0.40333,0.325 -0.40333,-3.25 z m 66.8905,-2.60086 C 320.50139,330.62961 320.36233,330 320.90156,330 c 1.03844,0 2.54172,1.90221 1.94858,2.46567 -0.19258,0.18294 -0.93038,-0.297 -1.63957,-1.06653 z M 287.75,312.29427 c 1.2375,-0.23836 3.2625,-0.23836 4.5,0 1.2375,0.23835 0.225,0.43337 -2.25,0.43337 -2.475,0 -3.4875,-0.19502 -2.25,-0.43337 z M 338.78669,310 c 0.24217,-1.65 0.61423,-3 0.82681,-3 0.21257,0 0.3865,1.35 0.3865,3 0,1.65 -0.37206,3 -0.82681,3 -0.45474,0 -0.62867,-1.35 -0.3865,-3 z m 0.62706,-16 c 0.0822,-1.15889 1.58222,-1.51918 6.59629,-1.58436 l 6.48996,-0.0844 -6.18554,0.38041 c -3.62044,0.22265 -6.35588,0.87967 -6.59629,1.58435 -0.22592,0.66218 -0.3629,0.52896 -0.30442,-0.29604 z m 13.88591,-7 c 0,-3.025 0.18747,-4.2625 0.41659,-2.75 0.22913,1.5125 0.22913,3.9875 0,5.5 -0.22912,1.5125 -0.41659,0.275 -0.41659,-2.75 z M 259.75,252.26779 c 2.3375,-0.21053 6.1625,-0.21053 8.5,0 2.3375,0.21054 0.425,0.3828 -4.25,0.3828 -4.675,0 -6.5875,-0.17226 -4.25,-0.3828 z"
         id="path19851" />
      <path
         style="fill:#da8672"
         d="m 371.36523,585.5 c 0.003,-5.5 0.17053,-7.62242 0.37317,-4.71648 0.20265,2.90594 0.20052,7.40594 -0.005,10 -0.20525,2.59406 -0.37104,0.21648 -0.36844,-5.28352 z m -82.0962,-10.19299 c 0.97297,-0.25354 2.32297,-0.23687 3,0.0371 0.67703,0.27393 -0.11903,0.48137 -1.76903,0.46099 -1.65,-0.0204 -2.20394,-0.2445 -1.23097,-0.49804 z m 9,0 c 0.97297,-0.25354 2.32297,-0.23687 3,0.0371 0.67703,0.27393 -0.11903,0.48137 -1.76903,0.46099 -1.65,-0.0204 -2.20394,-0.2445 -1.23097,-0.49804 z m 36.48097,-0.0535 c 6.1875,-0.17544 16.3125,-0.17544 22.5,0 6.1875,0.17545 1.125,0.319 -11.25,0.319 -12.375,0 -17.4375,-0.14355 -11.25,-0.319 z M 384.38536,427 c 0,-6.875 0.15977,-9.6875 0.35504,-6.25 0.19527,3.4375 0.19527,9.0625 0,12.5 -0.19527,3.4375 -0.35504,0.625 -0.35504,-6.25 z M 307.75,373.26779 c 2.3375,-0.21053 6.1625,-0.21053 8.5,0 2.3375,0.21054 0.425,0.3828 -4.25,0.3828 -4.675,0 -6.5875,-0.17226 -4.25,-0.3828 z m 14.32895,-3.85112 c 0.048,-1.16495 0.28494,-1.4019 0.60416,-0.60417 0.28887,0.72187 0.25335,1.58438 -0.0789,1.91667 -0.33229,0.33229 -0.56864,-0.25834 -0.52522,-1.3125 z M 322.15789,340 c 0,-1.375 0.22698,-1.9375 0.50439,-1.25 0.27741,0.6875 0.27741,1.8125 0,2.5 -0.27741,0.6875 -0.50439,0.125 -0.50439,-1.25 z m -0.0789,-5.58333 c 0.048,-1.16495 0.28494,-1.4019 0.60416,-0.60417 0.28887,0.72187 0.25335,1.58438 -0.0789,1.91667 -0.33229,0.33229 -0.56864,-0.25834 -0.52522,-1.3125 z m -13.30252,-4.15017 c 2.35204,-0.21124 5.95204,-0.20827 8,0.007 2.04796,0.21487 0.12357,0.38771 -4.27643,0.38408 -4.4,-0.004 -6.07561,-0.17944 -3.72357,-0.39069 z M 302.37407,302.5 c 0.002,-6.05 0.16696,-8.39607 0.36601,-5.21349 0.19905,3.18258 0.1972,8.13258 -0.004,11 -0.20131,2.86742 -0.36417,0.26349 -0.36191,-5.78651 z M 289.25,292.27153 c 2.0625,-0.21574 5.4375,-0.21574 7.5,0 2.0625,0.21575 0.375,0.39226 -3.75,0.39226 -4.125,0 -5.8125,-0.17651 -3.75,-0.39226 z M 339.19495,280.5 c 0.0204,-1.65 0.2445,-2.20394 0.49804,-1.23097 0.25354,0.97297 0.23687,2.32297 -0.0371,3 -0.27393,0.67703 -0.48137,-0.11903 -0.46099,-1.76903 z M 399.18498,221.75 399,216 h 5.04775 5.04774 l -0.29774,-15.95278 c -0.16376,-8.77403 0.0519,-15.60189 0.47923,-15.17302 0.42734,0.42887 0.65234,7.72012 0.5,16.20278 L 409.5,216.5 l -4.69957,0.30273 -4.69957,0.30273 -0.36545,5.19727 -0.36545,5.19727 z M 263.75,219.2766 c 1.7875,-0.22182 4.7125,-0.22182 6.5,0 1.7875,0.22183 0.325,0.40333 -3.25,0.40333 -3.575,0 -5.0375,-0.1815 -3.25,-0.40333 z m 93.95148,0.0113 6.20148,-0.38082 0.38073,-5.45854 0.38072,-5.45855 -0.0822,5.755 -0.0822,5.75501 -6.5,0.0844 -6.5,0.0844 6.20148,-0.38082 z m -59.28537,-1.64591 c -0.29826,-0.77725 -0.4014,-3.37716 -0.2292,-5.77759 L 298.5,207.5 311,207.21097 c 16.97651,-0.39253 16.79587,-0.45825 16.56606,6.02703 l -0.18646,5.262 -14.2106,0.27758 c -11.50785,0.22479 -14.31374,0.009 -14.75289,-1.13559 z M 249.25,207.28375 c 1.5125,-0.22913 3.9875,-0.22913 5.5,0 1.5125,0.22912 0.275,0.41659 -2.75,0.41659 -3.025,0 -4.2625,-0.18747 -2.75,-0.41659 z m 18.18908,-22.58191 c -0.27398,-0.71398 -0.35856,-7.57648 -0.18796,-15.25 l 0.31019,-13.95184 0.21934,14.71107 0.21935,14.71106 8.75,0.3333 8.75,0.3333 -8.78138,0.20563 c -6.4294,0.15056 -8.91481,-0.14206 -9.27954,-1.09252 z M 341.38176,171.5 c 0.002,-6.6 0.16382,-9.16987 0.35965,-5.71081 0.19583,3.45905 0.19422,8.85905 -0.004,12 -0.19781,3.14094 -0.35803,0.31081 -0.35606,-6.28919 z M 390.116,147.25 c -0.11256,-2.18327 0.16517,-2.25 9.3645,-2.25 h 9.4805 l 0.30014,-21.75 0.30015,-21.75 -0.0306,22 -0.0306,22 -9.18373,0.28665 c -7.68074,0.23974 -9.25743,0.56705 -9.634,2 -0.32716,1.24491 -0.48198,1.09818 -0.56627,-0.53665 z M 218.75,143.26779 c 2.3375,-0.21053 6.1625,-0.21053 8.5,0 2.3375,0.21054 0.425,0.3828 -4.25,0.3828 -4.675,0 -6.5875,-0.17226 -4.25,-0.3828 z M 368.33621,137 c 0,-4.125 0.17651,-5.8125 0.39226,-3.75 0.21574,2.0625 0.21574,5.4375 0,7.5 -0.21575,2.0625 -0.39226,0.375 -0.39226,-3.75 z m -27.10421,0 c 0,-1.925 0.2058,-2.7125 0.45733,-1.75 0.25152,0.9625 0.25152,2.5375 0,3.5 -0.25153,0.9625 -0.45733,0.175 -0.45733,-1.75 z m -76.982,-7.72847 c 2.0625,-0.21574 5.4375,-0.21574 7.5,0 2.0625,0.21575 0.375,0.39226 -3.75,0.39226 -4.125,0 -5.8125,-0.17651 -3.75,-0.39226 z M 340.43161,111 l 0.0684,-6.5 3.75865,-0.10484 c 3.74102,-0.10436 3.74241,-0.10291 0.29438,0.30772 l -3.46428,0.41256 -0.36276,6.19228 -0.36276,6.19228 0.0684,-6.5 z m 26.29609,6.27827 c 1.77523,-0.22091 4.92523,-0.22454 7,-0.008 2.07476,0.21648 0.6223,0.39722 -3.2277,0.40166 -3.85,0.004 -5.54754,-0.17268 -3.7723,-0.39359 z M 409.116,93.833333 c -0.0638,-1.466666 -0.6785,-2.89364 -1.366,-3.171052 -0.97906,-0.395059 -0.97226,-0.521498 0.0314,-0.583334 1.58639,-0.09774 2.54359,2.202829 1.91919,4.61264 -0.3159,1.219221 -0.50636,0.939597 -0.58457,-0.858254 z M 221.75,90.337719 c 0.6875,-0.277412 1.8125,-0.277412 2.5,0 0.6875,0.277413 0.125,0.504386 -1.25,0.504386 -1.375,0 -1.9375,-0.226973 -1.25,-0.504386 z m 178.0625,-0.02083 c 0.72187,-0.288871 1.58438,-0.253344 1.91667,0.07895 0.33229,0.332292 -0.25834,0.568641 -1.3125,0.52522 -1.16495,-0.04798 -1.4019,-0.284941 -0.60417,-0.604167 z M 228.75,64.276604 c 1.7875,-0.221826 4.7125,-0.221826 6.5,0 1.7875,0.221827 0.325,0.403322 -3.25,0.403322 -3.575,0 -5.0375,-0.181495 -3.25,-0.403322 z m 12.01791,-12.001335 c 1.79735,-0.222562 4.49735,-0.217969 6,0.0102 1.50265,0.228174 0.0321,0.41027 -3.26791,0.404657 -3.3,-0.0056 -4.52944,-0.192301 -2.73209,-0.414862 z m 137.98209,0.0013 c 1.7875,-0.221826 4.7125,-0.221826 6.5,0 1.7875,0.221827 0.325,0.403322 -3.25,0.403322 -3.575,0 -5.0375,-0.181495 -3.25,-0.403322 z M 260.4178,35.255007 260.5,29.5 310,29.486 l 49.5,-0.014 -49.20037,0.27331 -49.20038,0.27331 -0.38183,5.4957 -0.38183,5.495699 0.0822,-5.755006 z m 101.3947,-5.938121 c 0.72187,-0.288871 1.58438,-0.253344 1.91667,0.07895 0.33229,0.332292 -0.25834,0.568641 -1.3125,0.52522 -1.16495,-0.04798 -1.4019,-0.284941 -0.60417,-0.604167 z"
         id="path19849" />
      <path
         style="fill:#39598f"
         d="m 236,461.37278 c 0,-14.82339 0.29354,-19.37638 1.25,-19.38809 0.83333,-0.0102 0.75,-0.33844 -0.25,-0.98469 -1.11809,-0.72257 -0.56026,-0.97327 2.19098,-0.98469 2.03004,-0.008 3.93674,-0.41295 4.23711,-0.89896 0.30037,-0.48601 0.66443,-6.76503 0.80902,-13.95339 l 0.26289,-13.06973 4.5,-0.29662 4.5,-0.29661 0.51901,-36 0.51901,-36 0.23099,35.62165 0.23099,35.62164 58.75,-0.12164 58.75,-0.12165 -0.5,35 -0.5,35 -9.75,0.28621 -9.75,0.28621 v -26.57514 -26.57515 l -8.75,0.28894 -8.75,0.28893 -0.5,26 -0.5,26 h -10 -10 l -0.5,-26 -0.5,-26 h -8.83004 -8.83004 l -0.16996,26 -0.16996,26 -10.25,0.28498 -10.25,0.28499 v -26.57251 -26.57251 l -9.25,0.28752 -9.25,0.28753 -0.2667,26.29955 -0.2667,26.29956 -9.4833,-0.17677 L 236,480.74556 Z m 6.25,-20.03506 c -0.6875,-0.27741 -1.8125,-0.27741 -2.5,0 -0.6875,0.27741 -0.125,0.50439 1.25,0.50439 1.375,0 1.9375,-0.22698 1.25,-0.50439 z M 391.41858,460 c 0,-10.725 0.14711,-15.1125 0.32692,-9.75 0.17981,5.3625 0.17981,14.1375 0,19.5 -0.17981,5.3625 -0.32692,0.975 -0.32692,-9.75 z M 307.75,359.26276 c 2.8875,-0.202 7.6125,-0.202 10.5,0 2.8875,0.202 0.525,0.36728 -5.25,0.36728 -5.775,0 -8.1375,-0.16528 -5.25,-0.36728 z m 0.53017,-14.99903 c 2.6291,-0.20668 6.6791,-0.20418 9,0.006 2.32091,0.20972 0.16983,0.37882 -4.78017,0.37577 -4.95,-0.003 -6.84892,-0.17464 -4.21983,-0.38131 z M 254.4357,302.5 c 5.7e-4,-14.3 0.14102,-20.01094 0.31211,-12.69097 0.17108,7.31996 0.17062,19.01996 -10e-4,26 -0.17166,6.98003 -0.31164,0.99097 -0.31107,-13.30903 z m 98.96424,-35 c 10e-4,-8.25 0.15629,-11.49193 0.34419,-7.20429 0.1879,4.28763 0.18676,11.03763 -0.003,15 -0.1893,3.96236 -0.34304,0.45429 -0.34164,-7.79571 z m 7.86381,-15.21758 c 1.52006,-0.22986 3.77006,-0.22371 5,0.0136 1.22994,0.23736 -0.0138,0.42542 -2.76375,0.41792 -2.75,-0.008 -3.75631,-0.20172 -2.23625,-0.43157 z"
         id="path19847" />
      <path
         style="fill:#934b32"
         d="m 267.80735,595.25254 c 6.76904,-0.17326 17.56904,-0.17273 24,0.001 6.43096,0.17391 0.89265,0.31567 -12.30735,0.31502 -13.2,-6.6e-4 -18.46169,-0.14295 -11.69265,-0.31621 z M 323.36996,586 c 0,-5.775 0.16528,-8.1375 0.36728,-5.25 0.202,2.8875 0.202,7.6125 0,10.5 -0.202,2.8875 -0.36728,0.525 -0.36728,-5.25 z m 12.88004,9.25323 c 6.4625,-0.17418 17.0375,-0.17418 23.5,0 6.4625,0.17419 1.175,0.3167 -11.75,0.3167 -12.925,0 -18.2125,-0.14251 -11.75,-0.3167 z M 303.85768,315.78621 c -0.0783,-0.15741 -0.24538,-5.31919 -0.37133,-11.47061 l -0.22901,-11.1844 9.47473,-0.3156 c 5.21111,-0.17358 9.91112,-0.0437 10.44449,0.28863 0.56328,0.35097 0.8343,5.17112 0.64659,11.5 L 323.5,315.5 l -9.75,0.28621 c -5.3625,0.15742 -9.81405,0.15742 -9.89232,0 z M 339.25218,286.5 c 0.0111,-2.2 0.21589,-2.98225 0.45508,-1.73834 0.23919,1.24391 0.23011,3.04391 -0.0202,4 -0.25029,0.95609 -0.446,-0.0617 -0.4349,-2.26166 z M 321,277 c -2.32726,-0.74532 -2.34861,-0.80753 -0.30902,-0.90032 1.20504,-0.0548 2.4691,0.35032 2.80902,0.90032 0.33992,0.55 0.47898,0.95514 0.30902,0.90032 C 323.63906,277.8455 322.375,277.44035 321,277 Z m 31.36996,-47 c 0,-5.775 0.16528,-8.1375 0.36728,-5.25 0.202,2.8875 0.202,7.6125 0,10.5 -0.202,2.8875 -0.36728,0.525 -0.36728,-5.25 z m -80.00946,0 c 0,-5.225 0.16854,-7.3625 0.37454,-4.75 0.206,2.6125 0.206,6.8875 0,9.5 -0.206,2.6125 -0.37454,0.475 -0.37454,-4.75 z m -46.37306,-7.20438 c -0.26809,-3.68741 -0.12553,-6.3405 0.31681,-5.89575 0.44234,0.44475 0.66169,3.46172 0.48744,6.70438 L 226.47488,229.5 Z M 388.25,228.27153 c 2.0625,-0.21574 5.4375,-0.21574 7.5,0 2.0625,0.21575 0.375,0.39226 -3.75,0.39226 -4.125,0 -5.8125,-0.17651 -3.75,-0.39226 z M 260.32007,214 c 0,-3.575 0.1815,-5.0375 0.40333,-3.25 0.22182,1.7875 0.22182,4.7125 0,6.5 -0.22183,1.7875 -0.40333,0.325 -0.40333,-3.25 z m 97.83782,-30 c 0,-1.375 0.22698,-1.9375 0.50439,-1.25 0.27741,0.6875 0.27741,1.8125 0,2.5 -0.27741,0.6875 -0.50439,0.125 -0.50439,-1.25 z m 0.0559,-14.70956 L 358,157.08088 l -8.25,-0.33689 -8.25,-0.3369 8.28138,-0.20354 c 6.05908,-0.14893 8.41641,0.1483 8.78452,1.10759 0.27673,0.72113 0.35879,6.45863 0.18237,12.75 L 358.42751,181.5 358.21376,169.29044 Z m -97.79917,-26.65241 c -0.28745,-0.74909 -0.37914,-4.01159 -0.20376,-7.25 l 0.31888,-5.88803 0.48515,7.25225 c 0.48678,7.27676 0.37061,8.41584 -0.60027,5.88578 z m 6.86558,0.6257 c 2.6291,-0.20668 6.6791,-0.20418 9,0.006 2.32091,0.20972 0.16983,0.37882 -4.78017,0.37577 -4.95,-0.003 -6.84892,-0.17464 -4.21983,-0.38131 z m 14.46983,0.074 c 0.6875,-0.27741 1.8125,-0.27741 2.5,0 0.6875,0.27741 0.125,0.50439 -1.25,0.50439 -1.375,0 -1.9375,-0.22698 -1.25,-0.50439 z m 62,0 c 0.6875,-0.27741 1.8125,-0.27741 2.5,0 0.6875,0.27741 0.125,0.50439 -1.25,0.50439 -1.375,0 -1.9375,-0.22698 -1.25,-0.50439 z M 246.85962,117.7399 c 0.41835,-0.41806 21.65858,-0.64287 47.20052,-0.49957 l 46.43989,0.26054 -47.20053,0.49957 c -25.96029,0.27476 -46.85824,0.15752 -46.43988,-0.26054 z M 364.27236,113 c 0,-2.475 0.19502,-3.4875 0.43337,-2.25 0.23836,1.2375 0.23836,3.2625 0,4.5 -0.23835,1.2375 -0.43337,0.225 -0.43337,-2.25 z m -0.19341,-6.58333 c 0.048,-1.16495 0.28494,-1.4019 0.60416,-0.60417 0.28887,0.72187 0.25335,1.58437 -0.0789,1.91667 -0.33229,0.33229 -0.56864,-0.25834 -0.52522,-1.3125 z M 225.83206,96.912423 c -0.18263,-3.898167 -0.16797,-7.249758 0.0326,-7.447978 0.20055,-0.198221 0.29036,-5.745085 0.19958,-12.326365 l -0.16506,-11.965963 5.48572,0.42312 c 6.33014,0.48825 7.05037,-0.152186 6.78822,-6.036107 C 237.93571,54.230642 238.63835,53.5 244,53.5 c 4.25811,0 4.51819,-0.161257 4.83849,-3 0.18616,-1.65 0.86116,-3.648881 1.5,-4.441958 0.8998,-1.11706 0.87986,-1.272751 -0.0885,-0.690983 C 249.40707,45.873473 249,45.428281 249,44 c 0,-1.164919 0.45,-1.839919 1,-1.5 0.55,0.339919 1,0.137842 1,-0.449059 0,-0.617529 1.8296,-0.997889 4.34277,-0.90283 2.38853,0.09035 4.86353,-0.157578 5.5,-0.55094 C 261.47925,40.203808 262,37.67044 262,34.967463 V 30.05296 l 46.25,0.269237 c 25.4375,0.148081 47.61459,-0.01936 49.28243,-0.372099 2.11968,-0.448296 3.47416,-0.168273 4.5,0.930322 1.60832,1.722391 2.1698,10.3626 0.6108,9.399082 -0.52374,-0.323685 -0.65517,-0.107842 -0.29208,0.479652 0.37678,0.609651 3.44833,0.997918 7.1555,0.904508 L 376.00198,41.5 l -9.9e-4,6.338821 -9.9e-4,6.338821 6.00182,-0.338821 c 5.60231,-0.316267 7.647,0.329199 4.74818,1.498898 -1,0.403509 -1,0.520176 0,0.583334 0.80312,0.05072 1.25,1.687719 1.25,4.578947 0,4.748319 0.10513,4.833355 5.75,4.650786 1.95082,-0.06309 3.25612,0.38544 3.26531,1.12205 0.01,0.787766 0.36241,0.690075 0.98469,-0.272836 0.64896,-1.004196 0.91607,2.796972 0.8081,11.5 -0.12355,9.959091 -0.2954,11.479546 -0.73469,6.5 -0.57024,-6.464047 -0.59,-6.499308 -3.57341,-6.37485 -6.72398,0.280502 -6.38402,-0.05286 -6.70228,6.572259 L 387.5,90.394817 381.75,90.124908 376,89.854999 v 7.0725 V 104 h -6 -6 V 91 78 h -6 -6 v 5.967249 5.967249 L 340.75,90.217249 329.5,90.5 329.20431,97.25 328.90862,104 H 300.95431 273 V 96.950096 89.900192 L 267.25,90.200096 261.5,90.5 261.20431,97.25 260.90862,104 H 243.53637 226.16412 Z M 216.25,90.310674 c 0.9625,-0.251527 2.5375,-0.251527 3.5,0 0.9625,0.251528 0.175,0.457323 -1.75,0.457323 -1.925,0 -2.7125,-0.205795 -1.75,-0.457323 z m 187.01903,-0.0037 c 0.97297,-0.253543 2.32297,-0.236869 3,0.03705 0.67703,0.273923 -0.11903,0.481368 -1.76903,0.460988 -1.65,-0.02038 -2.20394,-0.244498 -1.23097,-0.498042 z"
         id="path19845" />
      <path
         style="fill:#374e77"
         d="m 391.3605,488 c 0,-5.225 0.16854,-7.3625 0.37454,-4.75 0.206,2.6125 0.206,6.8875 0,9.5 -0.206,2.6125 -0.37454,0.475 -0.37454,-4.75 z M 235.2271,460.78138 c -0.20334,-18.55059 -0.0614,-20.65501 1.35675,-20.11083 0.99203,0.38068 1.18719,0.85292 0.52231,1.26384 -0.67278,0.4158 -1.16965,7.78087 -1.35675,20.11084 L 235.45419,481.5 Z M 255.2334,454.75 255.5,428.5 l 9.25,-0.28753 9.25,-0.28752 V 454.46247 481 h -9.5166 -9.51661 z m 39.45208,-3.4e-4 0.18547,-26.24966 h 8.81453 8.81452 l 0.5,26.25094 0.5,26.25095 -9.5,-10e-4 -9.5,-0.001 0.18548,-26.24965 z M 334,454.75094 334.5,428.5 l 8.75,-0.28893 8.75,-0.28894 V 454.46107 481 l -9.25,9.4e-4 -9.25,9.5e-4 z m 37.77508,-8.70452 0.27508,-35.02641 -46.27508,-0.27024 -46.27508,-0.27024 46.28138,-0.23976 c 37.73462,-0.19549 46.37556,0.006 46.7913,1.08905 0.36207,0.94354 1.94764,1.20372 5.46862,0.89737 L 383,411.79474 v 14.08358 14.08358 l 2.44316,0.61319 c 1.34375,0.33726 2.91875,0.31927 3.5,-0.04 0.72928,-0.45072 1.05684,5.68159 1.05684,19.78549 v 20.43865 l -9.25,0.15679 -9.25,0.15678 0.27508,-35.02642 z M 239.75,441.33772 c 0.6875,-0.27741 1.8125,-0.27741 2.5,0 0.6875,0.27741 0.125,0.50439 -1.25,0.50439 -1.375,0 -1.9375,-0.22698 -1.25,-0.50439 z M 243,425.16667 V 411 l 5.25,0.18025 5.25,0.18025 -4.5,0.36636 -4.5,0.36637 -0.26458,13.13463 c -0.14552,7.22405 -0.48302,13.35308 -0.75,13.62006 C 243.21844,439.1149 243,432.95833 243,425.16667 Z m 15.25,-14.89514 c 2.0625,-0.21574 5.4375,-0.21574 7.5,0 2.0625,0.21575 0.375,0.39226 -3.75,0.39226 -4.125,0 -5.8125,-0.17651 -3.75,-0.39226 z M 255,340.58846 c 0,-28.19731 -0.29266,-59.34747 -0.65036,-69.22257 l -0.65036,-17.95472 7.22788,-0.24837 C 272.88716,252.75182 272,251.11699 272,273.56739 V 293 l 4.25,0.10596 c 2.3375,0.0583 5.4875,0.0244 7,-0.0754 l 2.75,-0.18133 v 10.07536 c 0,11.3381 -0.90985,10.35734 9.35335,10.08232 4.89521,-0.13118 6.09125,0.18279 7.3067,1.9181 1.25809,1.79616 2.49374,2.07495 9.19665,2.07495 4.25882,0 8.20239,0.45909 8.76351,1.02021 0.6936,0.6936 1.44376,0.22877 2.3433,-1.45202 1.50192,-2.80636 4.7308,-3.7797 11.3943,-3.43477 2.53209,0.13108 4.88169,-0.0396 5.22135,-0.37925 0.33966,-0.33966 0.64463,-4.6568 0.67772,-9.59365 0.0474,-7.07918 0.34365,-8.86731 1.40164,-8.46132 0.73781,0.28313 1.34148,0.0719 1.34148,-0.46937 0,-0.55713 1.84409,-0.80169 4.25,-0.56363 6.71997,0.66493 6.98849,0.15138 6.81964,-13.0427 L 353.9209,269 H 362.96045 372 v 61.43214 61.43214 l -58.5,-0.004 -58.5,-0.004 v -51.26785 z m 68,31.66139 c 0,-0.82816 0.49321,-1.07157 1.25,-0.61691 0.84431,0.50725 0.80311,0.20009 -0.12694,-0.9464 -0.9175,-1.13102 -1.17421,-2.96521 -0.76935,-5.49707 0.39553,-2.47347 0.13313,-4.47853 -0.75176,-5.74458 -1.22247,-1.74904 -2.25271,-1.89454 -10.23066,-1.44489 l -8.87129,0.5 -0.15293,8.5 -0.15292,8.5 9.00746,-0.32366 c 7.2233,-0.25955 8.87304,-0.0615 8.32877,1 -0.37328,0.72801 0.0297,0.45015 0.89546,-0.61747 C 322.29163,374.49125 323,373.00219 323,372.24985 Z m -1.32987,-26.66709 c -0.29911,-0.77948 0.046,-1.64359 0.76692,-1.92023 0.92335,-0.35432 1.21456,-2.16985 0.98527,-6.14257 -0.54542,-9.44977 -0.0954,-9.09002 -10.65794,-8.51996 l -9.26438,0.5 -0.30612,5.95833 c -0.52974,10.31092 -0.44729,10.40913 9.06506,10.79783 4.53258,0.18521 8.6267,0.42834 9.09805,0.54029 0.47134,0.11195 0.61226,-0.43421 0.31314,-1.21369 z M 355.75,252.33772 c 0.6875,-0.27741 1.8125,-0.27741 2.5,0 0.6875,0.27741 0.125,0.50439 -1.25,0.50439 -1.375,0 -1.9375,-0.22698 -1.25,-0.50439 z m 13.0625,-0.0208 c 0.72187,-0.28887 1.58438,-0.25335 1.91667,0.0789 0.33229,0.33229 -0.25834,0.56864 -1.3125,0.52522 -1.16495,-0.048 -1.4019,-0.28494 -0.60417,-0.60416 z"
         id="path19843" />
      <path
         style="fill:#784327"
         d="m 300,594.14098 c 0,-0.69703 -0.51534,-0.94052 -1.15451,-0.54549 -0.6991,0.43207 -0.8837,0.27535 -0.46797,-0.39731 0.37759,-0.61096 1.23462,-0.89932 1.90451,-0.6408 0.90803,0.35043 1.13425,-1.44201 0.88897,-7.04367 -0.21347,-4.87497 -0.74025,-7.51909 -1.5,-7.52902 -0.69732,-0.009 -0.58354,-0.38694 0.28125,-0.93402 0.79874,-0.50529 1.72397,-0.75078 2.05607,-0.54553 1.02906,0.636 0.17455,16.71199 -0.94799,17.83453 C 300.31322,595.08678 300,595.02809 300,594.14098 Z M 368.5,594 c -0.33992,-0.55 -0.14148,-1 0.44098,-1 0.58246,0 1.05902,0.45 1.05902,1 0,0.55 -0.19844,1 -0.44098,1 -0.24254,0 -0.7191,-0.45 -1.05902,-1 z m -112.384,-5.75 c -0.0638,-3.4375 0.22474,-6.25 0.64121,-6.25 0.41646,0 0.6195,2.1375 0.4512,4.75 -0.48954,7.59898 -0.96704,8.25464 -1.09241,1.5 z m 19.134,5.06067 c 0.9625,-0.25152 2.5375,-0.25152 3.5,0 0.9625,0.25153 0.175,0.45733 -1.75,0.45733 -1.925,0 -2.7125,-0.2058 -1.75,-0.45733 z m 55.51166,-0.0179 c 1.24391,-0.23919 3.04391,-0.23011 4,0.0202 0.95609,0.25029 -0.0617,0.446 -2.26166,0.4349 -2.2,-0.0111 -2.98225,-0.21589 -1.73834,-0.45508 z M 369.34941,584 c 0,-4.675 0.17226,-6.5875 0.3828,-4.25 0.21053,2.3375 0.21053,6.1625 0,8.5 -0.21054,2.3375 -0.3828,0.425 -0.3828,-4.25 z m -35.53691,-6.68311 c 0.72187,-0.28887 1.58438,-0.25335 1.91667,0.0789 0.33229,0.33229 -0.25834,0.56864 -1.3125,0.52522 -1.16495,-0.048 -1.4019,-0.28494 -0.60417,-0.60416 z m 21.9375,-0.0491 c 2.3375,-0.21053 6.1625,-0.21053 8.5,0 2.3375,0.21054 0.425,0.3828 -4.25,0.3828 -4.675,0 -6.5875,-0.17226 -4.25,-0.3828 z M 303.2,315.8 c -0.66,-0.66 -1.2,-1.64601 -1.2,-2.19113 0,-0.54512 0.58066,-0.19703 1.29036,0.77354 1.10957,1.51743 2.63778,1.71934 10.90768,1.44113 5.28952,-0.17795 9.40731,0.014 9.15062,0.42646 -0.79565,1.27865 -18.82263,0.87603 -20.14866,-0.45 z M 382.5,239 c -1.1,-0.47269 -1.4375,-0.89106 -0.75,-0.92971 0.8044,-0.0452 1.25,-1.67444 1.25,-4.57029 0,-2.475 0.3613,-4.5 0.8029,-4.5 0.44159,0 0.77909,2.47456 0.75,5.49902 -0.0291,3.02446 -0.0529,5.46784 -0.0529,5.42972 0,-0.0381 -0.9,-0.45605 -2,-0.92874 z m -25.34211,-2 c 0,-1.375 0.22698,-1.9375 0.50439,-1.25 0.27741,0.6875 0.27741,1.8125 0,2.5 -0.27741,0.6875 -0.50439,0.125 -0.50439,-1.25 z m 10.61854,1.2665 c 2.35204,-0.21124 5.95204,-0.20827 8,0.007 2.04796,0.21487 0.12357,0.38771 -4.27643,0.38408 -4.4,-0.004 -6.07561,-0.17944 -3.72357,-0.39069 z M 354.15789,235 c 0,-1.375 0.22698,-1.9375 0.50439,-1.25 0.27741,0.6875 0.27741,1.8125 0,2.5 -0.27741,0.6875 -0.50439,0.125 -0.50439,-1.25 z m 0.0371,-5.5 c 0.0204,-1.65 0.2445,-2.20394 0.49804,-1.23097 0.25354,0.97297 0.23687,2.32297 -0.0371,3 -0.27393,0.67703 -0.48137,-0.11903 -0.46099,-1.76903 z m -121.66691,-0.41811 c -5.91178,-0.57603 -5.94705,-0.59811 -3.5,-2.19101 1.48348,-0.96566 3.07178,-1.29442 3.97196,-0.82215 2.44746,1.28404 5.44158,2.26179 6.32433,2.06525 0.45338,-0.10094 0.53932,0.27762 0.19098,0.84124 -0.34834,0.56363 -0.71929,0.94913 -0.82433,0.85667 -0.10504,-0.0925 -2.87836,-0.42996 -6.16294,-0.75 z M 388.5,227.07768 c -1.93838,-0.75766 -1.93095,-0.8037 0.24105,-1.49426 2.49451,-0.7931 4.60352,0.05 3.71624,1.48568 -0.66601,1.07763 -1.21921,1.07883 -3.95729,0.009 z m 7.5,0.0404 c 0,-0.55 0.45,-1.27811 1,-1.61803 0.55,-0.33992 1,-0.16803 1,0.38197 0,0.55 -0.45,1.27811 -1,1.61803 -0.55,0.33992 -1,0.16803 -1,-0.38197 z M 260.39217,222.53371 C 260.70644,220.39248 262,219.37925 262,221.27432 c 0,0.8842 -0.4105,1.86135 -0.91222,2.17143 -0.50171,0.31008 -0.81474,-0.10034 -0.69561,-0.91204 z m 93.68678,-0.11704 c 0.048,-1.16495 0.28494,-1.4019 0.60416,-0.60417 0.28887,0.72187 0.25335,1.58437 -0.0789,1.91667 -0.33229,0.33229 -0.56864,-0.25834 -0.52522,-1.3125 z m 41.66872,-0.9563 c -0.30638,-1.60273 -0.0727,-2.40389 0.63343,-2.17168 1.38801,0.45647 2.11505,4.71131 0.80503,4.71131 -0.52414,0 -1.17144,-1.14284 -1.43846,-2.53963 z m -34.5822,0.66305 c -1.02114,-0.64728 -0.86258,-0.96936 0.67518,-1.3715 1.42991,-0.37393 1.85618,-0.12545 1.47754,0.86126 -0.62171,1.62015 -0.46163,1.58221 -2.15272,0.51024 z m -103.08652,-5.70675 c 0.048,-1.16495 0.28494,-1.4019 0.60416,-0.60417 0.28887,0.72187 0.25335,1.58437 -0.0789,1.91667 -0.33229,0.33229 -0.56864,-0.25834 -0.52522,-1.3125 z M 215.05324,201.53467 215.17029,186 h 11.5373 c 9.7439,0 11.35773,0.21637 10.3821,1.39194 -1.10958,1.33695 -5.08969,2.88704 -5.08969,1.98222 0,-0.24124 1.0125,-0.84558 2.25,-1.343 1.77829,-0.71478 1.13697,-0.91768 -3.05902,-0.96777 -3.77851,-0.0451 -5.10278,0.27031 -4.59363,1.09413 0.508,0.82195 0.0178,0.9435 -1.69098,0.41927 -6.23136,-1.91174 -6.54719,-1.85814 -7.87012,1.33569 -1.51498,3.6575 -0.91993,23.60384 0.75411,25.27788 0.74415,0.74415 2.02933,0.71954 4.33134,-0.0829 2.60624,-0.90854 3.55239,-0.8619 4.64317,0.22887 1.1599,1.15991 0.35819,1.39777 -5.22938,1.55149 l -6.5993,0.18155 0.11705,-15.53466 z M 399.65447,214.75 c 0.25496,-0.4125 1.99773,-0.75 3.87281,-0.75 h 3.40925 l 0.3167,-11.75 0.3167,-11.75 0.21504,12.14931 0.21503,12.1493 -4.40455,0.3507 c -2.4225,0.19288 -4.19595,0.0132 -3.94098,-0.39931 z M 222,209 c 0,-0.55 0.45,-1 1,-1 0.55,0 1,0.45 1,1 0,0.55 -0.45,1 -1,1 -0.55,0 -1,-0.45 -1,-1 z m 151.26903,-0.69299 c 0.97297,-0.25354 2.32297,-0.23687 3,0.0371 0.67703,0.27393 -0.11903,0.48137 -1.76903,0.46099 -1.65,-0.0204 -2.20394,-0.2445 -1.23097,-0.49804 z M 244.73926,206.8231 c 0.93376,-1.13184 1.30752,-12.20332 1.51619,-44.91262 l 0.27694,-43.41048 -0.0162,44.41685 c -0.0141,38.58495 -0.21314,44.48194 -1.51619,44.91262 -1.22682,0.40548 -1.2743,0.2222 -0.26074,-1.00637 z m 133.53125,-47.5257 c -0.16687,-36.76284 -0.0208,-41.13883 1.35508,-40.61083 0.98605,0.37838 1.15544,0.83072 0.46977,1.25449 -0.72636,0.44892 -1.16356,13.5515 -1.35508,40.61084 L 378.45753,200.5 Z m 9.15806,27.13117 c 0.86429,-0.86428 1.57832,-2.10178 1.58674,-2.75 0.01,-0.73068 0.35722,-0.63837 0.915,0.24291 0.49482,0.78181 2.85043,1.70861 5.23469,2.05955 l 4.335,0.63807 -4.16588,0.45886 c -2.29124,0.25236 -3.98132,0.16022 -3.75575,-0.20477 0.22558,-0.36499 -0.22503,-0.90736 -1.00135,-1.20526 -0.77633,-0.29791 -1.65962,0.10494 -1.96288,0.89521 -0.30325,0.79027 -1.04764,1.43686 -1.65418,1.43686 -0.60655,0 -0.39567,-0.70714 0.46861,-1.57143 z m -2.86428,-0.7217 c 0.37553,-0.98622 0.93469,-1.54122 1.24258,-1.23333 0.30789,0.30789 6.4e-4,1.11479 -0.68278,1.79313 -0.98762,0.98026 -1.10248,0.8654 -0.5598,-0.5598 z M 237.75,185.31067 c -1.60493,-0.41941 -1.73113,-2.17134 -1.52239,-21.13399 l 0.22761,-20.67668 0.29405,19.9056 c 0.25814,17.47457 0.50513,20.06589 2.02239,21.21819 1.82017,1.38234 1.76962,1.41632 -1.02166,0.68688 z m 105.09661,-4.87936 c 0.41362,-6.64844 0.94451,-6.68636 1.28587,-0.0918 l 0.24785,4.78819 4.2773,-0.26303 c 2.35252,-0.14467 4.59195,0.0516 4.97651,0.43616 0.38455,0.38456 -1.96331,0.69981 -5.21747,0.70056 l -5.91667,0.001 0.34661,-5.57142 z M 355.71025,184 c 0.28766,-1.1 0.64304,-2 0.78975,-2 0.14671,0 0.50209,0.9 0.78975,2 0.32686,1.24993 0.0307,2 -0.78975,2 -0.82043,0 -1.11661,-0.75007 -0.78975,-2 z M 244.44687,152 c 0,-17.875 0.1356,-25.1875 0.30134,-16.25 0.16573,8.9375 0.16573,23.5625 0,32.5 -0.16574,8.9375 -0.30134,1.625 -0.30134,-16.25 z m 24.72784,19.75 c 0.17732,-12.43366 0.56762,-10.95424 1.05589,4.00235 0.14817,4.53879 -0.0681,8.25129 -0.4806,8.25 -0.4125,-0.001 -0.67138,-5.51485 -0.57529,-12.25235 z m 5.08904,11.53242 c 1.52006,-0.22986 3.77006,-0.22371 5,0.0136 1.22994,0.23736 -0.0138,0.42542 -2.76375,0.41792 -2.75,-0.008 -3.75631,-0.20172 -2.23625,-0.43157 z m 7.75156,-1.53242 c 0.0124,-1.81944 0.20082,-1.96296 0.98469,-0.75 0.6562,1.0154 0.97432,-2.31511 0.98469,-10.30902 0.0113,-8.67481 -0.29111,-11.61964 -1.1392,-11.09549 -0.7153,0.44208 -0.88306,0.27432 -0.44098,-0.44098 C 284.34888,156.00845 285,158.98009 285,171 c 0,10.88889 -0.24359,13 -1.5,13 -0.89343,0 -1.49381,-0.90986 -1.48469,-2.25 z m 107.17964,-3.25 c 0.0204,-1.65 0.2445,-2.20394 0.49804,-1.23097 0.25354,0.97297 0.23687,2.32297 -0.0371,3 -0.27393,0.67703 -0.48137,-0.11903 -0.46099,-1.76903 z M 356.15789,178 c 0,-1.375 0.22698,-1.9375 0.50439,-1.25 0.27741,0.6875 0.27741,1.8125 0,2.5 -0.27741,0.6875 -0.50439,0.125 -0.50439,-1.25 z m 33,-12 c 0,-1.375 0.22698,-1.9375 0.50439,-1.25 0.27741,0.6875 0.27741,1.8125 0,2.5 -0.27741,0.6875 -0.50439,0.125 -0.50439,-1.25 z m -151.07894,-4.58333 c 0.048,-1.16495 0.28494,-1.4019 0.60416,-0.60417 0.28887,0.72187 0.25335,1.58437 -0.0789,1.91667 -0.3323,0.33229 -0.56864,-0.25834 -0.52522,-1.3125 z M 268.63837,157.5 c -0.31658,-0.825 -0.13972,-1.5 0.39301,-1.5 0.53274,0 0.96862,0.675 0.96862,1.5 0,0.825 -0.17686,1.5 -0.39301,1.5 -0.21616,0 -0.65203,-0.675 -0.96862,-1.5 z m 75.17413,0.81689 c 0.72187,-0.28887 1.58438,-0.25335 1.91667,0.0789 0.33229,0.33229 -0.25834,0.56864 -1.3125,0.52522 -1.16495,-0.048 -1.4019,-0.28494 -0.60417,-0.60416 z M 271,157 c 0,-0.55 2.025,-1 4.5,-1 2.475,0 4.5,0.45 4.5,1 0,0.55 -2.025,1 -4.5,1 -2.475,0 -4.5,-0.45 -4.5,-1 z m 10,-0.0936 c 0,-0.49853 0.9,-0.9064 2,-0.9064 1.1,0 2,0.17252 2,0.38337 0,0.21085 -0.9,0.61872 -2,0.90638 -1.1,0.28766 -2,0.11514 -2,-0.38337 z m 68.76791,-13.63111 c 1.79735,-0.22256 4.49735,-0.21797 6,0.0102 1.50265,0.22818 0.0321,0.41027 -3.26791,0.40466 -3.3,-0.006 -4.52944,-0.1923 -2.73209,-0.41486 z M 380.37817,133 c 0,-6.325 0.16237,-8.9125 0.36082,-5.75 0.19845,3.1625 0.19845,8.3375 0,11.5 -0.19845,3.1625 -0.36082,0.575 -0.36082,-5.75 z m -165.21174,5.65473 c -0.0476,-2.36886 0.30498,-5.62276 0.7834,-7.23088 0.69315,-2.32992 0.86592,-1.55095 0.8505,3.83481 -0.0211,7.35778 -1.49297,10.41713 -1.6339,3.39607 z m 68.71515,0.0953 c -0.0651,-2.3375 -0.0414,-4.65876 0.0528,-5.15836 0.0942,-0.4996 -0.34028,-1.22447 -0.96543,-1.61084 -0.77707,-0.48025 -0.6356,-0.89474 0.44721,-1.31025 1.34454,-0.51595 1.58385,0.3696 1.58385,5.86083 0,7.13781 -0.92995,8.98256 -1.11842,2.21862 z m -64.3715,2.23369 c 0.34546,-0.55897 1.04702,-0.75742 1.55902,-0.44098 1.38704,0.85723 1.12841,1.45729 -0.62812,1.45729 -0.85746,0 -1.27636,-0.45734 -0.9309,-1.01631 z m 7.75895,0.32332 c 0.97297,-0.25354 2.32297,-0.23687 3,0.0371 0.67703,0.27393 -0.11903,0.48137 -1.76903,0.46099 -1.65,-0.0204 -2.20394,-0.2445 -1.23097,-0.49804 z m 9.54347,0.01 c 0.72187,-0.28887 1.58437,-0.25335 1.91667,0.0789 0.33229,0.33229 -0.25834,0.56864 -1.3125,0.52522 -1.16495,-0.048 -1.4019,-0.28494 -0.60417,-0.60416 z M 262,140.94098 c 0,-0.58246 0.45,-0.7809 1,-0.44098 0.55,0.33992 1,0.81648 1,1.05902 0,0.24254 -0.45,0.44098 -1,0.44098 -0.55,0 -1,-0.47656 -1,-1.05902 z m 103.8245,-3.2668 c -0.37205,-1.82482 -0.23268,-2.48236 0.39346,-1.85622 0.53328,0.53328 0.79255,1.8049 0.57615,2.82582 -0.29142,1.37482 -0.54288,1.12336 -0.96961,-0.9696 z M 262,135.05902 c 0,-0.51754 0.44485,-1.21592 0.98855,-1.55194 0.56686,-0.35034 0.7345,0.0511 0.39301,0.94098 C 262.71677,136.18048 262,136.49745 262,135.05902 Z M 407.34941,128 c 0,-4.675 0.17226,-6.5875 0.3828,-4.25 0.21053,2.3375 0.21053,6.1625 0,8.5 -0.21054,2.3375 -0.3828,0.425 -0.3828,-4.25 z m -59.7209,4.4743 c -0.68994,-1.79795 -3.27232,-1.94399 -3.96623,-0.2243 -0.30132,0.74674 -0.53617,0.54544 -0.58333,-0.5 -0.0711,-1.5751 1.13701,-1.75 12.08772,-1.75 6.69166,0 11.88556,0.2811 11.542,0.62467 -0.34357,0.34356 -3.97761,0.55975 -8.07566,0.48041 -5.42784,-0.10508 -7.85661,0.26138 -8.94487,1.34964 -1.31238,1.31238 -1.56262,1.31476 -2.05963,0.0196 z M 261.75,131.33772 c 0.6875,-0.27741 1.8125,-0.27741 2.5,0 0.6875,0.27741 0.125,0.50439 -1.25,0.50439 -1.375,0 -1.9375,-0.22698 -1.25,-0.50439 z m 12.51375,-0.0553 c 1.52006,-0.22986 3.77006,-0.22371 5,0.0136 1.22994,0.23736 -0.0138,0.42542 -2.76375,0.41792 -2.75,-0.008 -3.75631,-0.20172 -2.23625,-0.43157 z M 215.21503,104.87284 215,91.245674 l 4.75,0.510218 c 6.38101,0.685411 6.67495,1.240708 0.66667,1.259421 C 216.87353,93.026348 215.91904,93.301432 217,94 c 0.94809,0.612701 1.05175,0.975009 0.28174,0.984687 -0.86948,0.01093 -1.30894,3.379378 -1.53497,11.765313 l -0.3167,11.75 z M 244.87244,116.25 c -1.24387,-1.58606 -1.2085,-1.62143 0.37756,-0.37756 1.66575,1.30637 2.19548,2.12756 1.37244,2.12756 -0.20765,0 -0.99515,-0.7875 -1.75,-1.75 z m 134,0 c -1.24387,-1.58606 -1.2085,-1.62143 0.37756,-0.37756 1.66575,1.30637 2.19548,2.12756 1.37244,2.12756 -0.20765,0 -0.99515,-0.7875 -1.75,-1.75 z m -130.60341,-0.94299 c 0.97297,-0.25354 2.32297,-0.23687 3,0.037 0.67703,0.27393 -0.11903,0.48137 -1.76903,0.46099 -1.65,-0.0204 -2.20394,-0.2445 -1.23097,-0.49804 z m 27.48097,-0.0558 c 11.1375,-0.16093 29.3625,-0.16093 40.5,0 11.1375,0.16094 2.025,0.29261 -20.25,0.29261 -22.275,0 -31.3875,-0.13167 -20.25,-0.29261 z m 89.79271,-0.18209 c -0.31644,-0.512 -0.11799,-1.21356 0.44098,-1.55902 0.55897,-0.34546 1.01631,0.0734 1.01631,0.9309 0,1.75653 -0.60006,2.01516 -1.45729,0.62812 z m 5.65481,0.40004 c 0.29197,-0.29197 1.91256,-0.92712 3.6013,-1.41144 2.47004,-0.7084 2.96454,-0.6046 2.52883,0.53085 -0.30305,0.78972 -1.8894,1.41145 -3.60131,1.41145 -1.68282,0 -2.82079,-0.23888 -2.52882,-0.53086 z m -6.46419,-7.59323 c 0.67834,-0.68342 1.48524,-0.99067 1.79313,-0.68278 0.30789,0.30789 -0.24711,0.86705 -1.23333,1.24258 -1.4252,0.54268 -1.54006,0.42782 -0.5598,-0.5598 z M 367,104.7992 c 0,-0.43956 2.1375,-0.76367 4.75,-0.72025 5.22843,0.0869 4.80545,0.57238 -1,1.14777 -2.0625,0.20442 -3.75,0.012 -3.75,-0.42752 z m -85.25,-0.54508 c 5.6375,-0.17825 14.8625,-0.17825 20.5,0 5.6375,0.17825 1.025,0.32409 -10.25,0.32409 -11.275,0 -15.8875,-0.14584 -10.25,-0.32409 z m 73.01166,-0.96138 c 1.24391,-0.23919 3.04391,-0.23011 4,0.0202 0.95609,0.25029 -0.0617,0.446 -2.26166,0.4349 -2.2,-0.0111 -2.98225,-0.21589 -1.73834,-0.45508 z M 406.63837,95.5 C 406.32179,94.675 406.49865,94 407.03138,94 407.56412,94 408,94.675 408,95.5 c 0,0.825 -0.17686,1.5 -0.39301,1.5 -0.21616,0 -0.65203,-0.675 -0.96862,-1.5 z M 261.4035,93 c 0.0909,-2.355824 0.42839,-2.504741 5.85151,-2.582203 l 5.755,-0.0822 -5.44322,0.380263 c -4.6707,0.326296 -5.50116,0.69277 -5.8515,2.582203 -0.339,1.828271 -0.39191,1.77769 -0.31179,-0.29806 z M 392,93.059017 c 0,-0.517541 0.44485,-1.215913 0.98855,-1.551938 0.56686,-0.350339 0.7345,0.05106 0.39301,0.940983 C 392.71677,94.180479 392,94.497449 392,93.059017 Z m 5,-1.340442 c -1.49445,-2.210361 -1.65279,-11.71708 -0.19521,-11.719938 0.38237,-7.5e-4 0.53792,2.52849 0.34567,5.620535 -0.24289,3.906586 -0.014,5.414558 0.75,4.942346 C 398.5268,90.174418 399,90.578304 399,91.5 c 0,0.968407 0.46353,1.331559 1.15451,0.904508 0.7153,-0.442079 0.88306,-0.274316 0.44098,0.440984 -1.02678,1.661372 -1.89409,1.389536 -3.59549,-1.126917 z m -61.75,-1.457563 c 3.1625,-0.198451 8.3375,-0.198451 11.5,0 3.1625,0.19845 0.575,0.360819 -5.75,0.360819 -6.325,0 -8.9125,-0.162369 -5.75,-0.360819 z m 43,0.02273 c 1.5125,-0.229125 3.9875,-0.229125 5.5,0 1.5125,0.229124 0.275,0.41659 -2.75,0.41659 -3.025,0 -4.2625,-0.187466 -2.75,-0.41659 z M 352.27236,84 c 0,-2.475 0.19502,-3.4875 0.43337,-2.25 0.23836,1.2375 0.23836,3.2625 0,4.5 -0.23835,1.2375 -0.43337,0.225 -0.43337,-2.25 z M 396.5,78 c 0.33992,-0.55 0.81648,-1 1.05902,-1 0.24254,0 0.44098,0.45 0.44098,1 0,0.55 -0.47656,1 -1.05902,1 -0.58246,0 -0.7809,-0.45 -0.44098,-1 z M 233.75,65.337719 c 0.6875,-0.277412 1.8125,-0.277412 2.5,0 0.6875,0.277413 0.125,0.504386 -1.25,0.504386 -1.375,0 -1.9375,-0.226973 -1.25,-0.504386 z m 8,-12.043452 c 1.2375,-0.238353 3.2625,-0.238353 4.5,0 1.2375,0.238353 0.225,0.433369 -2.25,0.433369 -2.475,0 -3.4875,-0.195016 -2.25,-0.433369 z m 137.01791,-0.019 c 1.79735,-0.222562 4.49735,-0.217969 6,0.0102 1.50265,0.228174 0.0321,0.41027 -3.26791,0.404657 -3.3,-0.0056 -4.52944,-0.192301 -2.73209,-0.414862 z M 367.25,41.283746 c 1.5125,-0.229125 3.9875,-0.229125 5.5,0 1.5125,0.229124 0.275,0.41659 -2.75,0.41659 -3.025,0 -4.2625,-0.187466 -2.75,-0.41659 z M 261.29966,35 c 0,-3.025 0.18747,-4.2625 0.41659,-2.75 0.22913,1.5125 0.22913,3.9875 0,5.5 -0.22912,1.5125 -0.41659,0.275 -0.41659,-2.75 z m 101.77929,2.416667 c 0.048,-1.164943 0.28494,-1.4019 0.60416,-0.604167 0.28887,0.721875 0.25335,1.584375 -0.0789,1.916667 -0.33229,0.332291 -0.56864,-0.258334 -0.52522,-1.3125 z M 362,31 c -1.2819,-0.828426 -1.24555,-0.971601 0.25,-0.984687 C 363.2125,30.006891 364,30.45 364,31 c 0,1.21961 -0.11279,1.21961 -2,0 z m -92.25,-0.662281 c 0.6875,-0.277412 1.8125,-0.277412 2.5,0 0.6875,0.277413 0.125,0.504386 -1.25,0.504386 -1.375,0 -1.9375,-0.226973 -1.25,-0.504386 z m 71.5,-0.07276 c 2.6125,-0.205999 6.8875,-0.205999 9.5,0 2.6125,0.205998 0.475,0.374543 -4.75,0.374543 -5.225,0 -7.3625,-0.168545 -4.75,-0.374543 z"
         id="path19841" />
      <path
         style="fill:#783b1f"
         d="m 257,588.5 c 0.34523,-4.11419 0.17004,-6.50562 -0.47729,-6.51531 C 255.96022,581.97627 256.175,581.53316 257,581 c 0.89579,-0.5789 1.02152,-0.97554 0.31215,-0.98469 -0.65332,-0.008 -1.12006,-0.91531 -1.0372,-2.01531 0.1459,-1.93687 0.86202,-1.99952 22.68785,-1.98469 14.92042,0.0101 22.03025,0.34293 21.0372,0.98469 -1,0.64625 -1.08333,0.97448 -0.25,0.98469 0.86899,0.0106 1.29789,2.22516 1.4071,7.26531 0.15418,7.11509 0.17022,7.15696 0.8618,2.25 l 0.70469,-5 -0.0115,6.25 c -0.006,3.4375 -0.42068,6.25 -0.92081,6.25 -0.50013,0 -0.66036,-0.40285 -0.35606,-0.89522 0.3043,-0.49236 -0.10473,-1.14771 -0.90896,-1.45632 -0.80423,-0.30861 -1.77117,-0.0612 -2.14876,0.54972 -0.41573,0.67266 -0.23113,0.82938 0.46797,0.39731 C 299.48047,593.20305 300,593.35852 300,593.94098 300,594.65391 292.88466,595 278.22729,595 h -21.77272 z m 21.75,4.81067 c -0.9625,-0.25152 -2.5375,-0.25152 -3.5,0 -0.9625,0.25153 -0.175,0.45733 1.75,0.45733 1.925,0 2.7125,-0.2058 1.75,-0.45733 z M 325,594 c 1,-0.64625 1.08333,-0.97448 0.25,-0.98469 C 324.34924,593.00431 324,590.62517 324,584.5 V 576 h 22.5 22.5 l 0.1863,8.25 0.18631,8.25 L 370,584 l 0.62739,-8.5 0.10736,10 c 0.059,5.5 -0.11962,9.4375 -0.39703,8.75 -0.27741,-0.6875 -0.94344,-1.25 -1.48007,-1.25 -0.53663,0 -0.69757,0.45 -0.35765,1 0.40523,0.65567 -7.23582,0.99473 -22.19098,0.98469 C 331.2131,594.97455 324.00724,594.64157 325,594 Z m 9.76166,-0.68708 c -0.95609,-0.25029 -2.75609,-0.25937 -4,-0.0202 -1.24391,0.23919 -0.46166,0.44398 1.73834,0.45508 2.2,0.0111 3.21775,-0.18461 2.26166,-0.4349 z m 0.96751,-15.91709 c -0.33229,-0.33229 -1.1948,-0.36781 -1.91667,-0.0789 -0.79773,0.31922 -0.56078,0.55618 0.60417,0.60416 1.05416,0.0434 1.64479,-0.19293 1.3125,-0.52522 z M 364.25,577.26779 c -2.3375,-0.21053 -6.1625,-0.21053 -8.5,0 -2.3375,0.21054 -0.425,0.3828 4.25,0.3828 4.675,0 6.5875,-0.17226 4.25,-0.3828 z M 295.02967,292.13261 286.55934,291.5 l -0.21717,-5 c -0.35948,-8.27619 -0.35651,-8.27901 9.4523,-8.95969 12.66887,-0.87915 21.38446,-0.88743 32.95553,-0.0313 L 339,278.26739 V 285.1337 292 l -3.25,0.0129 c -1.7875,0.007 -9.775,0.17928 -17.75,0.38261 -7.975,0.20333 -18.31165,0.085 -22.97033,-0.26293 z M 238,235.14872 c 0,-2.6118 0.5625,-5.32086 1.25,-6.02015 0.6875,-0.69928 0.8,-1.16784 0.25,-1.04124 -1.03447,0.23812 -3.88717,-0.6478 -6.5,-2.0186 -0.8872,-0.46546 -2.42719,-0.1795 -3.76954,0.69997 l -2.26954,1.48692 0.24068,-6.10667 c 0.28977,-7.35213 -0.6121,-8.59901 -5.09049,-7.03784 -2.29456,0.79989 -3.5766,0.8234 -4.32075,0.0793 -1.67404,-1.67404 -2.26909,-21.62038 -0.75411,-25.27788 1.32293,-3.19383 1.63876,-3.24743 7.87012,-1.33569 1.70875,0.52423 2.19898,0.40268 1.69098,-0.41927 -0.50915,-0.82382 0.81512,-1.13925 4.59363,-1.09413 4.19599,0.0501 4.83731,0.25299 3.05902,0.96777 -2.63227,1.05805 -3.07807,2.20126 -0.5,1.28222 2.82947,-1.00866 4.27536,-2.46333 3.57494,-3.59663 -0.41833,-0.67688 0.0349,-0.81497 1.26102,-0.38424 1.79053,0.62901 1.80112,0.58447 0.16404,-0.6903 -1.56363,-1.21757 -1.75,-3.50752 -1.75,-21.50245 L 237,143 h -10.25601 -10.25601 l 0.19072,-7.25 c 0.13573,-5.15953 -0.0597,-6.52915 -0.67791,-4.75 -0.51247,1.47496 -0.63153,-5.29034 -0.29038,-16.5 0.32775,-10.7695 0.99792,-19.160733 1.54707,-19.371051 0.53285,-0.204078 0.35541,-0.759687 -0.39433,-1.234687 -0.88433,-0.560274 0.39316,-0.921773 3.63685,-1.029143 l 5,-0.165506 L 221,92 216.5,91.300387 221.25,91.150194 226,91 v 6.5 6.5 h 17.5 17.5 l 0.011,-2.75 c 0.006,-1.5125 0.28993,-4.4375 0.63084,-6.5 L 262.26167,91 h 5.45122 5.45122 l -0.33206,7.154955 -0.33206,7.154955 27.86615,-0.60444 c 15.32638,-0.33244 28.01623,-0.75451 28.19966,-0.93794 0.18343,-0.18343 0.46866,-3.13001 0.63385,-6.547956 L 329.5,91.005129 340.70469,91.002565 351.90937,91 l 0.66324,-3.535369 c 0.36478,-1.944453 0.39197,-4.891707 0.0604,-6.549453 l -0.60282,-3.014084 5.73489,0.299453 L 363.5,78.5 l 0.27886,12.613587 0.27886,12.613583 -6.77886,-0.0657 c -3.72837,-0.0361 -9.14136,0.0253 -12.02886,0.13641 L 340,104 v 6.5 6.5 h -46.8 c -29.73333,0 -47.23761,-0.36467 -48,-1 -0.87273,-0.72727 -0.92727,-0.67273 -0.2,0.2 1.42126,1.70551 1.36093,89.03907 -0.0625,90.46249 -0.74998,0.74998 1.2234,1.11549 6.70935,1.24269 4.27452,0.0991 7.87116,0.27951 7.99255,0.4009 0.12138,0.12138 0.35126,3.66749 0.51083,7.88024 0.15957,4.21275 0.64105,7.44267 1.06995,7.1776 C 261.64908,223.09884 262,222.23352 262,221.44098 262,220.37847 263.31324,220 267,220 h 5 v 9.94872 9.94872 h -17 -17 z m 20.68311,-19.33622 c -0.31922,-0.79773 -0.55618,-0.56078 -0.60416,0.60417 -0.0434,1.05416 0.19293,1.64479 0.52522,1.3125 0.33229,-0.3323 0.36781,-1.1948 0.0789,-1.91667 z M 224,209 c 0,-0.55 -0.45,-1 -1,-1 -0.55,0 -1,0.45 -1,1 0,0.55 0.45,1 1,1 0.55,0 1,-0.45 1,-1 z m 20.74821,-73.25 c -0.16574,-8.9375 -0.30134,-1.625 -0.30134,16.25 0,17.875 0.1356,25.1875 0.30134,16.25 0.16573,-8.9375 0.16573,-23.5625 0,-32.5 z m -6.0651,25.0625 c -0.31922,-0.79773 -0.55618,-0.56078 -0.60416,0.60417 -0.0434,1.05416 0.19292,1.64479 0.52522,1.3125 0.33229,-0.3323 0.36781,-1.1948 0.0789,-1.91667 z M 222,141.55902 c 0,-1.05548 -1.91911,-1.49891 -2.48992,-0.57533 -0.34546,0.55897 0.0734,1.01631 0.9309,1.01631 0.85746,0 1.55902,-0.19844 1.55902,-0.44098 z m 8.26903,-0.21496 c -0.67703,-0.27392 -2.02703,-0.29059 -3,-0.0371 -0.97297,0.25354 -0.41903,0.47766 1.23097,0.49804 1.65,0.0204 2.44606,-0.18706 1.76903,-0.46099 z m 8.46014,0.0518 c -0.3323,-0.33229 -1.1948,-0.36781 -1.91667,-0.0789 -0.79773,0.31922 -0.56078,0.55618 0.60417,0.60416 1.05416,0.0434 1.64479,-0.19293 1.3125,-0.52522 z m 12.53986,-26.05177 c -0.67703,-0.27392 -2.02703,-0.29059 -3,-0.037 -0.97297,0.25354 -0.41903,0.47766 1.23097,0.49804 1.65,0.0204 2.44606,-0.18706 1.76903,-0.46099 z m 64.98097,-0.0929 c -11.1375,-0.16093 -29.3625,-0.16093 -40.5,0 -11.1375,0.16094 -2.025,0.29261 20.25,0.29261 22.275,0 31.3875,-0.13167 20.25,-0.29261 z M 353,230 v -10 l 5.25,0.116 c 2.8875,0.0638 4.39718,0.33438 3.35485,0.60128 -1.46087,0.37407 -1.58863,0.67471 -0.55756,1.31195 2.25943,1.3964 3.88595,-2.12805 3.93622,-8.52923 0.0334,-4.2517 0.32958,-5.56292 1.01649,-4.5 0.60887,0.94215 0.97507,1.04824 0.98469,0.28526 0.0108,-0.85619 1.44116,-1.0609 4.84603,-0.69356 3.34073,0.36042 5.17154,0.1105 5.9357,-0.81026 0.77641,-0.93551 1.04976,-14.55624 0.91928,-45.80643 L 378.5,117.5 l -6.75,-0.29569 c -3.7125,-0.16263 -6.75,-0.75169 -6.75,-1.30902 0,-0.55733 0.45,-0.73521 1,-0.39529 0.55,0.33992 1,-0.11008 1,-1 0,-0.88992 -0.45,-1.33992 -1,-1 -0.58342,0.36058 -1,-0.65628 -1,-2.44098 0,-1.77238 0.52576,-3.06546 1.25,-3.07433 0.83448,-0.0102 0.75415,-0.3288 -0.24164,-0.95836 -1.18796,-0.75105 -1.23886,-1.19583 -0.25,-2.18469 0.6829,-0.6829 1.24164,-0.8109 1.24164,-0.28443 0,0.52646 2.025,0.79615 4.5,0.5993 l 4.5,-0.3579 v -6.8494 -6.849402 L 381.75,90.799904 387.5,90.5 387.79772,84.25 388.09543,78 h 3.3705 c 4.009,0 7.10811,1.027191 5.70864,1.892112 -0.54622,0.337581 -1.07568,2.637458 -1.17659,5.110836 -0.27432,6.724461 0.23578,7.216966 1.03267,0.997052 l 0.70467,-5.5 -0.0319,6.252477 c -0.0344,6.749956 0.6272,8.371948 2.5632,6.284152 0.97913,-1.055907 0.9757,-1.184583 -0.0167,-0.624316 C 399.5625,92.800459 399,92.641476 399,92.059017 399,91.454863 401.14757,91 404,91 h 5 v 27 27 l -9.75,0.001 -9.75,0.001 0.0704,18.74877 c 0.0669,17.80375 -0.4376,21.79244 -2.97012,23.48345 -0.75434,0.50368 -0.6974,0.7395 0.18108,0.75 0.70477,0.008 1.50946,-0.57904 1.78822,-1.30546 0.36373,-0.94787 3.31939,-1.39027 10.46861,-1.56693 L 409,184.86614 V 200.43307 216 l -4.75,-0.17471 -4.75,-0.1747 4.25,-0.3828 4.25,-0.38279 -0.21503,-12.1925 -0.21504,-12.1925 -0.31619,11.6915 -0.3162,11.69149 -3.71877,0.30851 -3.71877,0.3085 -0.29569,6.75 c -0.16263,3.7125 -0.71101,6.75 -1.21862,6.75 -0.5076,0 -0.67531,-0.7875 -0.37267,-1.75 0.51123,-1.62591 0.45198,-1.63135 -0.83557,-0.0767 -1.03207,1.24619 -2.81549,1.6291 -6.98636,1.5 -3.08029,-0.0953 -5.39185,0.16416 -5.13679,0.57666 0.25505,0.4125 -0.0128,0.75 -0.59528,0.75 -0.58847,0 -1.05902,1.99948 -1.05902,4.5 0,2.89585 -0.4456,4.52506 -1.25,4.57029 -0.6875,0.0386 -0.35,0.45702 0.75,0.92971 1.23554,0.53093 -4.02014,0.88629 -13.75,0.92971 L 353,240 Z m 4.66228,5.75 c -0.27741,-0.6875 -0.50439,-0.125 -0.50439,1.25 0,1.375 0.22698,1.9375 0.50439,1.25 0.27741,-0.6875 0.27741,-1.8125 0,-2.5 z m 18.11415,2.52311 c -2.04796,-0.21488 -5.64796,-0.21785 -8,-0.007 -2.35204,0.21125 -0.67643,0.38706 3.72357,0.39069 4.4,0.004 6.32439,-0.16921 4.27643,-0.38408 z M 354.66228,233.75 c -0.27741,-0.6875 -0.50439,-0.125 -0.50439,1.25 0,1.375 0.22698,1.9375 0.50439,1.25 0.27741,-0.6875 0.27741,-1.8125 0,-2.5 z m 0.0307,-5.48097 c -0.25354,-0.97297 -0.47766,-0.41903 -0.49804,1.23097 -0.0204,1.65 0.18706,2.44606 0.46099,1.76903 0.27392,-0.67703 0.29059,-2.02703 0.0371,-3 z m 37.28629,-2.6864 c -0.55434,-0.55638 -1.81227,-0.48914 -3.19665,0.17087 -2.14121,1.02082 -2.08458,1.07765 0.91402,0.91737 1.93642,-0.10351 2.83632,-0.53253 2.28263,-1.08824 z M 354.6831,221.8125 c -0.31922,-0.79773 -0.55618,-0.56078 -0.60416,0.60417 -0.0434,1.05416 0.19293,1.64479 0.52522,1.3125 0.33229,-0.3323 0.36781,-1.1948 0.0789,-1.91667 z m 43.13644,0.0158 c -0.17575,-1.19442 -0.82306,-2.33726 -1.43845,-2.53964 -0.70613,-0.23221 -0.93981,0.56895 -0.63343,2.17168 0.59001,3.08641 2.52239,3.4296 2.07188,0.36796 z m -1.69671,-35.62626 c -1.85743,-0.19127 -3.75821,0.0333 -4.22394,0.49903 -0.46573,0.46573 1.05399,0.62222 3.37716,0.34775 4.11996,-0.48674 4.1408,-0.50759 0.84678,-0.84678 z m -10.31597,-1.72853 c -0.30789,-0.30789 -0.86705,0.24711 -1.24258,1.23333 -0.54268,1.4252 -0.42782,1.54006 0.5598,0.5598 0.68342,-0.67834 0.99067,-1.48524 0.68278,-1.79313 z M 380.73899,127.25 c -0.19845,-3.1625 -0.36082,-0.575 -0.36082,5.75 0,6.325 0.16237,8.9125 0.36082,5.75 0.19845,-3.1625 0.19845,-8.3375 0,-11.5 z m 26.99322,-3.5 c -0.21054,-2.3375 -0.3828,-0.425 -0.3828,4.25 0,4.675 0.17226,6.5875 0.3828,4.25 0.21053,-2.3375 0.21053,-6.1625 0,-8.5 z M 381,117.62244 c 0,-0.20765 -0.7875,-0.99515 -1.75,-1.75 -1.58606,-1.24387 -1.62143,-1.2085 -0.37756,0.37756 1.30637,1.66575 2.12756,2.19548 2.12756,1.37244 z m -3.67235,-3.03389 c 0.43571,-1.13545 -0.0588,-1.23925 -2.52883,-0.53085 -4.27851,1.22706 -4.67344,1.9423 -1.07248,1.9423 1.71191,0 3.29826,-0.62173 3.60131,-1.41145 z M 408,95.5 c 0,-0.825 -0.43588,-1.5 -0.96862,-1.5 -0.53273,0 -0.70959,0.675 -0.39301,1.5 0.31659,0.825 0.75246,1.5 0.96862,1.5 C 407.82314,97 408,96.325 408,95.5 Z m -14.61844,-3.051938 c 0.34149,-0.889925 0.17385,-1.291322 -0.39301,-0.940983 C 392.44485,91.843104 392,92.541476 392,93.059017 c 0,1.438432 0.71677,1.121462 1.38156,-0.610955 z M 384.232,235 c 0,-1.925 0.2058,-2.7125 0.45733,-1.75 0.25152,0.9625 0.25152,2.5375 0,3.5 -0.25153,0.9625 -0.45733,0.175 -0.45733,-1.75 z M 268.01531,170.75 c 0.0103,-9.56994 0.33368,-13.75736 0.98469,-12.75 0.80672,1.2483 0.98519,1.1644 1.06363,-0.5 0.0519,-1.1 0.32124,-1.4375 0.59865,-0.75 0.2946,0.73009 2.30673,1.25 4.83772,1.25 2.53099,0 4.54312,-0.51991 4.83772,-1.25 0.33872,-0.83944 0.53032,-0.87018 0.58333,-0.0936 0.0465,0.68048 1.00493,0.9377 2.32895,0.62503 2.22956,-0.52653 2.23183,-0.51592 0.25,1.16777 -1.1,0.93453 -1.4375,1.41421 -0.75,1.06596 0.96558,-0.4891 1.24652,2.05379 1.23469,11.17584 -0.0104,7.99389 -0.32849,11.3244 -0.98469,10.309 -0.78914,-1.22111 -0.97222,-1.0953 -0.98469,0.67668 -0.009,1.24102 0.73693,2.37325 1.73469,2.63399 0.9625,0.25153 -2.1875,0.50953 -7,0.57333 L 268,185 l 0.0153,-14.25 z m 2.21529,5.00235 c -0.48827,-14.95659 -0.87857,-16.43601 -1.05589,-4.00235 -0.0961,6.7375 0.16279,12.25106 0.57529,12.25235 0.4125,0.001 0.62877,-3.71121 0.4806,-8.25 z m 9.03315,7.54372 c -1.22994,-0.23736 -3.47994,-0.24351 -5,-0.0136 -1.52006,0.22985 -0.51375,0.42406 2.23625,0.43157 2.75,0.007 3.99369,-0.18056 2.76375,-0.41792 z M 342.163,171.25 342,157 h 8 8 l -0.0703,14.25 c -0.0439,8.8924 -0.3934,13.49806 -0.92971,12.25 -0.65589,-1.52634 -0.87607,-1.61651 -0.92971,-0.38071 -0.0559,1.28877 -1.29527,1.64697 -6.07194,1.75495 -3.30091,0.0746 -5.94762,-0.20406 -5.88158,-0.61929 0.066,-0.41522 -0.007,-2.77995 -0.16135,-5.25495 l -0.2814,-4.5 L 343,180 c -0.48845,3.98583 -0.71888,1.57693 -0.837,-8.75 z m 14.49928,5.5 c -0.27741,-0.6875 -0.50439,-0.125 -0.50439,1.25 0,1.375 0.22698,1.9375 0.50439,1.25 0.27741,-0.6875 0.27741,-1.8125 0,-2.5 z m -10.93311,-18.35417 c -0.33229,-0.33229 -1.1948,-0.36781 -1.91667,-0.0789 -0.79773,0.31922 -0.56078,0.55618 0.60417,0.60416 1.05416,0.0434 1.64479,-0.19293 1.3125,-0.52522 z m 12.20265,-14.79734 c -0.26484,-0.26484 -3.95784,-0.57354 -8.20667,-0.686 L 342,142.70803 l 0.0703,-6.60402 c 0.0491,-4.61653 0.32893,-6.00211 0.92971,-4.60401 0.47269,1.1 0.89106,1.4375 0.92971,0.75 0.0981,-1.74471 3.01101,-1.56806 3.6988,0.2243 0.49701,1.29518 0.74725,1.2928 2.05963,-0.0196 1.0831,-1.0831 3.50324,-1.45499 8.80115,-1.35242 4.019,0.0778 7.80304,-0.16494 8.40899,-0.53943 0.76152,-0.47065 1.10172,1.44367 1.10172,6.1994 v 6.88031 l -4.79333,0.21871 c -2.63633,0.1203 -5.01001,0.002 -5.27485,-0.2628 z m 8.28614,-7.78053 c -0.62614,-0.62614 -0.76551,0.0314 -0.39346,1.85622 0.42673,2.09296 0.67819,2.34442 0.96961,0.9696 0.2164,-1.02092 -0.0429,-2.29254 -0.57615,-2.82582 z M 261,137.5 c 0,-5.0075 0.20148,-5.50893 2.25,-5.59968 2.15857,-0.0956 2.14841,-0.13222 -0.25,-0.90032 -1.57052,-0.50297 1.9615,-0.83201 9.5,-0.88501 8.08409,-0.0568 11.51051,0.23197 10.5,0.88501 -0.825,0.53316 -1.00693,0.97627 -0.40429,0.98469 0.63745,0.009 1.17088,2.31558 1.27544,5.51531 l 0.17972,5.5 H 272.52544 261 Z m 3,4.05902 c 0,-0.24254 -0.45,-0.7191 -1,-1.05902 -0.55,-0.33992 -1,-0.14148 -1,0.44098 0,0.58246 0.45,1.05902 1,1.05902 0.55,0 1,-0.19844 1,-0.44098 z m -0.61844,-7.11096 c 0.34149,-0.88992 0.17385,-1.29132 -0.39301,-0.94098 -0.5437,0.33602 -0.98855,1.0344 -0.98855,1.55194 0,1.43843 0.71677,1.12146 1.38156,-0.61096 z m 15.88219,-3.15199 c -1.22994,-0.23736 -3.47994,-0.24351 -5,-0.0136 -1.52006,0.22985 -0.51375,0.42406 2.23625,0.43157 2.75,0.007 3.99369,-0.18056 2.76375,-0.41792 z"
         id="path19839" />
      <path
         style="fill:#222d54"
         d="m 235,489 v -8 l 76.25,-0.11848 c 41.9375,-0.0652 76.80332,-0.0476 77.47959,0.0391 0.93033,0.11927 1.30062,-4.90207 1.52143,-20.63152 0.26356,-18.77467 0.31399,-18.00326 0.52041,7.96085 L 391,497 h -78 -78 z m 150.75,-48.66228 c 0.6875,-0.27741 1.8125,-0.27741 2.5,0 0.6875,0.27741 0.125,0.50439 -1.25,0.50439 -1.375,0 -1.9375,-0.22698 -1.25,-0.50439 z M 383,425.89737 v -14.10263 l -5,0.43504 c -2.75,0.23927 -5,0.0605 -5,-0.39737 C 373,411.37458 375.475,411 378.5,411 h 5.5 v 14.5 c 0,7.975 -0.225,14.5 -0.5,14.5 -0.275,0 -0.5,-6.34618 -0.5,-14.10263 z M 255,401 v -9 l 24.75,-0.13678 c 27.69862,-0.15308 32.43061,-0.15186 67.5,0.0173 L 372,392 v 9 9 H 313.5 255 Z m 65.45003,-24.91915 c 0.58389,-0.94476 -1.32064,-1.15348 -8.25326,-0.90451 -4.95677,0.17801 -8.80225,-0.0138 -8.54552,-0.42634 0.25673,-0.4125 4.49023,-0.75 9.40777,-0.75 8.25749,0 10.67967,0.8074 7.78647,2.59549 -0.74001,0.45735 -0.88199,0.27258 -0.39546,-0.51464 z m 2.62892,-13.66418 c 0.048,-1.16495 0.28494,-1.4019 0.60416,-0.60417 0.28887,0.72187 0.25335,1.58438 -0.0789,1.91667 -0.33229,0.33229 -0.56864,-0.25834 -0.52522,-1.3125 z m -18.98207,-3.84688 c 0.71503,-0.71504 16.89053,-0.91572 17.58804,-0.2182 C 322.04155,358.70821 318.13333,359 313,359 c -5.13333,0 -9.13974,-0.1936 -8.90312,-0.43021 z M 312,346 l -8.5,-0.62739 9.25,-0.18631 c 5.6242,-0.11327 9.25,0.20568 9.25,0.8137 0,0.55 -0.3375,0.91616 -0.75,0.8137 -0.4125,-0.10247 -4.575,-0.46863 -9.25,-0.8137 z m 11.07895,-4.58333 c 0.048,-1.16495 0.28494,-1.4019 0.60416,-0.60417 0.28887,0.72187 0.25335,1.58438 -0.0789,1.91667 -0.33229,0.33229 -0.56864,-0.25834 -0.52522,-1.3125 z M 306.5,329.36843 c 7.17359,-0.74485 15.5035,-0.80849 15.50182,-0.11843 -0.001,0.4125 -4.16432,0.67798 -9.25182,0.58996 -5.0875,-0.088 -7.9,-0.30021 -6.25,-0.47153 z M 320.5,318 c -0.33992,-0.55 -0.14148,-1 0.44098,-1 0.58246,0 1.05902,0.45 1.05902,1 0,0.55 -0.19844,1 -0.44098,1 -0.24254,0 -0.7191,-0.45 -1.05902,-1 z m 19.57895,-13.58333 c 0.048,-1.16495 0.28494,-1.4019 0.60416,-0.60417 0.28887,0.72187 0.25335,1.58438 -0.0789,1.91667 -0.33229,0.33229 -0.56864,-0.25834 -0.52522,-1.3125 z m 0.73355,-11.09978 c 0.72187,-0.28887 1.58438,-0.25335 1.91667,0.0789 0.33229,0.33229 -0.25834,0.56864 -1.3125,0.52522 -1.16495,-0.048 -1.4019,-0.28494 -0.60417,-0.60416 z m 5.94916,-0.0242 c 1.24391,-0.23919 3.04391,-0.23011 4,0.0202 0.95609,0.25029 -0.0617,0.446 -2.26166,0.4349 -2.2,-0.0111 -2.98225,-0.21589 -1.73834,-0.45508 z m 7.23604,-32.54274 -0.002,-8.25 9.00229,0.32097 9.0023,0.32097 v 7.92903 7.92903 h -9 -9 l -0.002,-8.25 z"
         id="path19837" />
    </g>
  </g>
</svg>
