<?xml version="1.0" encoding="UTF-8" standalone="no"?>
<!-- Created with Inkscape (http://www.inkscape.org/) -->

<svg
   version="1.1"
   id="svg333"
   width="133.76286"
   height="125.84127"
   viewBox="0 0 133.76286 125.84127"
   sodipodi:docname="treasuremap.svg"
   inkscape:version="1.2.1 (9c6d41e410, 2022-07-14)"
   xmlns:inkscape="http://www.inkscape.org/namespaces/inkscape"
   xmlns:sodipodi="http://sodipodi.sourceforge.net/DTD/sodipodi-0.dtd"
   xmlns="http://www.w3.org/2000/svg"
   xmlns:svg="http://www.w3.org/2000/svg">
  <defs
     id="defs337" />
  <sodipodi:namedview
     id="namedview335"
     pagecolor="#ffffff"
     bordercolor="#000000"
     borderopacity="0.25"
     inkscape:showpageshadow="2"
     inkscape:pageopacity="0.0"
     inkscape:pagecheckerboard="0"
     inkscape:deskcolor="#d1d1d1"
     showgrid="false"
     inkscape:zoom="1.8310546"
     inkscape:cx="-297.91575"
     inkscape:cy="52.155735"
     inkscape:window-width="2560"
     inkscape:window-height="1370"
     inkscape:window-x="-6"
     inkscape:window-y="-6"
     inkscape:window-maximized="1"
     inkscape:current-layer="g339" />
  <g
     inkscape:groupmode="layer"
     inkscape:label="Image"
     id="g339"
     transform="translate(-309.93628,-83.489923)">
    <g
       id="g415"
       transform="translate(226.09921,-11.4688)">
      <path
         style="fill:#eccd72;stroke-width:0.16"
         d="m 152.70836,220.58735 -0.0816,-0.21267 0.0537,-1.42733 0.0537,-1.42734 0.0329,1.55899 0.0329,1.55899 12.12001,0.042 12.12,0.042 -12.12503,0.039 -12.12502,0.039 z m -0.0431,-3.46734 v -0.4 l 0.0807,0.2 0.0807,0.2 -0.0807,0.2 -0.0807,0.2 z M 99.960003,208.52013 104,208.47452 l 4.04,0.0456 4.04,0.0456 H 104 95.920003 Z m 91.394997,0.003 1.91552,-0.0526 0.0522,-1.99536 0.0522,-1.99534 -0.008,2.04024 -0.008,2.04024 -1.96026,0.008 -1.96025,0.008 1.9155,-0.0526 z m -99.455146,-6.36284 6.4e-4,-1.76 0.05791,0.92584 0.05791,0.92584 -0.05856,0.83416 -0.05856,0.83416 6.4e-4,-1.76 z m 28.420146,-7.84 v -2 h -2 -2 v -2 -2 l -4.36,-0.0186 -4.36,-0.0186 0.28,-0.0732 0.28,-0.0732 v -1.98827 -1.98827 H 104.08 100 v -2 -2 h -4.005835 -4.005839 l 0.01874,-6.08 0.01874,-6.08 h 3.98232 3.98232 l 0.04478,2.04 0.0448,2.04 2.03512,0.0447 2.03511,0.0447 0.0449,1.9301 0.0449,1.93008 1.92,0.0252 1.92,0.0252 0.08,2 0.08,2 3.9551,0.0428 3.9551,0.0428 0.0449,1.95722 0.0449,1.95722 4.04,0.0428 4.04,0.0427 v 1.99727 1.99725 h 8.24 8.24 v -2 -2 h 14.08001 14.08 v 4.08 4.08 h -14.08 H 140.8 v 2 2 h -10.24 -10.24 z m -20.26232,0.4 v -1.52 l 0.0599,0.76 0.0599,0.76 -0.0599,0.76 -0.0599,0.76 z m 64.79823,-0.16 v -1.36 l 0.0613,0.68 0.0613,0.68 -0.0613,0.68 -0.0613,0.68 z m -64.8,-3.84 v -1.36 l 0.0613,0.68 0.0612,0.68 -0.0612,0.68 -0.0613,0.68 z m 0.007,-4.32 v -2.16 l 0.056,1.08 0.056,1.08 -0.056,1.08 -0.056,1.08 z m 84.97732,1.92 -0.0989,-0.16 h 0.16944 0.16944 v 0.16 0.16 h -0.0706 -0.0706 z m -90.999999,-0.11952 1.960001,-0.0503 1.96,0.0503 1.96,0.0503 h -3.92 -3.920001 z m 8.639999,0 1.64,-0.0519 1.64,0.0519 1.64,0.0519 h -3.28 -3.28 z m 70.89,0.0101 0.21,-0.084 0.0967,0.0967 0.0967,0.0967 -0.30665,-0.0126 -0.30668,-0.0126 0.21,-0.084 z m 2.07,-0.0101 1.64,-0.0519 1.64,0.0519 1.64,0.0519 H 177.28 174 Z m 6.72,0.002 0.68,-0.0613 0.68,0.0613 0.68,0.0612 h -1.36 -1.36 z m 5.20932,-0.002 2.04931,-0.0501 1.95069,0.0503 1.95068,0.0503 h -4 -4 l 2.04932,-0.0501 z m 7.59068,0.002 0.68,-0.0613 0.68,0.0613 0.68,0.0612 h -1.36 -1.36 z m 10.35705,-6.04285 0.003,-6.08 1.92,-0.007 1.92,-0.007 -1.87808,0.0523 -1.87808,0.0523 -0.0449,6.03509 -0.0449,6.03509 0.003,-6.08 z m -32.49861,-0.16 v -1.6 l 0.0589,0.84536 0.0589,0.84536 -0.0597,0.75464 -0.0597,0.75464 v -1.6 z m -0.13844,-1.84 -0.0989,-0.16 h 0.16944 0.16944 v 0.16 0.16 h -0.0706 -0.0706 z m 20.21,-0.1093 0.21,-0.084 0.0967,0.0967 0.0966,0.0967 -0.30665,-0.0126 -0.30668,-0.0126 0.21,-0.084 z m -28.23409,-2.13057 v -1.36 l 0.0613,0.68 0.0613,0.68 -0.0613,0.68 -0.0613,0.68 z m 8.16,0 v -1.36 l 0.0613,0.68 0.0613,0.68 -0.0613,0.68 -0.0613,0.68 z m -34.37591,-1.76085 -22.24,-0.0808 24.2,-0.0392 L 164.80024,176 v -1.99948 -1.99947 l -6.04,0.003 -6.04001,0.003 -14.03521,-0.004 -14.03523,-0.004 -0.0448,-2.04 -0.0448,-2.04 -2.12,-0.0446 -2.12,-0.0446 v 2.08958 2.08957 l -1.96,-0.0449 -1.96,-0.0449 -0.0449,-1.96 -0.0449,-1.96 H 114.31508 112.32 l 1.6e-4,-4.04 1.6e-4,-4.04 1.77939,0.0199 1.7794,0.0199 0.30044,-0.0786 0.30045,-0.0784 V 155.82134 151.84 h 2 2 v -6.08 -6.08 h 2.08 2.08 l -9e-5,-4.12 -1e-4,-4.12 h 3.8801 3.88009 l 0.0448,-2.03829 0.0448,-2.0383 14.19523,-0.0417 14.19524,-0.0417 4.03524,0.0427 4.03524,0.0427 0.0448,2.03726 0.0448,2.03726 2.16,0.0256 2.16,0.0256 1.88,0.0144 1.88,0.0145 v 1.90288 1.90289 l 0.21553,0.0827 0.21554,0.0827 1.74446,-0.0256 1.74447,-0.0256 0.0448,-1.9514 0.0449,-1.9514 2.19513,-0.0486 2.19516,-0.0486 1.88,0.0449 1.88,0.0449 v 1.9103 1.91029 l -2.04,0.0448 -2.04,0.0448 -0.08,2.01903 -0.08,2.01902 -1.84,0.0125 -1.84,0.0125 -0.12,0.009 -0.12,0.009 v 2 2 h -2 -2 v -2 -2 l -1.76,-0.024 -1.76,-0.024 -0.2,-0.016 -0.2,-0.016 -0.08,-2 -0.08,-2 -2.04,-0.0448 -2.04,-0.0448 v 2.16478 2.16478 h 2 2 v 2 2 h 2 2 v 1.91508 1.91507 l -1.96,0.0449 -1.96,0.0449 -0.0449,1.95512 -0.0449,1.95511 -1.9551,0.0449 -1.95512,0.0449 -0.0446,2.12 -0.0447,2.12 h 2.08466 2.08464 v -2 -2 h 2 2 v -2 -2 l 0.16,-0.006 0.16,-0.006 h 1.6 1.6 l 0.24,0.006 0.24,0.006 v 2 2 h 2 2 v 2.00465 2.00464 l 2.12,-0.0446 2.12,-0.0447 v -2.08 -2.08 l -2.03512,-0.0447 -2.03511,-0.0447 -0.0449,-1.95526 -0.0449,-1.95526 -1.96,-0.0449 -1.96,-0.0449 V 145.59508 143.68 h 2 2 v -1.99521 -1.99523 l 2.04,-0.0448 2.04,-0.0448 0.0447,-2.03496 0.0447,-2.03496 1.87525,-0.045 1.87527,-0.045 0.0443,-2 0.0443,-2 1.68565,0.0549 1.68564,0.0548 0.40298,-0.10114 0.40296,-0.10113 -0.0529,-1.99394 -0.0529,-1.99393 2.04,1.6e-4 2.04,1.6e-4 v -1.99086 -1.99085 l 2.0139,-0.0491 2.01392,-0.0491 0.0661,0.0667 0.0661,0.0667 v 1.97333 1.97334 h 2.08795 2.08795 l -0.12795,0.22716 -0.12795,0.22717 0.08,1.81283 0.08,1.81284 1.52,0.032 1.52,0.032 0.36,0.008 0.36,0.008 v 6 6 h -2 -2 v 10.16 10.16 h -2 -2 v 2.08 2.08 h -1.99508 -1.99507 l -0.0449,1.96 -0.0449,1.96 -8.04,0.0415 -8.04,0.0415 v 1.99704 1.99704 l 8.04,0.043 8.04,0.043 -10,0.0397 -10,0.0397 -10.24,0.0388 -10.24,0.0388 -22.24001,-0.0808 z m -10,-14.25807 0.08,-2.01891 1.76,-0.0164 1.76,-0.0164 0.20479,-0.005 0.20477,-0.005 -0.0448,-2.04 -0.0448,-2.04 -2.03186,-0.0447 -2.03187,-0.0447 -0.10436,0.55633 -0.10437,0.55633 0.0562,1.44399 0.0562,1.444 -2,0.0444 -2,0.0444 -0.0447,2.12467 -0.0447,2.12469 2.12468,-0.0447 2.12467,-0.0447 z m 12.16,-8.13804 v -2.07695 l -0.37745,-0.0947 -0.37746,-0.0947 -1.74254,0.0517 -1.74255,0.0517 -0.0446,2.12001 -0.0446,2.12 H 138.63536 140.8 Z M 156.96001,149.84 v -2 l 1.96,-0.009 1.96,-0.009 1.94569,0.0165 1.94568,0.0165 0.081,-0.13098 0.081,-0.13098 0.0282,-1.7569 0.0282,-1.75689 -0.0149,-0.28 -0.0149,-0.28 h -4.08 -4.08 v 2 2 h -4.08 -4.08 v 2.16 2.16 h 4.16 4.16 v -2 z m -65.058349,16.08001 v -2 l 0.05681,1 0.0568,1 -0.0568,1 -0.05681,1 z m 17.264999,-6.1988 1.08665,-0.0561 0.99335,0.0566 0.99334,0.0566 -2.08,-4.8e-4 -2.08,-4.8e-4 1.08666,-0.0561 z m 7.06593,-14.04121 -9e-5,-6.08 0.0472,2.98947 0.0472,2.98947 -0.0472,3.09053 -0.0472,3.09053 z m 56.78332,-16.4 v -1.36 l 0.0613,0.68 0.0613,0.68 -0.0613,0.68 -0.0613,0.68 z m 20.0741,-1.86929 0.21,-0.084 0.0967,0.0967 0.0966,0.0967 -0.30665,-0.0126 -0.30667,-0.0126 0.21,-0.084 z M 164.85921,125.12 v -1.68 l 0.0588,0.84 0.0588,0.84 -0.0588,0.84 -0.0588,0.84 z m -46.49921,-1.88507 -1.88,-0.0451 -1.6e-4,-1.95492 -1.6e-4,-1.95493 1.92022,0.0534 1.92022,0.0534 v -2.00277 -2.00277 l -0.44,-0.0667 -0.44,-0.0666 0.44,-0.024 0.43988,-0.024 v -1.99522 -1.99522 l 2.04,-0.0448 2.04,-0.0448 0.0448,-2.03898 0.0448,-2.03898 24.31523,-0.041 24.31524,-0.041 -1e-5,2.12 v 2.12 h 2 2 v 2 2 h 4 4 v -1.99522 -1.99522 l 2.04,-0.0448 2.04,-0.0448 0.0449,-1.96 0.0449,-1.96 h 1.99507 1.99508 v 2 2 h -2.08 -2.08 v 2 2 h -2 -2 v 4.07891 4.0789 l -3.96,-0.0389 -3.96,-0.0389 -0.0448,-2.04 -0.0448,-2.04 h -3.99522 -3.99521 v -2 -2 H 150.8 132.48 v 1.99808 1.99808 l -6.04,0.0419 -6.04,0.0419 -0.08,2 -0.08,2 z m -1.2,-7.99253 0.76,-0.0599 0.76,0.0599 0.76,0.0599 h -1.52 -1.52 z M 116.22166,105.12 v -2 l 0.0568,1 0.0568,1 -0.0568,1 -0.0568,1 z m 48.63425,-0.16 v -1.36 l 0.0613,0.68 0.0613,0.68 -0.0613,0.68 -0.0613,0.68 z m 8.16,0 v -1.36 l 0.0613,0.68 0.0613,0.68 -0.0613,0.68 -0.0613,0.68 z m 32.48626,-3.92 v -2.079997 l 0.0561,1.086657 0.0561,1.08665 -0.0566,0.99335 -0.0566,0.99334 v -2.08 z M 124.3792,97.120003 v -1.68 l 0.0588,0.84 0.0588,0.84 -0.0588,0.84 -0.0588,0.84 z m -0.0181,-1.92 0.0655,-0.24 26.38667,-6.4e-4 26.38667,-6.4e-4 -26.31086,0.04119 -26.31085,0.0412 -0.14133,0.199524 -0.14133,0.199521 0.0655,-0.24 z"
         id="path421" />
      <path
         style="fill:#deb658;stroke-width:0.16"
         d="m 185.1609,212.80001 0.0652,-0.24 1.98693,-0.008 1.98693,-0.008 -1.91388,0.0536 -1.91388,0.0536 -0.13831,0.19464 -0.1383,0.19463 0.0653,-0.24 z m -67.8409,-0.27992 5.08,-0.0446 5.08,0.0446 5.08,0.0446 H 122.4 112.24 Z m 29.36,-4.002 -6.04,-0.0419 v -1.99806 -1.99808 h -10.15521 -10.15523 l -0.0448,-2.04 -0.0448,-2.04 -6,-0.0355 -6,-0.0355 -2.04,-0.004 -2.04,-0.004 v -2 -2 h -4.08 -4.079997 v -2 -2 h -2 -2 v -1.99508 -1.99507 l -1.96,-0.0449 -1.96,-0.0449 -0.128611,-9.98218 -0.128612,-9.98216 0.08359,-0.21784 0.08359,-0.21782 1.965022,0.0346 1.965021,0.0346 -1.96,0.0503 -1.96,0.0503 v 3.99507 3.99508 h 2 2 v 2.08 2.08 h 4 H 100 v 2 2 h 4.08 4.08 v 1.98827 1.98827 l -0.28,0.0732 -0.28,0.0732 4.36,0.0186 4.36,0.0186 v 2 2 h 2 2 v 2 2 h 10.24 10.24 v -2 -2 h 14.08001 14.08 v 2.00889 2.0089 l -2.04,-0.0489 -2.04,-0.0489 0.0436,6.16 0.0436,6.16 H 158.8436 152.72 Z m -46.56239,-14.55808 -0.0599,-0.76 v 1.52 1.52 l 0.0599,-0.76 0.0599,-0.76 z m 64.79955,-0.08 -0.0613,-0.68 v 1.36 1.36 l 0.0613,-0.68 0.0613,-0.68 z m -64.8,-3.84 -0.0613,-0.68 v 1.36 1.36 l 0.0613,-0.68 0.0612,-0.68 z m 0.001,-4.72 -0.056,-1.08 v 2.16 2.16 l 0.056,-1.08 0.056,-1.08 z m -2.158651,2.88048 -1.96,-0.0503 -1.96,0.0503 -1.96,0.0503 h 3.92 3.92 z m 8.000001,0 -1.64,-0.0519 -1.64,0.0519 -1.64,0.0519 h 3.28 3.28 z m 79.12275,16.24409 -0.0427,-4.04475 H 183.08 181.12005 l -5e-5,-4.04 -5e-5,-4.04 h -4 -4 v -4.08 -4.08 h -2.08 -2.08 v -2 -2 h -14.17884 -14.17884 l 0.0726,3.96 0.0726,3.96 -0.0585,-1.96 -0.0585,-1.96 h -8.07044 -8.07044 l -0.0585,1.96 -0.0585,1.96 0.0726,-3.96 0.0726,-3.96 h -4.10798 -4.10799 l 0.0491,1.98514 0.0491,1.98512 -0.12,-0.0746 -0.12,-0.0746 v -1.90776 -1.90778 l -3.96,-0.0428 -3.96,-0.0428 -0.08,-1.99344 -0.08,-1.99346 0.14268,-4.0418 0.14269,-4.04181 1.85731,-0.0447 1.85732,-0.0447 2.11514,0.0488 2.11515,0.0488 0.0449,1.95117 0.0449,1.95117 1.95532,0.0449 1.95532,0.0449 0.0497,-2.1249 0.0497,-2.12488 0.0349,2.12 0.035,2.12018 h 2.0089 2.00889 l -0.0489,-2.06512 -0.0489,-2.06511 0.12,0.0746 0.12,0.0745 v 1.99056 1.99056 l 14.04,0.004 14.04,0.004 6.04001,-0.003 6.04,-0.003 v 1.99947 1.99947 h -24.18667 -24.18667 l 0.0801,0.0801 0.0801,0.0801 42.34166,0.002 42.34167,0.002 0.0449,1.95889 0.0449,1.9589 -0.0452,4.03512 -0.0453,4.03512 -1.95475,0.0449 -1.95475,0.0449 -0.0428,4.04 -0.0427,4.04 h -1.99727 -1.99724 v 4 4 h -1.99522 -1.99522 l -0.0448,2.04 -0.0448,2.04 -2.03725,0.0447 -2.03723,0.0448 -0.0428,-4.04477 z m 0.19731,-16.12457 v -0.16 h -0.16944 -0.16944 l 0.0989,0.16 0.0989,0.16 h 0.0706 0.0706 z m -11.40333,-0.0967 -0.0967,-0.0967 -0.21,0.084 -0.21,0.084 0.30667,0.0126 0.30665,0.0126 -0.0967,-0.0967 z m 5.04333,-0.0227 -1.64,-0.0519 -1.64,0.0519 -1.64,0.0519 h 3.28 3.28 z m 4.8,0.002 -0.68,-0.0613 -0.68,0.0613 -0.68,0.0613 h 1.36 1.36 z m 7.84931,-0.002 -1.95069,-0.0503 -2.04931,0.0501 -2.04931,0.0501 h 4 4 l -1.95069,-0.0503 z m 4.95069,0.002 -0.68,-0.0613 -0.68,0.0613 -0.68,0.0613 h 1.36 1.36 z m -23.44186,-6.95749 -0.0589,-0.84536 v 1.6 1.6 l 0.0597,-0.75464 0.0597,-0.75464 -0.0589,-0.84536 z m 0.0419,-1.0854 v -0.16 h -0.16944 -0.16944 l 0.0989,0.16 0.0989,0.16 h 0.0706 0.0706 z m 20.27667,-0.0967 -0.0967,-0.0967 -0.21,0.084 -0.21,0.084 0.30667,0.0126 0.30665,0.0126 -0.0966,-0.0967 z m -77.11175,-2.01012 -0.0449,-1.9468 -3.95999,-0.0131 -3.95999,-0.0131 -10e-6,1.96 -1e-5,1.96 h 4.00493 4.00492 l -0.0449,-1.9468 z m 48.63223,-0.8132 -0.0613,-0.68 v 1.36 1.36 l 0.0613,-0.68 0.0613,-0.68 z m 8.16,0 -0.0613,-0.68 v 1.36 1.36 l 0.0613,-0.68 0.0613,-0.68 z m -85.165108,23.03697 -0.07791,-0.20302 0.04591,-3.91698 0.04591,-3.91697 0.03702,4.03507 0.03702,4.03507 1.96,0.0503 1.96,0.0503 -1.965021,0.0346 -1.965022,0.0346 z m 114.534608,-12.07577 1.08666,-0.0561 0.99334,0.0566 0.99335,0.0566 h -2.08 -2.08 l 1.08665,-0.0561 z m -9.12665,-12.16268 -8.04,-0.0415 v -1.99704 -1.99704 l 8.04,-0.0415 8.04,-0.0415 0.0449,-1.96 0.0449,-1.96 h 1.98981 1.98981 l 0.0453,4.04 0.0453,4.04 h -2.08 -2.08 z M 100.10667,172.05333 100,171.94668 v -1.97059 -1.9706 l -4.039997,-0.0456 -4.04,-0.0456 h 8.159997 8.16 l -4.04,0.0456 -4.04,0.0456 v 1.99248 1.99247 l 2.04,0.05 2.04,0.05 -2.01333,0.0348 -2.01333,0.0348 z m 24.24866,-10.16865 0.0447,-2.12467 2.12468,-0.0447 2.12468,-0.0447 -0.0447,2.12468 -0.0447,2.12468 -2.12467,0.0447 -2.12468,0.0447 z m 4.12467,-0.0447 v -2 h -2 -2 v 2 2 h 2 2 z m 82.04001,2.04153 1,-0.0568 1,0.0568 1,0.0568 h -2 -2 z m -97.27464,-3.99968 0.84536,-0.0589 0.75464,0.0597 0.75463,0.0597 -1.6,-8e-4 -1.6,-8e-4 0.84537,-0.059 z m 3.15034,-4.04185 0.004,-4.08001 2.04034,-0.08 2.04034,-0.08 -3.2e-4,0.12 -3.2e-4,0.12 h -1.99725 -1.99726 l -0.047,4.04001 -0.047,4.04 0.004,-4.08 z m 16.1187,2.04478 -0.0344,-2.03522 -2.04,-0.05 -2.04,-0.05 2.04503,-0.0348 2.04502,-0.0348 0.0803,0.20931 0.0803,0.20931 -0.0509,1.91069 -0.0509,1.91069 z m -4.13521,-0.12478 v -1.68 l 0.0588,0.84 0.0588,0.84 -0.0588,0.84 -0.0588,0.84 z m 12.22369,-3.31963 0.0429,-1.40038 0.0483,-0.72 0.0483,-0.72 0.0288,2.12001 0.0288,2.12 -0.12,3.2e-4 -0.12,3.2e-4 0.0429,-1.40038 z m 44.55206,-0.56037 -0.0349,-2.04001 h -2 -2 l 0.034,-1.8 0.034,-1.8 0.0516,1.73527 0.0516,1.73527 4.03443,-0.0553 4.03444,-0.0553 0.0451,1.98686 0.0452,1.98687 -0.12515,0.1257 -0.12513,0.1257 0.0489,-2.07256 0.0489,-2.07257 h -2.00426 -2.00424 l -0.0497,2.12001 -0.0497,2.12 z m -48.61444,-0.12 V 151.92 l 0.0577,0.92 0.0577,0.92001 -0.0577,0.92 -0.0577,0.92 z m 16.13949,-2.03988 4.12001,-0.0455 v -2.00256 -2.00257 l -4.08012,0.0453 -4.08012,0.0453 1.2e-4,-0.12 1.1e-4,-0.12 3.8,0.0201 3.80001,0.0201 2.32,0.11183 2.32,0.11184 -1.96,0.0281 -1.96,0.0281 v 2 2 l -4.20001,-0.0372 -4.2,-0.0372 z m 18.44001,-0.0401 -2.08,-0.0947 1.95507,-0.0327 1.95507,-0.0327 0.0449,-1.96 0.0449,-1.96 1.95512,-0.0449 1.9551,-0.0449 0.0449,-1.95511 0.0449,-1.95512 h 2.08 2.08 l 0.0449,1.96 0.0449,1.96 h 1.90563 1.90564 l 0.0746,0.12 0.0746,0.12 -1.98512,-0.0491 -1.98513,-0.0491 -0.002,0.28914 -0.002,0.28914 -0.11756,-0.176 -0.11755,-0.17601 -0.24,-0.0914 -0.24,-0.0914 0.28,-0.0126 0.28,-0.0126 v -2 -2 h -2 -2 v 1.98667 1.98666 l 0.16227,0.0533 0.16226,0.0533 -2.16226,-0.0524 -2.16227,-0.0524 v 2.00761 2.00762 l 2.04,0.05 2.04,0.05 -2,0.002 -2,0.002 -2.08,-0.0947 z M 137.8,151.56177 l 0.92,-0.0577 0.92,0.0577 0.92,0.0577 h -1.84 -1.84 z m 24.08001,-3.84023 1,-0.0568 1,0.0568 1,0.0568 h -2 -2 z m 16.4,8e-4 0.76,-0.0599 0.76,0.0599 0.76,0.0599 h -1.52 -1.52 z m -19.52945,-4.16188 2.03055,-0.0499 2.12946,0.0498 2.12944,0.0498 -4.16,1.6e-4 -4.16,1.6e-4 2.03055,-0.0499 z M 173.02268,141.6 v -2.16 l 0.056,1.08 0.056,1.08 -0.056,1.08 -0.056,1.08 z m 40.41733,-4.08 v -6 l -0.36,-0.008 -0.36,-0.008 -1.52,-0.032 -1.52,-0.032 -0.08,-1.81283 -0.08,-1.81284 0.12795,-0.22716 0.12795,-0.22717 h -2.08795 -2.08795 v -1.97333 -1.97334 l -0.0661,-0.0667 -0.0661,-0.0667 -2.01392,0.0491 -2.0139,0.0492 v 1.99085 1.99086 l -2.04,-1.6e-4 -2.04,-1.6e-4 0.0529,1.99393 0.0529,1.99394 -0.40296,0.10114 -0.40298,0.10114 -1.68564,-0.0548 -1.68565,-0.0548 -0.0443,2 -0.0443,2 -1.88,0.0451 -1.88,0.0451 v 1.98548 1.98548 l -0.12,0.0746 -0.12,0.0746 0.0489,-2.06511 0.0489,-2.06511 h -2.00426 -2.00424 l -0.0516,2.04 -0.0516,2.04 0.007,-2.08 0.007,-2.08 2.04,-0.0448 2.04,-0.0448 v -1.9103 -1.91029 l -1.88,-0.0449 -1.88,-0.0449 -2.19516,0.0486 -2.19513,0.0486 -0.0449,1.9514 -0.0448,1.95141 -1.74447,0.0256 -1.74446,0.0256 -0.21554,-0.0827 -0.21553,-0.0827 v -1.90288 -1.90288 l -1.88,-0.0144 -1.88,-0.0145 -2.16,-0.0256 -2.16,-0.0255 -0.0448,-2.03726 -0.0448,-2.03727 -4.03524,-0.0427 -4.03508,-0.0429 -14.19524,0.0417 -14.19523,0.0417 -0.0448,2.0383 L 132.4,131.44 h -3.88009 -3.8801 l 1e-4,4.12 9e-5,4.12 -0.12,6e-5 -0.12,6e-5 0.0437,-6.16006 0.0437,-6.16006 h -1.98485 -1.98485 l -0.11769,-4 -0.11768,-4 h -1.64807 -1.64807 l -0.25309,-0.0971 -0.25309,-0.0971 v 2.01204 2.01204 l 1.88,0.0507 1.88,0.0507 -1.96,0.0344 -1.96,0.0344 v -6.08 -6.08 h 1.99522 1.99522 l 0.0448,-2.04 0.0448,-2.04 2.04,-0.0448 2.04,-0.0448 V 105.03522 103.04 h 26.32 26.32001 v 2 2 l 8.2,0.0349 8.2,0.0349 -2.11512,0.0497 -2.11511,0.0497 -0.0449,1.87539 -0.0449,1.87539 0.0489,2.12 0.0489,2.12 h 1.9911 1.99111 l 0.008,-0.28 0.008,-0.28 0.0325,-1.68 0.0325,-1.68 6.04,-0.0419 6.04,-0.0419 v 2.00192 2.00192 h 1.99521 1.99522 l 0.0448,2.04 0.0448,2.04 1.94254,0.0448 1.94255,0.0448 0.0635,0.43522 0.0635,0.43521 0.0491,11.64 0.0491,11.64 h -0.0952 -0.0952 v -6 z m -40.36285,-8.92 -0.0613,-0.68 v 1.36 1.36 l 0.0613,-0.68 0.0613,-0.68 z m 20.31952,-1.17666 -0.0967,-0.0967 -0.21,0.084 -0.21,0.084 0.30667,0.0126 0.30665,0.0126 -0.0966,-0.0967 z m -8.17093,-3.06334 -0.10483,-3 v -3.08 -3.08 h -4 -4 v -2 -2 h -2 -2 v -2.12 l 10e-6,-2.12 -24.31524,0.041 -24.31523,0.041 -0.0448,2.03898 -0.0457,2.03898 -2.04,0.0448 -2.04,0.0448 v 1.99522 1.99522 l -0.44,0.024 -0.44,0.024 0.42142,0.0649 0.42142,0.0649 0.11748,3.99307 0.11748,3.99308 6.0211,-0.0419 6.0211,-0.0419 v -1.92 -1.92 l -6.08,-0.081 -6.08,-0.081 6.12006,-0.079 6.12007,-0.079 -6e-5,0.12 -7e-5,0.12 h 18.16 18.16001 l 0.0348,-2.12 0.0348,-2.12 0.05,2.03727 0.05,2.03726 4.03523,0.0456 4.03525,0.0456 -4.12,0.0371 -4.12,0.0371 v 2.00519 2.00518 l 4.12,-0.0452 4.12,-0.0452 -0.0489,2.04 -0.0489,2.04 h 4.1142 4.11419 z m -52.72048,-8.84 v -0.4 l 0.0807,0.2 0.0807,0.2 -0.0807,0.2 -0.0807,0.2 z m 32.41269,8.76 -0.0588,-0.84 v 1.68 1.68 l 0.0588,-0.84 0.0588,-0.84 z m 24.38161,-4.32 0.0196,-3.4 0.0272,-0.61112 0.0272,-0.61112 -0.12673,-0.0783 -0.12672,-0.0783 V 113.19056 111.2 h -2.0253 -2.0253 l 0.10485,3 0.10483,3 v 3.08 3.08 h 2 2 l 0.0196,-3.4 z m -70.61957,-4.7176 -0.76,-0.0599 -0.76,0.0599 -0.76,0.0599 h 1.52 1.52 z m 46.23716,-10.9624 -0.0613,-0.68 v 1.36 1.36 l 0.0613,-0.68 0.0613,-0.68 z m 8.16,0 -0.0613,-0.68 v 1.36 1.36 l 0.0613,-0.68 0.0613,-0.68 z m 8.10336,37.32 v -1.84 l 0.0577,0.92 0.0577,0.92 -0.0577,0.92 -0.0577,0.92 z m -63.86052,-2.03823 0.92,-0.0577 0.92,0.0577 0.92,0.0577 h -1.84 -1.84 z m 52.64666,-4.16057 1.08666,-0.0561 0.99334,0.0566 0.99335,0.0566 -2.08,-4.8e-4 -2.08,-4.8e-4 1.08665,-0.0561 z M 193.34109,109.2 v -1.92 l 0.057,1.00627 0.057,1.00627 -0.0575,0.91373 -0.0575,0.91373 v -1.92 z m -80.01443,-2.1188 1.08665,-0.0561 0.99335,0.0566 0.99334,0.0566 -2.08,-4.8e-4 -2.08,-4.8e-4 1.08666,-0.0561 z m 97.19335,3.2e-4 1,-0.0568 1,0.0568 1,0.0568 h -2 -2 z"
         id="path419" />
      <path
         style="fill:#a25a1e;stroke-width:0.16"
         d="m 152.8,218.64121 v -1.99882 l -10.12,-0.0412 -10.12,-0.0412 -0.0448,-2.04 -0.0448,-2.04 H 122.31522 112.16 v -2 -2 h -8.08 -8.079997 v -2 -2 h -1.995219 -1.995221 l -0.04478,-2.04 -0.04478,-2.04 -1.96,-0.0449 -1.96,-0.0449 v -3.99507 -3.99507 H 85.918537 83.83707 l 0.04147,-8.12 0.04147,-8.12 2.04,-0.0448 2.04,-0.0448 v -3.99029 -3.99029 l 1.96,-0.0449 1.96,-0.0449 0.0448,-2.04274 0.0448,-2.04274 4.035198,0.0427 4.035192,0.0427 0.0449,1.96 0.0449,1.96 h -4.084917 -4.084925 v 4.08 4.08 H 89.998102 87.9962 l 0.0419,6.12 0.0419,6.12 1.96,0.0449 1.96,0.0449 v 1.99507 1.99508 h 2 2 v 2 2 h 4.08 4.08 v 2 2 l 2.04,0.004 2.04,0.004 6,0.0355 6,0.0355 0.0448,2.04 0.0448,2.04 H 130.48479 140.64 v 2 2 l 5.96,0.002 5.96,0.002 6.20002,0.0381 6.20002,0.038 -2e-5,-6.12 -10e-6,-6.12 h 2 2 v -6.08 -6.08 h -14.16 H 140.64 v 2 2 h -8.08 -8.08 v -1.99725 -1.99726 l -4.04,-0.0427 -4.04,-0.0428 -0.0449,-1.96 -0.0449,-1.96 h 4.08493 4.08492 v 2 2 h 8.08 8.08 v -2 -2 h 14.16001 14.16 v 2 2 h 2.08 2.08 v 4.08 4.08 h 4 4 l 4e-5,4.04 5e-5,4.04 h 1.95995 1.95996 l 0.0428,4.04475 0.0428,4.04477 2.03723,-0.0448 2.03725,-0.0447 0.0448,-2.04 0.0448,-2.04 h 1.99522 1.99522 v -4 -4 h 1.99724 1.99727 l 0.0427,-4.04 0.0428,-4.04 1.96,-0.0449 1.96,-0.0449 0.007,-4.03507 0.007,-4.03507 0.0333,-2 0.0333,-2 2.04,-0.0448 2.04,-0.0448 v -6.07522 -6.07521 h 2 2 l 0.002,-2.04 0.002,-2.04 -0.002,-8.02328 -0.002,-8.02328 0.25205,-0.0967 0.25205,-0.0967 h 1.84211 1.84211 l -0.0491,-11.64 -0.0491,-11.64 -0.0636,-0.43522 -0.0635,-0.43521 -1.94254,-0.0448 -1.94255,-0.0448 -0.0448,-2.04 -0.0448,-2.04 h -1.99522 -1.99522 v -2.00193 -2.00192 l -6.04,0.0419 -6.04,0.0419 -0.0325,1.68 -0.0325,1.68 -0.008,0.28 -0.008,0.28 h -2 -2 v -1.99522 -1.99522 l 2.04,-0.0448 2.04,-0.0448 0.0272,-2.04 0.0273,-2.04 h -8.14726 -8.14725 v -2 -2 h -26.32 -26.32 v 1.99521 1.99523 l -2.04,0.0448 -2.04,0.0448 -0.0448,2.04 -0.0448,2.04 h -1.99522 -1.99522 v 6.08 6.08 h 2.08 2.08 v -2.00193 -2.00192 l 6.04,0.0419 6.04,0.0419 v 1.92 1.92 l -6.04,0.0419 -6.04,0.0419 v 1.99808 1.99808 h 2.0019 2.0019 l -0.0419,6.12 -0.0419,6.12 -1.95806,0.0449 -1.95806,0.0449 -0.0419,5.9551 -0.0416,5.95513 -2,0.08 -2,0.08 -0.0427,4.04001 -0.0427,4.04 H 114.32 112.3255 l -0.0428,4.04 -0.0427,4.04 -1.9413,0.0448 -1.94129,0.0448 -0.11755,3.99521 -0.11754,3.99524 H 106.14116 104.16 v -2 -2 h -2 -2 v -2 -2 h 4 4 v -4.08 -4.08 h 1.99726 1.99725 l 0.0427,-4.04 0.0427,-4.04001 2.04,-0.0448 2.04,-0.0448 -5e-5,-6.03522 -5e-5,-6.03522 2.00005,0.0308 2.00005,0.0308 v -6.06804 -6.06805 l -4.04,-0.0427 -4.04,-0.0427 -0.0412,-10.12 -0.0412,-10.12 h 2.08119 2.08119 v -2.08 -2.08 h 2 2 v -2 -1.999997 h 2.08 2.08 v -2 -2 h 26.32 26.32001 v 2 2 h 14.16 14.16 v 1.995217 1.99522 l 2.04,0.0448 2.04,0.0448 0.0448,2.04 0.0448,2.04 h 1.99522 1.99522 v 2 2 h 2 2 v 16.24 16.24 h -2 -2 v 10.08001 10.08 h -2 -2 v 6.08 6.08 h -2.08 -2.08 v 6.08 6.08 h -2 -2 v 4.08 4.08 h -1.99725 -1.99727 l -0.0427,4.04 -0.0428,4.04 -2.04,0.0448 -2.04,0.0448 v 1.99522 1.99522 h -2 -2 v 1.99521 1.99522 l -2.03895,0.0448 -2.03893,0.0448 0.0505,1.71752 0.0505,1.71752 -0.10485,0.33037 -0.10486,0.33036 -1.9467,-0.0165 -1.94672,-0.0165 -2.04,0.009 -2.04,0.009 v 2 2 h -12.16 H 152.8 v -1.9988 z m -44.47999,-40.6012 1e-5,-1.96 3.95999,0.0131 3.95999,0.0131 0.0449,1.9468 0.0449,1.9468 H 112.32493 108.32 l 1e-5,-1.96 z M 120.48,169.91508 v -2.08493 l 1.96,0.0449 1.96,0.0449 0.0448,2.04 0.0448,2.04 H 122.48478 120.48 Z m 4,-8.07507 v -2 h 2 2 v 2 2 h -2 -2 z m 4.10667,-2.10667 -0.10667,-0.10667 v -1.89333 -1.89333 h 2 2 v 2 2 h -1.89333 -1.89333 z m 8.13333,-3.98345 -0.16,-0.0698 0.0293,-1.96003 0.0293,-1.96004 2.01548,-0.0448 2.01548,-0.0448 -0.0448,2.04482 -0.0448,2.04482 -1.84,0.0299 -1.84,0.0299 z m 32.35135,-0.0119 -0.11134,-0.11134 V 153.65333 151.68 h 2.08 2.08 v -2 -2 h 2 2 v -2 -2 h -2 -2 v -2.08 -2.08 h 2 2 v 2.08 2.08 h 1.98288 1.98288 l 0.10524,-0.27427 0.10525,-0.27428 -0.0281,-1.76572 -0.0281,-1.76573 h 1.97999 1.97997 v 2 2 l -2.04,0.0448 -2.04,0.0448 v 1.99522 1.99522 h -2 -2 v 2 2 h -1.99522 -1.99522 l -0.0448,2.04 -0.0448,2.04 -1.92866,0.0447 -1.92867,0.0447 z m 16.20866,-1.97308 V 151.68 h -1.99002 -1.99002 l -0.05,-1.74067 -0.05,-1.74068 0.0526,-0.26415 0.0527,-0.26414 1.94733,0.0448 1.94735,0.0448 0.0449,1.96 0.0449,1.96 h 1.99986 1.99985 l -0.0448,2.04001 -0.0448,2.04 -1.96,0.0449 -1.96,0.0449 z m -36.60493,-4.04493 0.0449,-1.96 4.04,-0.0427 4.04001,-0.0428 V 145.67726 143.68 h 4.08 4.08 v 2 2 h -4.08 -4.08 v 2 2 h -4.08493 -4.08492 z m 20.48493,-10.14347 -0.2,-0.0832 V 137.50667 135.52 h 2.08478 2.08478 l -0.0448,2.04 -0.0448,2.04 -1.84,0.0299 -1.84,0.0299 z m 16.12,-1.9716 V 135.52 h 2.00478 2.00478 l -0.0448,2.04 -0.0448,2.04 -1.96,0.0449 -1.96,0.0449 z m -8.16,-12.24493 v -2 h -4.08 -4.08 v -2 -2 h -18.14289 -18.14288 l -0.10595,-0.27611 -0.10596,-0.27611 0.0308,-1.40291 0.0308,-1.4029 0.0767,-0.40098 0.0767,-0.40099 h 18.14135 18.14135 v 2.08 2.08 h 4.08 4.08 v 2 2 h 4.08 4.08 v -4.08478 -4.08478 l 2.03609,0.0448 2.0361,0.0448 -0.0144,0.56 -0.0144,0.56 -0.0218,3.48 -0.0216,3.48 h -2 -2 v 2 2 h -4.08 -4.08 z"
         id="path417" />
    </g>
  </g>
</svg>
