<?xml version="1.0" encoding="UTF-8" standalone="no"?>
<!-- Created with Inkscape (http://www.inkscape.org/) -->

<svg
   version="1.1"
   id="svg533"
   width="1535.5001"
   height="1119.5"
   viewBox="0 0 1535.5001 1119.5"
   sodipodi:docname="treasuremap.svg"
   inkscape:version="1.2.1 (9c6d41e410, 2022-07-14)"
   xmlns:inkscape="http://www.inkscape.org/namespaces/inkscape"
   xmlns:sodipodi="http://sodipodi.sourceforge.net/DTD/sodipodi-0.dtd"
   xmlns="http://www.w3.org/2000/svg"
   xmlns:svg="http://www.w3.org/2000/svg">
  <defs
     id="defs537" />
  <sodipodi:namedview
     id="namedview535"
     pagecolor="#ffffff"
     bordercolor="#000000"
     borderopacity="0.25"
     inkscape:showpageshadow="2"
     inkscape:pageopacity="0.0"
     inkscape:pagecheckerboard="0"
     inkscape:deskcolor="#d1d1d1"
     showgrid="false"
     inkscape:zoom="0.17383042"
     inkscape:cx="1021.1101"
     inkscape:cy="1067.132"
     inkscape:window-width="2560"
     inkscape:window-height="1370"
     inkscape:window-x="-6"
     inkscape:window-y="-6"
     inkscape:window-maximized="1"
     inkscape:current-layer="g1484" />
  <g
     inkscape:groupmode="layer"
     inkscape:label="Image"
     id="g539"
     transform="translate(-3022.3446,-503.5492)">
    <g
       id="g1484"
       transform="translate(2830.3447,103.5492)">
      <path
         style="fill:#fefefe;fill-opacity:0.984456"
         d="M 376,586.5 V 447 h 123 123 v 22.99231 22.99232 L 560.75,493.24231 499.5,493.5 499.23157,516.75 498.96314,540 H 468.48157 438 v 93 93 h -31 -31 z"
         id="path2003" />
      <path
         style="fill:#fefefe;fill-opacity:0.984456"
         d="M 376,1099.5 V 913 H 406.5 437 V 1099.5 1286 H 406.5 376 Z"
         id="path2001" />
      <path
         style="fill:#fefefe;fill-opacity:0.984456"
         d="m 499,1496 v -23 h 1.25 1.25 458 458 l 1.75,10e-5 h 1.75 v 23 23 h 153 153 v -536 -536 h -30.5 -30.5 v -23.5 -23.5 H 960 254 v 23.5 23.5 h -31 -31 v 536 536 H 345.5 499 v -23 z"
         id="path1999" />
      <path
         style="fill:#f4ea3b"
         d="M 254,959.5 V 447 h 30.50887 30.50887 l -0.0178,161.25 -0.0178,161.25 0.009,25.25 0.009,25.25 h 275.99485 275.99484 l 0.25516,92.99818 0.25515,92.99822 61,0.2518 61,0.2518 0.26877,22.75 0.26878,22.75 h -92.01878 -92.01877 v -93 -93 h -245.5 -245.5 v 233.5 233.5 h 368.46421 368.46415 l 0.014,22.25 0.014,22.25 0.022,1.25 0.022,1.25 h 245.4812 245.4813 l 0.2687,22.75 0.2688,22.75 30.25,0.2647 30.25,0.2646 V 1449.0147 1472 h -61 -61 v -23 -23 h -522.49996 -522.5 v 23 23 h -91.5 -91.5 V 959.5 Z M 1605.4497,1098.7082 1604.9942,1097.5 1604.7471,982 1604.5,866.5 1389.75,866.24771 1175,865.99542 V 842.99771 820 h 245.5035 245.5035 l -0.2535,139.75 -0.2535,139.75 -29.7974,0.2082 -29.7975,0.2081 z M 868.65138,819.31805 868,818.66667 V 772.83333 727 l 31.5,-0.0159 31.5,-0.0159 29.25,-0.0168 29.25,-0.0168 0.5,23.28267 0.5,23.28267 h 30.2681 30.2681 l -0.2681,23 -0.2681,23 -90.59862,0.23472 -90.59861,0.23471 -0.65139,-0.65138 z"
         id="path1498" />
      <path
         style="fill:#f8a92a"
         d="m 253.46496,1471.7552 -0.47629,-1.2552 0.25663,-512 0.25664,-512 0.24903,512.75 L 254,1472 h 91.48157 91.48157 l 0.29669,-23.0005 0.29669,-23.0006 -0.0283,23.2506 -0.0283,23.2505 -91.77937,0.2552 -91.77938,0.2553 -0.47629,-1.2553 z m 1289.78504,0.5714 60.75,-0.342 v -22.9776 -22.9777 l -30.25,-0.2646 -30.25,-0.2647 -0.2688,-22.75 -0.2687,-22.75 H 1297.4812 1052 l -0.021,-1 -0.021,-1 v -21.5 -21.5 l 0.021,-1 0.021,-1 h 276.5 276.5 l -4e-4,-116.75 -4e-4,-116.75 h 30.5025 30.5025 l -0.2521,186.2751 -0.2521,186.2751 -91.5,0.3092 -91.5,0.3092 z m -645.46416,-420.0765 92.28583,-0.2605 -0.28583,-22.9957 -0.28584,-22.9956 31.25,9e-4 31.25,8e-4 v -93 -93 l -0.75,8.2e-4 -0.75,8.2e-4 0.2844,-23.25082 0.2843,-23.25082 H 1020.7844 990.5 l -0.5,-23.285 -0.5,-23.285 -30.5,0.008 -30.5,0.008 0.25691,-139.9734 0.2569,-139.9734 h 30.48961 30.48961 l 0.25349,139.75 0.25348,139.75 30.2313,0.26464 30.2312,0.26463 0.2688,22.73537 0.2687,22.73536 276.75,0.25178 276.75,0.25178 V 610.00098 446.9992 h 30.5 30.5 v 186.5 186.5 H 1420.5 1175 v 22.98555 22.98555 l -30.75,0.26445 -30.75,0.26445 -0.2552,93.25 -0.2551,93.25 -153.74485,-0.2447 -153.74485,-0.2448 92.28584,-0.2604 z M 867.66667,1006.3333 867,1005.6667 V 912.83333 820 H 591 315 V 796.5 773 H 591.5 868 l 0.005,22.75 0.005,22.75 0.24487,94.25 0.24487,94.25 h -0.0833 -0.0833 l -0.66666,-0.6667 z M 500.8125,493.31689 l 1.3125,-0.52522 0.60417,0.60416 0.60416,0.60417 -1.91666,-0.079 -1.91667,-0.0789 1.3125,-0.52522 z m 32.50908,-0.0664 29.82158,-0.28045 29.17842,0.28069 29.17842,0.28069 -59,-2.4e-4 -59,-2.5e-4 z"
         id="path1496" />
      <path
         style="fill:#925326"
         d="m 731.75,1472.25 228.25,-0.2543 228.25,0.2543 228.25,0.2543 H 960 503.5 Z m 888.0618,0 15.3118,-0.3045 14.6882,0.3053 14.6882,0.3053 -30,-9e-4 -30,-8e-4 z M 1481.4301,1449 v -23.5 l 0.3167,11.75 0.3167,11.75 -0.3167,11.75 -0.3167,11.75 z M 1604.2479,1100.25 1604,867 h -244.9267 -244.9267 l -0.4196,1.25 -0.4196,1.25 0.11,-1.5 0.11,-1.5 245.2669,-0.25201 245.2669,-0.25201 0.4757,1.25201 0.4757,1.25201 -0.2584,232.5 -0.2585,232.5 z M 437,1099.5018 V 913 H 590.5 744 v 69.89301 69.89299 l 1.45276,0.5575 1.45276,0.5575 28.29724,0.01 28.29724,0.01 1.25,0.043 1.25,0.043 v 23.0032 23.0031 l 153.75,-0.2531 153.75,-0.2532 0.5,-22.8408 0.5,-22.8408 30,-0.1592 30,-0.1592 0.5,-70 0.5,-70 152.75,-0.25319 152.75,-0.2532 v 69.48853 69.48856 l -30.25,0.2646 -30.25,0.2647 -0.2754,69.442 -0.2753,69.4421 -0.3319,0.3319 -0.332,0.3319 -60.768,0.2261 -60.7681,0.226 0.1785,22.0297 0.1785,22.0297 -0.5642,1.4703 -0.5641,1.4703 -151.239,-0.2755 -151.239,-0.2754 -2.23126,0.5398 -2.23126,0.5398 -0.26874,22.7356 -0.26874,22.7357 -276.25,0.2518 -276.25,0.2518 V 1099.5088 Z M 1113.4793,962 v -91.5 l 0.2704,45.75 0.2705,45.75 -0.2705,45.75 -0.2704,45.75 z m -62.4004,42.4167 0.079,-1.9167 0.5252,1.3125 0.5252,1.3125 -0.6041,0.6042 -0.6042,0.6041 0.079,-1.9166 z M 1051.4793,911 v -91.5 l 0.2704,45.75 0.2705,45.75 -0.2705,45.75 -0.2704,45.75 z M 437.25,866.25004 560,865.9921 l 122.75,0.25794 122.75,0.25794 H 560 314.5 Z M 867.47236,749.5 l 0.0276,-23 30.65554,-0.5 30.65554,-0.5 -0.46456,0.75 -0.46455,0.75 h -29.92256 -29.92255 l -0.29607,22.75 -0.29608,22.75 0.0276,-23 z M 1604.4955,609.75001 V 446.5 l 30.5,-0.0217 30.5,-0.0217 -30.247,0.28612 -30.247,0.28613 -0.2575,162.98556 -0.2575,162.98557 V 609.74996 Z M 1051.2295,749.76466 1051,727.02933 1020.75,726.76466 990.5,726.5 990.24652,586.76445 989.99303,447.02889 959.24652,446.74205 928.5,446.4552 l 31,0.0224 31,0.0224 0.25348,139.75 0.25349,139.75 h 30.02793 30.0279 l 0.4887,1.27366 0.4888,1.27365 -0.2907,21.97635 -0.2907,21.97634 z M 407.25,726.32994 438,725.97151 V 632.98575 540 h 30.5 30.5 v -23 -23 l 2.25,-0.0116 2.25,-0.0116 59,-0.2384 59,-0.23841 0.26843,-23.25 0.26843,-23.25 H 499.35176 376.66667 l 0.62385,-0.62385 0.62386,-0.62386 244.54281,0.7486 L 867,447.24948 v 115.86059 115.86059 l -30.25,0.26467 -30.25,0.26466 -0.26843,23.25 -0.26843,23.25 H 637.64582 469.3285 l -46.41425,0.34418 -46.41425,0.34419 30.75,-0.35843 z M 1114,703.10699 v -22.89301 l -1.5818,-0.60699 L 1110.8364,679 h -29.4234 -29.4234 l 0.2552,-92.75 0.2552,-92.75 h 122.5 122.5 l 0.2684,23.25 0.2685,23.25 H 1359 h 60.9631 l 0.2685,23.25 0.2684,23.25 30.25,0.26466 30.25,0.26467 V 656.51466 726 H 1297.5 1114 Z m -844.68759,-256.85541 15.81241,-0.303 15.18759,0.30377 15.18759,0.30377 -31,-7.6e-4 -31,-7.7e-4 z"
         id="path1494" />
      <path
         style="fill:#6b4929"
         d="M 1666.4961,960 V 446.5 l 0.2539,256.75 0.2538,256.75 -0.2538,256.75 -0.2539,256.75 z m -967.66419,466.25 261.33191,-0.2538 260.66808,0.2538 260.6681,0.2538 h -522 -522 z m -61.49973,-94 322.83218,-0.2531 322.16784,0.2531 322.1678,0.2531 h -645 -645 z M 391.25,1286.2519 l 15.75,-0.3027 15.75,0.3027 15.75,0.3027 H 407 375.5 Z m 490.07846,-187.0018 74.82845,-0.2629 74.17159,0.2629 74.1715,0.2629 h -149 l -149,-10e-5 z M 805.23624,960.25 l 0.23625,-93.75 0.26244,33.5 0.26244,33.5 0.25132,60.25017 0.25131,60.25013 -0.75,-10e-5 L 805,1054 Z m 369.23526,24.25 2e-4,-65 0.2779,32.82259 0.2779,32.82259 -0.2781,32.17742 -0.2781,32.1774 z m -0.3926,-67.08333 0.079,-1.91667 0.5252,1.3125 0.5252,1.3125 -0.6041,0.60417 -0.6042,0.60416 0.079,-1.91666 z M 1174,914 v -1 h 1.059 1.059 l -0.618,1 -0.618,1 h -0.441 -0.441 z m -258.25,-93.74974 45.25,-0.27064 45.25,0.27064 45.25,0.27064 H 961 870.5 Z m -463,-48.00023 138.25,-0.25707 138.25,0.25707 138.25,0.25707 H 591 314.5 Z m 739,0 136.25,-0.25717 136.25,0.25717 136.25,0.25717 H 1328 1055.5 Z m 410.0625,0.0669 1.3125,-0.52522 0.6042,0.60416 0.6041,0.60417 -1.9166,-0.0789 -1.9167,-0.0789 1.3125,-0.52522 z m -1072.48316,-46.06684 91.82934,-0.26054 91.17066,0.26057 91.17066,0.26057 -183,-2e-5 -183,-3e-5 z m 679.49996,0 91.3293,-0.2606 90.6707,0.26063 90.6707,0.26063 -182,-3e-5 -182,-3e-5 z M 928.48613,586.5 l 5e-5,-139 0.26373,69.82812 0.26373,69.82811 -0.26378,69.17189 -0.26378,69.17188 z m 122.59277,87.91667 0.079,-1.91667 0.5252,1.3125 0.5252,1.3125 -0.6041,0.60417 -0.6042,0.60416 0.079,-1.91666 z M 1051.4787,584 v -88.5 l 0.271,44.25 0.2711,44.25 -0.2711,44.25 -0.271,44.25 z M 683.75,446.25015 744,445.98439 l 60.25,0.26576 60.25,0.26576 H 744 623.5 Z"
         id="path1492" />
      <path
         style="fill:#763a24"
         d="m 989.78581,1263.0127 0.28581,-22.9926 2.21419,-0.5355 2.21419,-0.5355 151.239,0.2754 151.239,0.2755 0.5641,-1.4703 0.5642,-1.4703 -0.1785,-22.0297 -0.1785,-22.0297 60.7681,-0.226 60.768,-0.2261 0.332,-0.3319 0.3319,-0.3319 0.2753,-69.4421 0.2754,-69.442 30.25,-0.2647 30.25,-0.2646 V 982.48534 913 h 31.25 31.25 l -0.2447,186.25 -0.2447,186.25 -276.7553,0.2526 -276.7553,0.2526 z m 115.96419,-163.7184 2.25,-0.4334 2.25,0.4334 2.25,0.4333 h -4.5 -4.5 z m 7.6733,-23.7943 v -21 l 0.322,10.8044 0.322,10.8043 -0.3235,10.1957 -0.3235,10.1956 v -21 z m -349.6733,-22.247 12.25,-0.3146 12.25,0.3146 12.25,0.3146 H 776 751.5 Z m 367.5,-2e-4 12.75,-0.3126 12.75,0.3126 12.75,0.3125 H 1144 1118.5 Z M 744.47268,982.5 l 1.8e-4,-68 0.27679,34.32303 0.27678,34.32303 -0.27697,33.67694 -0.27697,33.677 z M 929,912.96752 v -47.03247 l 30.75,0.28247 30.75,0.28248 0.21879,45.24955 0.21879,45.24954 -0.57578,1.50046 L 989.78602,960 H 959.39301 929 Z m 184.0789,-187.55085 0.079,-1.91667 0.5252,1.3125 0.5252,1.3125 -0.6041,0.60417 -0.6042,0.60416 0.079,-1.91666 z M 1481,656.96836 V 587.02933 L 1450.75,586.76466 1420.5,586.5 1420.2316,563.25 1419.9631,540 H 1359 1298.0369 l -0.2685,-23.25 -0.2684,-23.25 h -123 -123 l 0.5,-23.5 0.5,-23.5 243,-0.20029 243,-0.2003 2.5,0.51908 2.5,0.51908 -0.243,139.68122 -0.2431,139.68121 -31.0069,0.2037 -31.007,0.2037 z M 1113.4248,702 v -21.5 l 0.3214,10.75 0.3215,10.75 -0.3215,10.75 -0.3214,10.75 z m -291.11239,-22.74842 15.81241,-0.303 15.18759,0.30377 15.18759,0.30377 -31,-7.6e-4 -31,-7.7e-4 z m 244.43759,4.4e-4 15.25,-0.30411 15.25,0.30411 15.25,0.3041 H 1082 1051.5 Z M 867.48343,563 V 447.5 l 0.26641,57.75 0.26641,57.75 -0.26641,57.75 -0.26641,57.75 z m -2.67093,-116.68311 1.3125,-0.52522 0.60417,0.60416 0.60416,0.60417 -1.91666,-0.079 -1.91667,-0.0789 1.3125,-0.52522 z"
         id="path1490" />
      <path
         style="fill:#221027"
         d="m 191.99996,1517.25 -5e-5,-1.75 151.6851,0.2596 151.68511,0.2596 0.81774,-1.2596 0.81774,-1.2596 -0.35243,2.5 -0.35244,2.5 -148.90036,0.01 -148.90037,0.01 149,-0.5115 149,-0.5114 -152,-0.2298 -152,-0.2298 1.5,0.9694 1.5,0.9694 -1.75,0.015 -1.75,0.015 -4e-5,-1.75 z m 306.11496,0.75 -0.34562,-1.5 -0.13465,-1.5 -0.13465,-1.5 H 344.74999 191.99997 l 2e-5,-533.25 L 192,447 l 30.75,0.079 30.75,0.0789 -1.25,0.50439 -1.25,0.50439 v 511.33488 511.33484 l 0.51097,1.3318 0.51096,1.3318 92.98904,-0.2602 L 438,1472.9795 V 1449.9898 1427 h 521.7 521.7 l -1.0019,1.0019 -1.0019,1.0019 -520.16216,-0.2519 -520.16213,-0.2519 0.21404,22.6546 0.21405,22.6546 -0.54775,-0.3386 -0.54774,-0.3386 -1.4439,0.8923 -1.44389,0.8924 1.24164,1.2417 L 438,1477.4 v -1.259 -1.259 l 1,0.618 1,0.618 v 1 1 l -1.16994,-0.723 -1.16994,-0.7231 0.63856,1.6641 0.63855,1.664 h -0.54004 -0.54005 l -1.5,-1.5 -1.5,-1.5 h 0.69388 0.69387 L 435,1475.5 l -1.24489,-1.5 -89.12755,0.2418 -89.12756,0.2419 88.5,0.5163 88.5,0.5163 -88.19098,0.2419 -88.19099,0.2418 -0.56001,-0.9061 -0.56001,-0.9061 -1.88283,0.4923 -1.88283,0.4924 0.49633,1.898 0.49632,1.8979 91.03788,-5e-4 91.03787,-5e-4 0.50018,0.5002 0.50017,0.5002 -92.15055,5e-4 -92.15055,4e-4 v -1.6241 -1.6241 l -1.75,-1.3627 -1.75,-1.3627 1.75,0.6094 1.75,0.6095 v -1.666 -1.666 l -0.75,0.4635 -0.75,0.4635 0.25193,-512.40448 L 250.00387,448 H 222.00193 194 v 532 532 h 151 151 l 0.21412,-16.75 0.21411,-16.75 0.57177,17.5 0.57177,17.5 0.21411,-17.05 0.21412,-17.05 -1.2,-1.2 -1.2,-1.2 h 1.32244 1.32245 l -1.37245,-1.692 -1.37244,-1.6919 1.41994,0.856 1.41994,0.856 -0.72919,-1.9141 -0.72918,-1.914 1.07848,1.0692 1.07848,1.0693 -0.28897,22.9307 -0.28897,22.9308 z m 999.21358,0.2501 74.8284,-0.2629 74.1716,0.2629 74.1715,0.2629 h -149 l -149,-10e-5 z m 224.8876,-0.095 -1.2838,-0.8146 0.6408,-1.67 0.6409,-1.6701 h 0.8616 0.8616 l -0.5799,1.5113 -0.58,1.5114 1.8614,-0.6986 1.8613,-0.6986 -1.3724,1.6873 -1.3725,1.6872 -0.1275,-0.015 -0.1276,-0.015 -1.2839,-0.8147 z M 1422,1498.059 v -18.941 l 0.75,-0.4652 0.75,-0.4653 -0.2926,17.1563 -0.2926,17.1562 149.2926,-0.2467 149.2926,-0.2467 h 0.75 0.75 v -532 -532 h -26.5 -26.5 v 183.91667 183.91666 l 1.025,0.50834 1.025,0.50833 -1.275,-0.25832 -1.275,-0.25832 -0.2527,-183.85932 -0.2526,-183.85931 -1.2474,-0.79205 -1.2473,-0.79205 30.5,0.10068 30.5,0.10069 -1.75,0.45733 -1.75,0.45732 v 531.87698 531.87697 l 1.75,1.0326 1.75,1.0325 -3.25,-0.6078 -3.25,-0.6079 -0.015,1.375 -0.015,1.375 -0.7958,-1.2533 -0.7957,-1.2533 -147.8556,0.2533 -147.8557,0.2533 -0.4155,1.2467 -0.4156,1.2467 148.8323,0.2566 148.8322,0.2566 -149.25,0.2467 L 1422,1517 Z m 62.1268,-19.4456 -2.3733,-1.3157 2.3733,-0.8643 2.3732,-0.8644 57,-0.5659 57,-0.5659 -57.5,-0.1587 -57.5,-0.1587 -1.9411,1.4401 -1.9412,1.4401 H 1480.8089 1480 v -0.9267 -0.9267 l 1.75,-0.4573 1.75,-0.4573 -1.75,-0.116 L 1480,1474 v -0.75 -0.75 h 93.95 93.95 l -0.8028,0.8028 -0.8029,0.8029 -32.8971,0.1023 -32.8972,0.1022 3.75,0.4053 3.75,0.4052 v 1.016 1.0161 l 31.491,-0.2521 31.4909,-0.2521 0.5123,0.5123 0.5122,0.5122 -3.7532,-0.056 -3.7532,-0.056 -28.5,0.4471 -28.5,0.447 29,0.586 29,0.5861 -31.7011,-0.063 -31.701,-0.063 -1.299,-1.3529 -1.2989,-1.3529 4.5,0.5995 4.5,0.5995 -2,-0.9263 -2,-0.9263 h -58 -58 l -2,0.8594 -2,0.8594 0.5,0.2917 0.5,0.2917 57.5,0.5486 57.5,0.5487 -57,0.1945 -57,0.1945 -2.3732,-1.3157 z M 1671.1579,1474 v -2.5 l 0.5044,1.25 0.5044,1.25 -0.5044,1.25 -0.5044,1.25 z M 1668.5,1286.9045 V 1099 h 0.75 0.75 v 2.059 2.059 l 1,-0.618 1,-0.618 v 1.059 1.059 h -1 -1 v 184.941 184.941 l -0.75,0.4635 -0.75,0.4635 z m -248.103,185.9288 -0.515,-0.8333 h 1.5 1.5 l 0.515,0.8333 0.515,0.8334 h -1.5 -1.5 z M 504,1471 v -1 h 456 456 v 1 1 H 960 504 Z m 976.4071,-23 v -16.5 l 0.3369,8.25 0.3369,8.25 -0.3369,8.25 -0.3369,8.25 z M 315.07029,1099.75 315,867 l 2.25,0.0703 2.25,0.0703 -1.73541,0.68768 -1.73541,0.68768 0.23541,229.99204 L 316.5,1328.5 H 683.15451 1049.809 l -1.1545,0.7347 -1.1545,0.7347 1.4167,0.015 1.4166,0.015 -0.5054,0.5054 -0.5054,0.5054 -364.3539,-0.01 -364.35391,-0.01 -0.55734,-0.7473 -0.55735,-0.7473 h -1.5 -1.5 l -0.67971,1.5 -0.67972,1.5 -0.0703,-232.75 z m 736.92971,231 -10e-5,-1.25 219.7501,0.2513 219.75,0.2514 54.5,0.26 54.5,0.2601 -273.25,-0.011 -273.25,-0.011 v 0.75 0.75 h -1 -1 v -1.25 z m 549,0.2186 V 1330 h 1.5 1.5 v 0.393 0.393 l -1.5,0.5756 -1.5,0.5756 z m -0.7565,-114.6353 0.2436,-112.8333 0.5129,112.5 0.5129,112.5 0.2572,-111.5 0.2572,-111.5 0.4974,-2.5 0.4975,-2.5 -0.5944,1.25 -0.5945,1.25 h -0.7158 -0.7159 l 0.4086,-3.5 0.4086,-3.5 h 0.9031 0.9031 l -0.2625,-114.50007 -0.2625,-114.50008 0.75,8e-5 0.75,7e-5 v 114.3 114.3 l -1.225,1.225 -1.2249,1.2249 0.9749,1.7251 0.975,1.725 -0.5,113.4168 -0.5,113.4168 -1.25,0.4165 -1.25,0.4166 z m -1282.99141,-116.9796 -0.23511,-229.14624 1.54345,-0.59228 1.54345,-0.59227 -0.80194,1.23854 L 318.5,871.5 317.9936,1100 317.4872,1328.5 Z M 370.08102,1286.1514 369,1284.1315 v -1.5067 -1.5068 l 0.98855,-0.6109 0.98854,-0.611 -0.56555,1.4738 -0.56555,1.4738 1.15803,2.1638 1.15802,2.1638 -0.5,0.5 -0.5,0.5 z m 2.99793,0.2653 0.0789,-1.9167 0.52522,1.3125 0.52522,1.3125 -0.60416,0.6042 -0.60417,0.6041 0.079,-1.9166 z m 64.58771,0.5833 0.49999,-0.5 552.91668,-0.5 552.91667,-0.5 -0.2532,0.7597 -0.2533,0.7598 -553.16341,0.2402 -553.16341,0.2403 z M 375.24737,1103.3333 375,919.16667 l -1.25,-0.50439 -1.25,-0.50439 1.25,-0.0789 L 375,918 v -1.07143 -1.07143 l -1.54762,-1.54762 -1.54762,-1.54762 0.60199,-0.60199 0.602,-0.60199 0.93031,1.47104 0.93031,1.47104 0.0153,-1.25515 0.0153,-1.25514 185.85934,0.0155 185.85935,0.0155 -0.36361,2.73962 -0.3636,2.73961 1.25426,-2.5 1.25426,-2.5 1.5,-0.0978 1.5,-0.0978 -0.24525,38.59782 -0.24524,38.59783 -0.25476,31.29471 -0.25475,31.2946 27.25079,-0.2946 27.25079,-0.2947 -7.9e-4,0.75 -7.9e-4,0.75 h -30 -30 v -70.00001 -70 H 560.50259 376.00521 L 375.74995,1100.25 375.4947,1287.5 375.24734,1103.3333 Z M 748.75,1049.2928 750,1046.6013 v -65.85968 -65.85965 l -1.06817,0.66016 -1.06818,0.66017 0.57952,1.51019 0.57951,1.51019 -1.51134,-0.57995 L 746,918.06277 V 985.03138 1052 l 0.75,-0.01 0.75,-0.01 1.25,-2.6916 z M 747.4713,984 v -64.5 l 0.27821,32.25 0.2782,32.25 -0.2782,32.25 -0.27821,32.25 z m -375.45599,299.309 0.0153,-0.809 0.96937,-1.5 0.96937,-1.5 0.0153,1.691 0.0153,1.691 -1,0.618 -1,0.618 0.0153,-0.809 z M 1543.4895,1099 V 913.5 l 0.2604,92.75 0.2605,92.75 -0.2605,92.75 -0.2604,92.75 z m 127.7054,-0.5 0.037,-3 0.461,1.769 0.461,1.7691 -0.4981,1.2309 -0.498,1.231 0.037,-3 z m -864.83878,-22 0.14388,-23 h 153 153 l 0.2688,22.75 0.2687,22.75 -152.76873,-0.2452 -152.76877,-0.2452 152.5,-0.5064 152.5,-0.5064 -152.72485,-0.4984 -152.72485,-0.4984 -0.41903,1.5 -0.41903,1.5 z M 1112,1075.6648 v -20.3351 l -90.75,-0.6642 -90.75,-0.6643 -61.85699,-6e-4 -61.85699,-6e-4 0.60699,1.5818 0.60699,1.5818 V 1076.5818 1096 h 152 152 z m -259.3255,-20.4145 45.17449,-0.2706 45.82551,0.2705 45.8255,0.2705 -91,10e-5 -91,10e-5 z M 1668,1097 v -1 h 1.059 1.059 l -0.618,1 -0.618,1 h -0.441 -0.441 z m -553.9297,-46.25 0.07,-2.25 0.8594,2 0.8594,2 0.07,-1.6334 0.07,-1.6333 2,-0.523 2,-0.5231 v 0.9064 0.9064 h -1 -1 v 0.9844 0.9845 l 28.25,0.2817 28.25,0.2818 -30.25,0.2338 -30.25,0.2338 0.07,-2.25 z M 800.76578,961.50321 801.03156,872.00409 560.76578,871.74797 320.5,871.49185 l 240.75001,0.004 240.75002,0.004 0.36308,-1 0.36308,-1 0.85794,0.80437 0.85795,0.80438 -1.237,0.76451 -1.237,0.7645 0.26596,89.08606 0.26596,89.08603 -0.62895,-1.0181 -0.62895,-1.0181 -0.37105,1.1143 -0.37105,1.1143 0.26578,-89.49904 z M 1168,1049.9379 V 1049 h 2 2 v 0.7872 0.7872 l -2,0.1506 -2,0.1507 z m 5.0789,-0.5212 0.079,-1.9167 0.5252,1.3125 0.5252,1.3125 -0.6041,0.6042 -0.6042,0.6041 0.079,-1.9166 z m -58.8371,-89.77369 -0.2418,-88.85699 1.5818,0.60699 1.5818,0.60699 h 0.4182 0.4182 v 88 88 h -1 -1 l -0.2418,-88.25 -0.2419,-88.25 -0.5163,88.5 -0.5163,88.5 z m 53.7719,20.53684 0.04,-68.17985 h 0.9141 0.9141 l 0.618,1 0.618,1 h -1.0321 -1.0321 l -0.04,66.67951 -0.04,66.67949 -0.5003,0.5004 -0.5004,0.5003 0.04,-68.17985 z m -299.81523,25.28835 0.5318,-0.5318 57.63486,0.047 57.63487,0.047 v -1.1226 -1.1225 l 1.5,0.5756 1.5,0.5756 5.7e-4,-0.7186 5.7e-4,-0.7186 -38.25057,0.2537 -38.25057,0.2536 -19.58437,0.2464 -19.58437,0.2463 10e-4,-1.25 10e-4,-1.25 56.33334,-0.091 56.33333,-0.091 3.18939,-0.091 3.1894,-0.091 0.39394,1.1818 0.39394,1.1818 h -1.58334 -1.58333 v 0.9167 0.9166 l 1.25,0.5044 1.25,0.5044 -61.41667,0.079 -61.41666,0.079 0.5318,-0.5318 z m 122.8009,-0.2182 -6.2e-4,-0.75 28.11105,0.2808 28.111,0.2808 1.2728,-1.0563 1.2728,-1.0563 0.5854,1.5255 0.5854,1.5255 H 1020.9686 991 Z M 868,1001.441 v -1.55903 l 1.01631,0.62813 1.01631,0.6281 -0.57533,0.9309 -0.57532,0.9309 H 868.44098 868 Z m 129.5,0.8801 6,-0.2936 23.7214,-0.2637 23.7213,-0.2638 -1.7213,0.6797 -1.7214,0.6797 -28,-0.1224 -28,-0.1224 z M 871.23204,912.45 871,824.4 l -1.2,-1.2 -1.2,-1.2 h 1.25902 1.25901 l -0.46364,-0.75 -0.46364,-0.75 89.15463,0.4999 89.15462,0.49991 -88.5,0.25524 -88.5,0.25524 0.2695,63.74486 0.2695,63.74485 -0.28746,25.5 -0.28746,25.5 z m 178.24696,-1.95 10e-5,-90 0.2707,45.32542 0.2707,45.32542 -0.2708,44.67458 -0.2708,44.67458 z m -107.729,55.75228 14.25,-0.30719 14.25,0.30719 14.25,0.3072 H 956 927.5 Z m 0,-3 14.25,-0.30719 14.25,0.30719 14.25,0.3072 H 956 927.5 Z m -13.73118,-50.63211 0.0539,-48.37982 31.75729,-0.0347 31.7573,-0.0347 0.15545,2.06358 0.15544,2.06357 -1.14908,-1.14908 L 989.6,866 H 959.3 929 v 47 47 h 30.3 30.3 l 1.03333,-1.03333 1.03334,-1.03334 V 959.46667 961 h -31.85085 -31.85086 l 0.0539,-48.37983 z m 63.43785,-0.12017 -4.7e-4,-41 0.29239,20.18303 0.29239,20.18304 -0.29192,20.81696 L 991.45714,953.5 Z M 1171.5,919 l 0.618,-1 h 0.441 0.441 v 1 1 h -1.059 -1.059 z M 368.13618,916.91667 368,914.33333 l 0.61905,-0.61904 0.61905,-0.61905 1.38095,1.38095 1.38095,1.38095 v 0.69388 0.69387 l -1.4228,-1.18082 -1.4228,-1.18082 -0.44102,2.30838 -0.44102,2.30837 z m 898.19322,-4.66662 92.8294,-0.26044 92.1706,0.26047 92.1706,0.26046 -185,-3e-5 -185,-2e-5 z M 1118.9986,870.75 V 870 l 24.75,0.20564 24.75,0.20563 -8.5,0.28696 -8.5,0.28696 -16.2514,0.2574 -16.2514,0.25741 v -0.75 z m 50.5014,0.25 0.618,-1 h 0.441 0.441 v 1 1 h -1.059 -1.059 z m 4.5703,-0.25 -0.07,-1.75 -2.25,-0.0703 -2.25,-0.0703 2,-0.85225 2,-0.85226 213.5,0.16574 213.5,0.16574 -212.3992,0.5068 -212.3993,0.5068 -0.7805,2 -0.7804,2 -0.07,-1.75 z m 213.8721,0.50225 211.4424,-0.2569 0.6685,-1.08152 0.6684,-1.08152 0.6043,1.57473 0.6042,1.57473 -212.7151,-0.23631 -212.7151,-0.23631 z m -272.6802,-1.94393 1.7623,-0.45968 -0.5713,-0.92432 L 1115.882,867 h 1.6814 1.6815 l -1.2449,1.5 -1.2449,1.5 -1.6275,-0.116 -1.6276,-0.116 z M 561.5,867.998 l -242,-0.50811 242.80405,-0.23691 242.80405,-0.2369 -0.61307,0.99196 L 803.88197,869 803.69098,868.75306 803.5,868.50611 Z M 1668,820.5 V 817 h 0.3906 0.3906 l 0.4086,3.5 0.4086,3.5 H 1668.7992 1668 Z m 3.1579,1.5 v -2.5 l 0.5044,1.25 0.5044,1.25 -0.5044,1.25 -0.5044,1.25 z M 1600.3433,771.35667 1600.5,769.5 1328,769.496 l -272.5,-0.004 272.5,0.50634 272.5,0.50634 -272,0.23197 -272,0.23197 -1.3338,-0.84552 -1.3339,-0.84552 1.6656,-0.63917 1.6657,-0.63916 H 1328.5818 1600 l 0.2425,-160.25 0.2425,-160.25 0.5075,162 0.5075,162 -0.6567,0.85667 -0.6566,0.85666 0.1566,-1.85666 z M 315.0516,770.85035 315.23697,769.5 315.11848,607.75 315,446 h -29.89301 -29.89301 l -0.62988,-1.64144 -0.62988,-1.64145 1.45754,1.20966 1.45755,1.20966 29.55421,-0.31822 29.55421,-0.31821 0.0278,161 0.0278,161 0.57044,2.13714 0.57044,2.13714 -1.154,0.71321 -1.154,0.71321 0.18536,-1.35035 z m 551.13472,0.64965 -0.27498,-1 -0.20567,-22.65404 -0.20567,-22.65404 0.7346,0.45354 0.73459,0.45354 2.09282,-3.2995 2.09281,-3.2995 -0.6448,2.25 -0.6448,2.25 25.81739,0.15622 25.81739,0.15623 2.70107,0.12818 2.70108,0.12818 0.71559,0.7156 L 928.33333,726 H 897.6851 867.03686 l -0.28778,23.25 -0.28778,23.25 z M 1052.2035,749.25 1052,726 l -30.75,-0.18908 -30.75,-0.18909 5.5,-0.29476 5.5,-0.29476 27.0568,-0.26616 27.0569,-0.26615 0.135,2 0.1351,2 -1.3021,-1.75 -1.3022,-1.75 -0.3897,-10e-4 -0.3898,-10e-4 0.2954,15.25144 0.2955,15.25144 -0.3419,8.5 -0.3419,8.5 -0.2036,-23.25 z m 550.8754,21.16667 0.079,-1.91667 0.5252,1.3125 0.5252,1.3125 -0.6041,0.60417 -0.6042,0.60416 0.079,-1.91666 z M 318.57143,769.42857 317,767.85714 317.24544,607.17857 317.49088,446.5 l 0.50456,160.75723 0.50456,160.75723 273,0.23826 273,0.23825 -272.5,0.50633 -272.5,0.50632 272.5,0.50001 272.5,0.50001 -272.17857,0.24818 L 320.14286,771 Z M 1602,607.10765 V 445.88197 l -1,0.61803 -1,0.61803 V 446.05902 445 h 1.5 1.5 v -1.05902 -1.05901 l -1,0.61803 -1,0.61803 0.015,-0.80901 0.015,-0.80902 0.8754,-1.38213 0.8754,-1.38213 0.6767,2.13213 0.6767,2.13213 h 0.9326 0.9326 l 0.03,-1.25 0.03,-1.25 1.0193,1.75 1.0193,1.75 h 28.4503 28.4503 l 6e-4,-0.75 6e-4,-0.75 -28.5006,0.27998 -28.5006,0.27997 V 443.02998 442 h 28.5 28.5 v -20.5014 -20.50141 l -705.16385,0.004 -705.16385,0.004 -0.50282,-0.50281 L 253.66667,400 H 959.83333 1666 v 23.05633 23.05633 l -31.4889,-0.30633 -31.4888,-0.30633 -0.017,160.92254 -0.017,160.92253 -0.4942,0.49413 -0.4941,0.49413 z M 370.01531,727.30902 370.03063,726.5 371,725 l 0.96937,-1.5 0.0153,1.69098 0.0153,1.69099 -1,0.61803 -1,0.61803 0.0153,-0.80901 z m 5.47952,-141.059 L 375.5,444.5 l 2.61893,0.10679 2.61893,0.10679 -0.53693,-2.05324 -0.53694,-2.05324 -0.76171,1.94645 -0.76171,1.94645 -0.0703,-2.25 L 378,440 h 1.39159 1.39159 l 0.65028,2.59092 0.65028,2.59092 1.51909,-0.58292 1.51908,-0.58293 116.18904,-0.003 116.18905,-0.003 2.25,0.61135 2.25,0.61136 v -1.22362 -1.22362 l -1.43539,0.55081 -1.43539,0.55082 -0.39784,-1.19383 L 618.33354,441.5 500.91677,440.98979 383.5,440.47957 499.429,440.23979 615.358,440 l 3.571,1.25 3.571,1.25 1,1.25177 1,1.25177 121.91669,0.24823 121.9167,0.24823 0.49592,1.5 0.49593,1.5 -1.51274,-1.24805 -1.51274,-1.24806 -245.14647,-0.25194 -245.14648,-0.25195 -0.25858,141.25002 -0.25857,141.25002 0.005,-141.75002 z M 805.78463,703.87359 806.06925,680 H 837.53463 869 v -1 -1 h 1 1 v 0.83948 0.83949 l -2.54705,1.16051 -2.54706,1.16052 -29.70294,0.22758 -29.70295,0.22757 30,0.54485 30,0.54485 -29.75,0.22757 L 807,684 l -6.1e-4,0.75 -6.1e-4,0.75 28.25061,-0.0304 28.25061,-0.0304 -27.75,0.29594 -27.75,0.29594 -0.18962,17.23442 -0.18962,17.23443 0.10218,3.17656 0.10219,3.17657 -1.16256,0.44703 -1.16257,0.44703 0.28463,-23.8736 z M 1112,706.5 V 686 l -32.25,-0.22914 -32.25,-0.22914 L 1080,685 l 32.5,-0.54172 -30,-0.32882 -30,-0.32882 -2.3224,-0.65032 -2.3224,-0.65032 32.304,0.31495 32.304,0.31494 -0.5393,-0.53935 -0.5394,-0.53935 -29.0749,-0.0807 -29.075,-0.0807 -2.8673,-0.85894 -2.8673,-0.85893 32.75,-0.086 32.75,-0.086 v 23.5 23.5 h -0.5 -0.5 v -20.5 z m 431.4861,-120 10e-5,-139 0.2637,69.82812 0.2637,69.82811 -0.2637,69.17189 -0.2638,69.17188 z M 864,722.61658 v -1.38343 l 2.45652,-0.46959 2.45652,-0.46959 -0.9917,1.85301 L 866.92963,724 H 865.46482 864 Z m 127.2345,0.17653 0.4299,-1.29311 30.4178,-0.5 30.4178,-0.5 1.3214,1.25 1.3215,1.25 H 1053.5714 1052 l -0.015,-1.25 -0.015,-1.25 -0.9472,1.5 -0.9473,1.5 -29.6351,0.29311 -29.6352,0.2931 0.4299,-1.2931 z m 43.0155,-0.54083 -14.25,-0.30719 -14.25,0.30719 -14.25,0.3072 h 28.5 28.5 z m -148.4395,-3.7e-4 14.3105,-0.30756 13.6895,0.30848 13.6895,0.30848 -28,-9.2e-4 -28,-9.1e-4 z M 920.48589,584 V 447.5 l 0.26399,68.25 0.264,68.25 -0.264,68.25 -0.26399,68.25 z m 5,0 V 447.5 l 0.26399,68.25 0.264,68.25 -0.264,68.25 -0.26399,68.25 z m -59.72423,103.29274 2.26166,-0.4349 1.73834,0.45508 1.73834,0.45508 -4,-0.0202 -4,-0.0202 2.26166,-0.4349 z M 868,683 v -1 l 2.25,0.0153 2.25,0.0153 -1.5,0.9694 -1.5,0.96937 -0.75,0.0153 L 868,684 Z m 180.1579,-6 v -2.5 l 0.5044,1.25 0.5044,1.25 -0.5044,1.25 -0.5044,1.25 z M 869,676 v -1 h 1.55902 1.55901 l -0.61803,1 -0.61803,1 H 869.94098 869 Z m 0.8125,-2.68311 1.3125,-0.52522 0.60417,0.60416 0.60416,0.60417 -1.91666,-0.0789 -1.91667,-0.0789 1.3125,-0.52522 z M 1048.4794,582.5 l -10e-5,-92 0.2704,45.67441 0.2704,45.67442 -0.2703,46.32558 -0.2703,46.32559 z M 870.48301,560 V 447.5 l 0.26682,56.25 0.26682,56.25 -0.26682,56.25 -0.26682,56.25 z m 180.50769,-89.75844 -0.4907,-23.25844 0.3333,-0.99156 L 1051.1667,445 1294.8333,444.75306 1538.5,444.50612 1297,444 1055.5,443.49388 1298.309,443.24694 1541.118,443 l -0.618,1 -0.618,1 h 1.059 1.059 v -1 -1 h 0.9379 0.9378 l -0.1318,1.75 -0.1318,1.75 H 1298.0561 1052.5 l -0.5093,23.5 -0.5093,23.5 z m -2.7617,-2.67056 -0.229,-20.929 1.2009,-3.321 1.2009,-3.321 h 0.7991 0.7991 v 1 1 h 1.5 1.5 v 1.11663 1.11663 l -1.9632,-0.51339 -1.9633,-0.5134 -1.0163,1.22466 -1.0164,1.22466 -0.2914,21.42211 -0.2914,21.4221 z m -675.73449,-22.06895 0.66806,-2.99795 0.41871,-0.41872 0.41872,-0.41871 0.51789,0.51788 0.51788,0.51789 -1.60465,2.89878 -1.60466,2.89878 z M 991,446.97249 v -1.02751 l -31.30655,0.27751 -31.30655,0.27751 -0.0915,-2 -0.0915,-2 0.48141,1.25 0.48142,1.25 h 30.83333 30.83333 l 0.4386,-1.25 0.4386,-1.25 0.0197,2.75 0.0197,2.75 h -0.375 -0.375 v -1.02751 z m -674.19488,-3.50087 -1.15201,-2.52838 -0.81124,1.27838 -0.81124,1.27838 -0.0153,-1.83333 -0.0153,-1.83334 1.17856,0.39286 1.17855,0.39285 1.07145,1.94048 1.07144,1.94048 1,0.73469 1,0.73468 -1.27144,0.0153 -1.27144,0.0153 -1.152,-2.52838 z M 871,443.5 V 442 h -0.91667 -0.91666 l -0.50439,1.25 -0.50439,1.25 -0.0789,-2.16152 -0.0789,-2.16151 1.75,0.25203 1.75,0.25203 0.31955,2.15949 0.31955,2.15948 h -0.56955 -0.56955 v -1.5 z m -552.26879,-1.41984 -0.61931,-2.36826 1.05655,1.05655 1.05655,1.05655 -0.43724,1.31171 -0.43723,1.31171 z M 624,443 v -1 l 119.25,-0.0136 119.25,-0.0137 2.25,-0.60298 2.25,-0.60297 v 1.61663 1.61663 H 745.5 624 v -1 z m 309.2,-0.2 -1.2,-1.2 v -0.63333 -0.63334 h 1.5 1.5 V 441.16667 442 h 24.5 24.5 v 1 1 h -24.8 -24.8 z m 52.8,-0.26862 v -1.46861 l 1.5,0.5756 1.5,0.57561 V 443.10699 444 H 987.5 986 Z M 255.5,442 254.88197,441 H 283.94098 313 v 1 1 h -28.44098 -28.44099 z m 673,-1 0.61803,-1 H 929.55902 930 v 1 1 h -1.05902 -1.05901 z m 608.5,-0.21183 v -0.77562 l 1.9742,0.30129 1.9743,0.30129 0.6952,0.69526 0.6953,0.69526 -2.6695,-0.22093 -2.6695,-0.22094 z m 67.75,-0.45045 1.25,-0.50439 1.25,0.50439 1.25,0.50439 h -2.5 -2.5 z M 607.75,407.25 960,406.99719 1312.25,407.25 1664.5,407.50282 H 960 255.5 Z m 0,-2 352.25,-0.25281 352.25,0.25281 352.25,0.25282 H 960 255.5 Z"
         id="path1488" />
      <path
         style="fill:#1e0f26"
         d="m 193.65441,1517.7616 -1.15441,-0.7384 152.05606,0.2384 152.05606,0.2384 0.092,-2 0.092,-2 -0.48141,1.25 -0.48142,1.25 H 345.49841 195.16353 l -1.57604,-0.6048 -1.57604,-0.6048 0.55327,-0.8952 0.55327,-0.8952 h 151.94099 151.94098 l -0.22412,-17.25 -0.22413,-17.25 -0.30005,16.75 -0.30006,16.75 H 344.97578 193.99996 V 980 448 h 28.00193 28.00194 l -0.25194,512.40451 -0.25193,512.40449 0.75,-0.4635 0.75,-0.4635 v 1.666 1.666 l -1.75,-0.6095 -1.75,-0.6094 1.75,1.3627 1.75,1.3627 v 1.6241 1.6241 l 92.15055,-4e-4 92.15055,-5e-4 -0.50017,-0.5002 -0.50018,-0.5002 -91.03787,5e-4 -91.03788,5e-4 -0.49632,-1.8979 -0.49633,-1.898 2.13382,-0.5618 2.13383,-0.5618 89.11898,-0.035 89.11898,-0.035 1.25346,1.5104 1.25347,1.5103 h -0.69387 -0.69388 l 1.5,1.5 1.5,1.5 h 0.54005 0.54004 l -0.63855,-1.664 -0.63856,-1.6641 1.16994,0.7231 1.16994,0.723 v -1 -1 l -1,-0.618 -1,-0.618 v 1.259 1.259 l -1.24164,-1.2416 -1.24164,-1.2417 1.44389,-0.8924 1.4439,-0.8923 0.54774,0.3386 0.54775,0.3386 -0.21404,-22.6546 -0.21405,-22.6546 H 959.78592 1480.5 l -0.073,22.7107 -0.073,22.7107 1.5734,0.4233 1.5734,0.4233 -1.75,0.116 -1.75,0.116 v 1 1 h 0.8089 0.8088 l 1.9412,-1.4401 1.9411,-1.4401 57.5,0.1587 57.5,0.1587 -57.1673,0.5314 -57.1673,0.5314 -0.5,0.5 -0.4999,0.5 59.2488,-0.2801 59.2487,-0.2801 2.4185,1.0341 2.4185,1.0341 -4.5,-0.6069 -4.5,-0.6069 1.2989,1.3529 1.299,1.3529 31.701,0.063 31.7011,0.063 -29,-0.5861 -29,-0.586 28.5,-0.447 28.5,-0.4471 3.7532,0.056 3.7532,0.056 -0.5122,-0.5122 -0.5123,-0.5123 -31.4909,0.2521 -31.491,0.2521 v -1.0161 -1.016 l -3.75,-0.4052 -3.75,-0.4053 32.8639,-0.1023 32.8639,-0.1024 0.39,-0.3899 0.3899,-0.39 -0.01,-512.6628 -0.01,-512.6628 h 0.9993 0.9993 l 0.2526,184.16668 0.2527,184.16668 1.275,0.25832 1.275,0.25832 -1.025,-0.50833 -1.025,-0.50834 V 631.91497 447.9983 h 26.5 26.5 v 532 532 h -0.75 -0.75 l -149.2926,0.2467 -149.2926,0.2467 0.2926,-17.1562 0.2926,-17.1563 -0.75,0.4653 -0.75,0.4652 v 18.941 18.941 l 149.25,-0.2467 149.25,-0.2467 -148.8322,-0.2566 -148.8323,-0.2566 0.4156,-1.2467 0.4155,-1.2467 148.1667,-0.2533 148.1667,-0.2533 0.015,1.2533 0.015,1.2533 0.8774,-1.3853 0.8773,-1.3854 2.6723,0.6707 2.6722,0.6707 -0.3149,2.1363 -0.3149,2.1363 -1.5,0.491 -1.5,0.4909 1.5,-1.8498 1.5,-1.8499 -1.8613,0.6986 -1.8614,0.6986 0.58,-1.5114 0.5799,-1.5113 h -0.8616 -0.8616 l -0.6409,1.6701 -0.6408,1.67 0.9384,0.58 0.9384,0.5799 h -150.9227 -150.9226 l 0.2681,-22.5 0.2681,-22.5 1.3243,0.2748 1.3244,0.2748 -0.6334,-1.0248 -0.6333,-1.0248 h -3.441 -3.441 v -1 -1 H 960.07509 504.15843 l -0.33334,0.9683 -0.33333,0.9682 -3.1402,0.2361 -3.1402,0.2361 0.56014,1.4597 0.56014,1.4597 -1.41994,-0.856 -1.41994,-0.856 1.37244,1.6919 1.37245,1.692 h -1.24489 -1.24489 l 1.17266,1.413 1.17266,1.4129 -0.17552,19.3371 -0.17553,19.337 H 346.27086 194.80057 l -1.1544,-0.7384 z M 1543.5,1478.9855 l -57,-0.5545 -2.5,-0.7782 -2.5,-0.7781 2.5,1.5272 2.5,1.5272 57,-0.1945 57,-0.1945 z m -1155.25,-3.7352 -44.25,-0.2711 -44.25,0.2711 -44.25,0.271 h 88.5 88.5 z m 1283.4123,-2.5003 -0.5044,-1.25 v 2.5 2.5 l 0.5044,-1.25 0.5044,-1.25 z M 1670,1288.941 V 1104 h 1 1 v -1.059 -1.059 l -1,0.618 -1,0.618 v -2.059 -2.059 h -0.75 -0.75 v 187.9045 187.9045 l 0.75,-0.4635 0.75,-0.4635 z m 1.693,-191.672 -0.461,-1.769 -0.037,3 -0.037,3 0.498,-1.231 0.4981,-1.2309 -0.461,-1.7691 z m -2.193,-0.269 0.618,-1 h -1.059 -1.059 v 1 1 h 0.441 0.441 z m -0.3102,-276.5 -0.4086,-3.5 H 1668.3906 1668 v 3.5 3.5 h 0.7992 0.7992 z m 2.4725,0.25 -0.5044,-1.25 v 2.5 2.5 l 0.5044,-1.25 0.5044,-1.25 z m 53.0044,691.5833 -0.6667,-0.6666 V 979.83333 448 h 1.5 1.5 V 980.5 1513 h -0.8333 -0.8334 z M 251.60699,1472.4182 251,1470.8364 V 959.41821 448 h 1 1 v 513 513 h -0.39301 -0.39301 z m 64.4057,-372.4262 0.0121,-231.992 1.48759,-0.002 1.48758,-0.002 242.75,-0.002 242.75,-0.002 0.2242,91.21092 0.2242,91.21098 -1.2242,0.7777 -1.2242,0.7778 -26,0.016 -26,0.016 0.25475,-31.2507 0.25476,-31.25071 0.24524,-38.59783 0.24525,-38.59782 -1.5,0.0978 -1.5,0.0978 -1.25426,2.5 -1.25426,2.5 0.3636,-2.73961 0.36361,-2.73962 -185.85935,-0.0155 -185.8593,-0.0155 -0.0153,1.25514 -0.0153,1.25515 -0.93031,-1.47104 -0.93031,-1.47104 -0.602,0.60199 -0.60199,0.60199 1.54762,1.54762 1.54762,1.54762 v 0.9881 0.98809 l -1.25,0.50439 -1.25,0.50439 1.25,0.0789 1.25,0.0789 v 183.99999 184 l 1.25,0.01 1.25,0.01 583,-2e-4 582.99997,-2e-4 V 1099.7643 912.50911 l -184.75,-0.25265 -184.75,-0.25265 -0.1783,68.25265 -0.1783,68.25264 0.01,1.75 0.01,1.75 h -27.8294 -27.8294 v -1 -1 h 1 1 v -0.9064 -0.9064 l -2,0.5231 -2,0.523 -0.07,1.6333 -0.07,1.6334 -0.6797,-1.7113 -0.6797,-1.7112 0.5,-89.03893 0.5,-89.03891 -1,-0.42088 -1,-0.42088 1.6276,-0.0789 1.6275,-0.0789 1.2449,-1.5 1.2449,-1.5 h 24.2942 24.2942 l 0.5044,1.25 0.5044,1.25 0.079,-1.25 0.079,-1.25 2.25,0.0703 2.25,0.0703 -2,0.85943 -2,0.85943 2.25,0.0703 2.25,0.0703 0.07,1.75 0.07,1.75 0.7932,-2 0.7932,-2 -0.768,-0.5 -0.7681,-0.5 h 213.9165 213.9165 l 0.4178,1.5 0.4179,1.5 0.6958,229.75004 0.6958,229.75 h -1.6256 -1.6256 v 1 1 h -273.5 -273.5 v -0.75 -0.75 l 273.25,0.011 273.25,0.011 -54.5,-0.2601 -54.5,-0.26 -219.75,-0.2514 -219.7501,-0.2513 10e-5,1.25 v 1.25 h -1.559 -1.559 l 0.618,-1 0.618,-1 -1.309,-0.015 -1.309,-0.015 1.1545,-0.7347 1.1545,-0.7347 -365.65031,0.2486 -365.65038,0.2486 -0.50414,0.3375 -0.50414,0.3375 1.25,-0.3047 1.25,-0.3047 v 0.9672 0.9673 l 363.75,0.2547 363.74997,0.2547 -365.7497,0.2386 -365.74973,0.2386 0.0122,-231.9919 z m 1286.49381,116.1747 0.01,-112.1668 -0.5022,112.2501 -0.5022,112.25 -0.5108,-112.5 -0.5107,-112.5 -0.2436,112.8333 -0.2435,112.8334 1.25,-0.4167 1.25,-0.4166 0.01,-112.1667 z M 319.30194,870.26145 l 0.80194,-1.23854 -1.54345,0.59227 -1.54345,0.59228 0.23511,229.14624 L 317.4872,1328.5 317.9936,1100 318.5,871.5 Z m 51.70208,414.74605 -1.15803,-2.1638 0.56555,-1.4738 0.56555,-1.4738 -0.98854,0.611 L 369,1281.118 v 1.5068 1.5067 l 1.08102,2.0199 1.08102,2.0199 0.5,-0.5 0.5,-0.5 z m 2.67909,0.805 -0.52522,-1.3125 -0.0789,1.9167 -0.079,1.9166 0.60417,-0.6041 0.60416,-0.6042 -0.52522,-1.3125 z m 0.30158,-4.6215 -0.0153,-1.691 -0.96937,1.5 -0.96937,1.5 -0.0153,0.809 -0.0153,0.809 1,-0.618 1,-0.618 -0.0153,-1.691 z m 1228.09651,-178.941 0.081,-0.75 0.2018,-2.75 0.2017,-2.75 h -0.6736 -0.6736 l -0.4086,3.5 -0.4086,3.5 h 0.7992 0.7992 l 0.081,-0.75 z m -800.21015,-52.4582 0.62895,1.0181 -0.26596,-89.08608 -0.26596,-89.08606 1.237,-0.7645 1.237,-0.76451 -0.85795,-0.80438 -0.85794,-0.80437 -0.36308,1 -0.36308,1 -240.75002,-0.004 -240.75001,-0.004 240.26578,0.25612 240.26578,0.25612 -0.26578,89.49912 -0.26578,89.49914 0.37105,-1.1143 0.37105,-1.1143 0.62895,1.0181 z m 370.12895,0 v -0.7872 h -2 -2 v 0.9379 0.9378 l 2,-0.1507 2,-0.1506 z M 1118,960 v -88 h -1 -1 v 88 88 h 1 1 z m 51.014,20.67951 0.04,-66.67951 h 1.0321 1.0321 l -0.618,-1 -0.618,-1 h -0.9141 -0.9141 l -0.04,68.17985 -0.04,68.17985 0.5004,-0.5003 0.5003,-0.5004 0.04,-66.67949 z M 1173,919 v -1 h -0.441 -0.441 l -0.618,1 -0.618,1 h 1.059 1.059 z M 370.5772,916.06407 372,917.24489 v -0.69387 -0.69388 l -1.38095,-1.38095 -1.38095,-1.38095 -0.61905,0.61905 -0.61905,0.61904 0.13618,2.58334 0.13618,2.58333 0.44102,-2.30837 0.44102,-2.30838 z M 1160,870.69823 l 8.5,-0.28696 -24.75,-0.20563 L 1119,870 v 0.75 0.75 l 16.2514,-0.25741 16.2514,-0.2574 8.5,-0.28696 z M 1171,871 v -1 h -0.441 -0.441 l -0.618,1 -0.618,1 h 1.059 1.059 z m 430.326,-0.59296 -0.6043,-1.57473 -0.6684,1.08152 -0.6685,1.08152 -211.4424,0.2569 -211.4424,0.2569 212.7151,0.23631 212.7151,0.23631 z M 807.5,1076.2504 v -22.2495 l 61.5,2e-4 61.5,10e-5 90.75,0.6643 90.75,0.6642 V 1075.6648 1096 l -152.25,0.2452 -152.25,0.2452 152.5,0.5064 152.5,0.5064 -152.5,0.4984 -152.5,0.4984 z m 136.1745,-21.0002 -45.82551,-0.2705 -45.17449,0.2706 -45.1745,0.2706 91,-10e-5 91,-10e-5 z M 746,985.03138 v -66.96861 l 1.51134,0.57996 1.51134,0.57995 -0.57951,-1.51019 -0.57952,-1.51019 1.06818,-0.66017 L 750,914.88197 v 65.85965 65.85968 l -1.25,2.6915 -1.25,2.6916 -0.75,0.01 -0.75,0.01 V 985.03578 Z M 747.74951,951.75 747.4713,919.5 v 64.5 64.5 l 0.27821,-32.25 0.2782,-32.25 z M 989.25,1005.2667 988,1004.8333 V 1003.9167 1003 h 1.58333 1.58334 l -0.39394,-1.1818 -0.39394,-1.1818 -3.1894,0.091 -3.18939,0.091 -56.33333,0.091 -56.33334,0.091 -0.001,1.25 -10e-4,1.25 19.58437,-0.2463 19.58437,-0.2464 38.25057,-0.2536 38.25057,-0.2537 -5.7e-4,0.7186 -5.7e-4,0.7186 -1.5,-0.5756 -1.5,-0.5756 v 1.122 1.1221 l -58,-0.046 -58,-0.046 v -0.7689 -0.7689 l 1.08713,-1.0871 1.08713,-1.0872 -1.08713,-0.6718 -1.08713,-0.67193 -7e-5,-89.19099 -8e-5,-89.19098 h 90.49999 90.49999 l 0.2421,89.5 0.2421,89.5 0.516,-90 0.516,-90 0.242,90.25 0.242,90.25 -0.25,0.1971 -0.25,0.1971 -29.5,0.6178 -29.50003,0.6178 29.75083,-0.065 29.7508,-0.065 -0.08,1.5 -0.08,1.5 -0.5183,-1.2917 -0.5183,-1.2918 -1.2923,1.0726 -1.2924,1.0725 -28.1111,-0.2808 -28.11112,-0.2808 -0.2493,0.6 -0.24931,0.6 -1.25,-0.4333 z M 871.50595,824.25 870.9619,822 H 869.78095 868.6 l 1.2,1.2 1.2,1.2 0.24441,88.05 0.2444,88.05 0.2806,-87 0.2806,-87 z M 970.25,966.25228 956,965.94509 l -14.25,0.30719 -14.25,0.3072 h 28.5 28.5 z m 0,-3 -14.25,-0.30719 -14.25,0.30719 -14.25,0.3072 h 28.5 28.5 z m 21.6195,-50.66695 0.0488,-48.41468 -31.92281,0.0349 -31.9228,0.0349 -0.0539,48.37982 -0.0539,48.37983 h 31.92788 31.92787 l 0.0488,-48.41467 z m 122.6406,-44.60164 0.6281,-1.01631 0.9309,0.57533 0.9309,0.57532 V 868.55902 869 h -1.559 -1.559 z M 316.37796,769.75 316.25592,767.5 316.11673,606 315.97754,444.5 H 285.73877 255.5 l -0.68151,0.94819 -0.68151,0.9482 -0.0981,-22.69539 -0.0981,-22.69538 705.52956,-0.004 705.52956,-0.004 v 20.5014 20.5014 h -28.5 -28.5 v 1.02998 1.02997 l 28.5006,-0.27997 28.5006,-0.27998 -6e-4,0.75 -6e-4,0.75 h -27.9182 -27.9182 l -1.8318,0.59433 -1.8318,0.59433 1.1972,-0.87072 1.1972,-0.87073 -0.9319,-1.4736 -0.9319,-1.47361 -0.015,1.25 -0.015,1.25 h -0.9326 -0.9326 l -0.6767,-2.13213 -0.6767,-2.13213 -0.8754,1.38213 -0.8754,1.38213 -0.015,0.80902 -0.015,0.80901 0.8952,-0.55327 0.8952,-0.55327 0.6284,1.63738 0.6283,1.63739 -0.5236,0.52353 -0.5235,0.52354 v -1.16666 -1.16667 h -1.5 -1.5 v 1.05902 1.05901 l 1,-0.61803 1,-0.61803 0.2454,161.30901 L 1602.4909,768.5 1603,608 l 0.5091,-160.5 0.1752,160.5 0.1751,160.5 -0.8594,2 -0.8594,2 -0.3098,-0.5 -0.3097,-0.5 -0.518,-162 -0.5181,-162 -0.2425,160.25 L 1600,768 l -271.75,0.0153 -271.75,0.0153 -1.3338,0.84552 -1.3339,0.84552 1.6656,0.63917 1.6657,0.63916 271.6682,-0.24728 271.6682,-0.24729 -272.5,-0.50634 -272.5,-0.50634 272.4167,0.004 272.4166,0.004 0.4167,1.25 0.4167,1.25 h -274.0481 -274.0481 l -0.2853,-23.50082 -0.2852,-23.50082 0.3898,8.2e-4 0.3897,8.2e-4 1.3022,1.75 1.3021,1.75 -0.1351,-2 -0.1352,-2 -32.0568,0.0529 -32.0567,0.0529 28.5,-0.56804 28.5,-0.56803 -28.5,-0.48488 -28.5,-0.48488 V 582.74993 442.99918 l -0.33333,1.00075 L 990.83333,445 H 960 929.16667 l -0.55424,-1.25 -0.55424,-1.25 0.0894,1.5 0.0894,1.5 L 928.1185,585.10607 928,724.71214 924.25,724.49596 920.5,724.27977 895.18261,724.13989 869.86522,724 l 0.6448,-2.25 0.6448,-2.25 -2.09281,3.2995 -2.09282,3.2995 -0.73459,-0.45366 -0.7346,-0.45365 0.16639,23.40415 L 865.83277,772 H 591.16639 316.5 Z M 592,770.00363 319.5,769.50362 592,768.9973 l 272.5,-0.50633 -273,-0.23825 -273,-0.23826 L 317.99544,607.25723 317.49088,446.5 317.24544,607.17857 317,767.85714 318.57143,769.42857 320.14286,771 592.32143,770.75182 864.5,770.50364 Z M 371.98469,725.19098 371.96937,723.5 371,725 l -0.96937,1.5 -0.0153,0.80902 -0.0153,0.80901 1,-0.61803 1,-0.61803 -0.0153,-1.69099 z m 435.13655,1.81386 0.62124,-0.005 -0.12124,-21.49928 -0.12124,-21.49929 29.5,-0.22829 29.5,-0.22829 -30,-0.54485 -30,-0.54485 29.70295,-0.22757 29.70294,-0.22758 2.54706,-1.16052 L 871,679.67881 v -0.83949 -0.83948 h -0.91667 -0.91666 l -0.51077,1.25 -0.51076,1.25 -0.0481,-117.5 -0.0481,-117.5 -121.7745,-0.24823 -121.77449,-0.24823 -1,-1.25177 -1,-1.25177 -3.571,-1.25 -3.571,-1.25 -115.929,0.23979 -115.929,0.23978 117.41677,0.51022 117.41677,0.51021 0.39784,1.19382 0.39784,1.19383 1.30635,-0.5013 1.30635,-0.50129 0.58117,1.51452 0.58118,1.51452 -2.55999,-0.97331 -2.55999,-0.9733 -116.33119,0.0242 -116.33119,0.0242 -1.51908,0.58293 -1.51909,0.58292 -0.65028,-2.59092 -0.65028,-2.59092 h -1.39159 -1.39159 l 0.0703,2.25 0.0703,2.25 0.76171,-1.94645 0.76171,-1.94645 0.60025,2.29537 0.60025,2.29536 -0.56373,-0.56373 -0.56373,-0.56373 -1.98919,1.06458 -1.98919,1.06459 0.77518,-1.25428 0.77519,-1.25428 -1.15451,0.71353 -1.15451,0.71352 v 141.19099 141.19098 l 215.75,-0.24516 215.75,-0.24517 0.62124,-0.005 z M 1543.9932,585 l -0.02,-142 H 1542.9866 1542 v 1 1 h -1.059 -1.059 l 0.618,-1 0.618,-1 -242.809,0.24694 L 1055.5,443.49388 1297,444 l 241.5,0.50612 -243.75,0.24694 L 1051,445 l 9e-4,1.25 9e-4,1.25 -0.032,116.25 -0.032,116.25 -1.7192,0.086 -1.7193,0.086 2.8673,0.85893 2.8673,0.85894 29.075,0.0807 29.0749,0.0807 0.5394,0.53935 0.5393,0.53935 -32.304,-0.31494 -32.304,-0.31495 2.3224,0.65032 2.3224,0.65032 30,0.32882 30,0.32882 L 1080,685 l -32.5,0.54172 32.25,0.22914 L 1112,686 v 20.5 20.5 h 216.0066 216.0066 z m -676.07186,137.14698 0.9917,-1.85301 -2.45652,0.46959 L 864,721.23315 V 722.61658 724 h 1.46482 1.46481 z m 45.88916,0.10585 -13.6895,-0.30848 -14.3105,0.30756 -14.3105,0.30757 28,9.1e-4 28,9.2e-4 z m 137.2684,-0.50283 0.079,-1.25 0.5044,1.25 0.5044,1.25 h 1.4881 1.4881 l -1.3215,-1.25 -1.3214,-1.25 -30.5,0.4981 -30.5,0.4981 28.5,0.52538 28.5,0.52538 1.25,0.22652 1.25,0.22652 0.079,-1.25 z m -130.32902,-206 -0.26399,-68.25 V 584 720.5 l 0.26399,-68.25 0.264,-68.25 z m 5,0 -0.26399,-68.25 V 584 720.5 l 0.26399,-68.25 0.264,-68.25 z m -55.98822,171.56292 -1.73834,-0.45508 -2.26166,0.4349 -2.26166,0.4349 4,0.0202 4,0.0202 -1.73834,-0.45508 z M 850.25,685.25228 836,684.94509 l -14.25,0.30719 -14.25,0.3072 H 836 864.5 Z M 871,683 l 1.5,-0.96937 -2.25,-0.0153 L 868,682 v 1 1 l 0.75,-0.0153 0.75,-0.0153 z m 177.6623,-7.25 -0.5044,-1.25 v 2.5 2.5 l 0.5044,-1.25 0.5044,-1.25 z M 871.5,676 l 0.61803,-1 H 870.55902 869 v 1 1 h 0.94098 0.94099 z m 0.22917,-2.60417 -0.60417,-0.60416 -1.3125,0.52522 -1.3125,0.52522 1.91667,0.0789 1.91666,0.0789 -0.60416,-0.60417 z M 1048.7497,536.17441 1048.4793,490.5 l 10e-5,92 10e-5,92 0.2703,-46.32559 0.2703,-46.32558 z M 870.74983,503.75 870.48301,447.5 V 560 672.5 l 0.26682,-56.25 0.26682,-56.25 z m 179.30737,-59.31887 1.0163,-1.22466 1.9633,0.5134 1.9632,0.51339 V 443.11663 442 h -1.5 -1.5 v -1 -1 h -0.7991 -0.7991 l -1.2009,3.321 -1.2009,3.321 0.229,20.929 0.229,20.929 0.2914,-21.4221 0.2914,-21.42211 z M 374.51789,442.18455 374,441.66667 l -0.41872,0.41871 -0.41871,0.41872 -0.66806,2.99795 -0.66805,2.99795 1.60466,-2.89878 1.60465,-2.89878 z m -55.01789,3.05014 -1,-0.73469 -1.07144,-1.94048 -1.07145,-1.94048 -1.17855,-0.39285 -1.17856,-0.39286 0.0153,1.83334 0.0153,1.83333 0.81124,-1.27838 0.81124,-1.27838 1.15201,2.52838 1.152,2.52838 1.27144,-0.0153 1.27144,-0.0153 -1,-0.73468 z m 552.31955,-2.39417 -0.31955,-2.15949 -1.75,-0.25203 -1.75,-0.25203 0.0789,2.16151 0.0789,2.16152 0.50439,-1.25 0.50439,-1.25 h 0.91666 0.91667 v 1.5 1.5 h 0.56955 0.56955 l -0.31955,-2.15948 z m -552.6511,-2.07207 -1.05655,-1.05655 0.61931,2.36826 0.61932,2.36826 0.43723,-1.31171 0.43724,-1.31171 z M 867,442.38337 v -1.61663 l -2.25,0.60297 -2.25,0.60298 -119.25,0.0137 L 624,442 v 1 1 H 745.5 867 Z M 984,443 v -1 H 959.5 935 v -0.83333 -0.83334 h -1.5 -1.5 v 0.63334 0.63333 l 1.2,1.2 1.2,1.2 h 24.8 24.8 z m 5,0.10699 v -0.89301 l -1.5,-0.57561 -1.5,-0.5756 V 442.53138 444 h 1.5 1.5 z M 313,442 v -1 h -29.05902 -29.05901 l 0.61803,1 0.61803,1 H 284.55902 313 Z m 617,-1 v -1 h -0.44098 -0.44099 l -0.61803,1 -0.61803,1 H 928.94098 930 Z m 611.6437,0.31039 -0.6952,-0.69526 -1.9743,-0.30129 -1.9742,-0.30129 v 0.77562 0.77561 l 2.6695,0.22094 2.6695,0.22093 z m 65.6063,-0.97267 -1.25,-0.50439 -1.25,0.50439 -1.25,0.50439 h 2.5 2.5 z M 1312.25,407.25 960,406.99719 607.75,407.25 255.5,407.50282 H 960 1664.5 Z m 0,-2 L 960,404.99719 607.75,405.25 255.5,405.50282 H 960 1664.5 Z"
         id="path1486" />
    </g>
  </g>
</svg>
